<svg id="logo-svg" xmlns="http://www.w3.org/2000/svg" viewBox="0 0 4780.23 2241.87">
	<defs>
		<style>
			.cls-1,
			.cls-4 {
				fill: #643219;
			}

			.cls-1,
			.cls-2,
			.cls-3 {
				stroke: #643219;
			}

			.cls-1 {
				stroke-miterlimit: 10;
			}

			.cls-1,
			.cls-2,
			.cls-3,
			.cls-5 {
				stroke-width: 50px;
			}

			.cls-1,
			.cls-2,
			.cls-3,
			.cls-5,
			.cls-6,
			.cls-8 {
				fill-rule: evenodd;
			}

			.cls-2,
			.cls-3 {
				fill: #fff3e4;
			}

			.cls-2 {
				stroke-linecap: round;
			}

			.cls-2,
			.cls-3,
			.cls-5 {
				stroke-linejoin: round;
			}

			.cls-4 {
				font-size: 128px;
				font-family: Arial-Black, Arial;
				font-weight: 800;
			}

			.cls-5 {
				fill: #fff;
				stroke: #643219;
			}

			.cls-6 {
				fill: #f99f43;
			}

			.cls-7 {
				fill: #df8029;
			}

			.cls-8 {
				fill: #fbeab7;
			}

			.eggyolk {
				transform-origin: 35% 70%;
				animation: yolkwobble infinite ease-in-out alternate 160ms;
			}
			
			.eggwhite {
				transform-origin: 35% 70%;
				animation: eggwobble infinite ease-in-out alternate 140ms;
			}
			
			@keyframes eggwobble {
				0% { transform: skew(1deg, 1deg) }
				50% { transform: skew(2deg, -2deg) }
				100% { transform: skew(-1deg, 0deg) }
			}
			
			@keyframes yolkwobble {
				0% { transform: skew(3deg, 4deg); }
				50% { transform: skew(6deg, -5deg); }
				100% { transform: skew(-3deg, 2deg); }
			}
		</style>
	</defs>
	<g id="shadow">
		<g id="shell">
			<path class="cls-1"
				d="M3896.16,539.9c-32.83,61.12-85.61,466.67-36.63,699.75,49.2,233.78,184.16,426.93,371.12,364.76,117.67-38.39,228.07-157.88,302.8-269.63,74.46-112.72,113.24-217.69,81.74-249.5-34.72-34.8-129.59,22.65-214.64,92.4-85.24,69.18-160.67,150.65-160.68,150.6.16.68,88.84-158.73,161.12-343.78,71.66-187.18,126.93-400,46.1-555.4-46.15-88.88-160.53-110.07-274.66-83.24C4058.19,372.3,3944.19,446.74,3896.16,539.9Z"
				transform="translate(-362.6 -224.86)" />
			<path class="cls-1"
				d="M3350.2,479.47c-38.89,58.72-130.93,387.69-105.13,647.24C3271,1386,3404.3,1737.62,3639.59,1703.77c119.26-16.77,221.86-115.93,288.84-218.34,66.81-103,98-209.24,70.63-253.71-61.08-99-391.34,174.52-390.54,175.6.17.88,107.88-166,201.29-361.85,92.85-197.31,171.39-423.63,100.4-574.89C3817.41,271.81,3464.12,301.66,3350.2,479.47Z"
				transform="translate(-362.6 -224.86)" />
			<path class="cls-1"
				d="M1312.14,379.92C1171.2,376,1013.82,484.84,974.76,631c-43,160.76,19.94,284.6,92.17,373.1,72.47,87.68,154.25,140,154.51,139,.12-.34-150.89-97.14-179.84-94-33.92,4.58-166.68,66.48-154.83,115.69,16.44,72.85,59.58,164.7,129.5,250,70,84.76,166.87,163,293.78,196,230.08,60.74,394.82-48.93,401.55-322.63,7.31-294.69-183.84-410.53-243.88-454.87-63.92-48-110.74-76.09-110.72-76.12.16-.42,176.59,94.05,216.35,84,30.84-7.63,100.05-113.1,94.68-154.14C1653.92,577.33,1474.52,383.91,1312.14,379.92Z"
				transform="translate(-362.6 -224.86)" />
			<path class="cls-1"
				d="M1641.62,464.47c-40.23,47.23-35.68,315.65-19.9,530.15,16.2,213.3,105.3,606.34,139.13,636.66,34.26,30,240.25,104.28,268.39,60.4,18.24-27.77,29.75-439.86,29.84-440,0,0,13.07,411.64,30.51,446.64,26.58,54.66,234.76,13.3,261.68-3.31,26.49-14.85,97.75-281.36,123.14-535,25-253.15,50.47-625.94,15-676.93-35.27-51.09-380.66-91.44-406.9-28.38-16,38.51-33,391.43-32.9,391.25,0,0-8.22-354.51-23.37-400.13C2011.6,401.74,1681.58,418.15,1641.62,464.47Z"
				transform="translate(-362.6 -224.86)" />
			<path class="cls-1"
				d="M2872,356.21c-137.33,2.29-268.64,129.36-355.82,304.19-87.46,175.14-130.81,398-98.74,599.34,51.95,322.19,269.11,537.56,496.52,513.63,178.43-18.92,299.51-152,370.23-286.69,70.58-135.37,90.8-272.39,64.26-314.15-42.21-64.69-397.25-.87-397.1-2.24-.11,1.4,343.77-66.59,385.81-122.2,31.11-40-25.28-243.54-64-281.93-46.33-45.32-305.51-2.77-305.41-3.08-.08.71,345.19-46.2,387.43-99.18C3386.76,627.06,3127.6,353.21,2872,356.21Z"
				transform="translate(-362.6 -224.86)" />
		</g>
		<g id="shockers">
			<path class="cls-1"
				d="M4761,2323.17c108.37-17.15,231.87-123.45,267.28-246.7,78.53-270.88-189.58-341.06-189.89-341.62.05.1,122.63,37.51,146.4,27.9,27.63-11.19,140.26-97.86,132.68-135.89-21.84-109.32-133-249.56-349.08-223.89-196,23.46-331.39,140-331.29,335.41.07,210.3,154.6,270,202.24,291.39,51.06,23.09,118.46,42.28,118.46,42.27.09.17-158.86-45-178.63-32.48-23,14.77-102.21,89.86-97.21,117.86C4495.34,2232.1,4636.4,2343.11,4761,2323.17Z"
				transform="translate(-362.6 -224.86)" />
			<path class="cls-1"
				d="M4444.12,1939.74c-.08,0,142.48-48.78,139.7-274.06-3.25-285.64-481.39-263.94-556.51-200.65-76.12,62.58-168.33,793-133.8,825.78,34.85,33.33,268.74,62.92,305.89,24,37.28-38.56,13.72-286.44,13.62-286.53.18.18,61.34,267.71,106.81,294.59,33.5,20.06,263.68-29.85,292-73.28C4642.61,2204.09,4444.7,1940.52,4444.12,1939.74Zm-176.71-212.09c-9.14,61.9-36.88,100.15-36.87,100.15q12.75-99.78,25.62-199.48S4276.63,1665.18,4267.41,1727.65Z"
				transform="translate(-362.6 -224.86)" />
			<path class="cls-1"
				d="M3660.25,2369.93c-210.63,13.78-416-317.71-377.72-598,31.14-224.29,206.71-374.71,397-373.46,298.74,2.36,400.48,314.92,356.66,377-34.84,50.06-320.63,33.38-320.7,33.18.05.17,277.36,20.33,310.38,53.89,24.5,25-22.61,170.51-53.22,199.76-36.87,35.21-241.08,23.88-241.13,23.74,0,.09,176.37,15,209,47.92C3964.21,2157.87,3856.25,2357.33,3660.25,2369.93Z"
				transform="translate(-362.6 -224.86)" />
			<path class="cls-1"
				d="M2894.17,1465.08c-70.19,76.25-37.94,739.3,34.45,820.58,33.37,37.26,214.27,76.36,249.73,51,37.72-26.71-23.63-264.51-23.78-264.56.12,0,56.77,232.58,89.1,258,35.14,27.82,279.8-19.16,300.79-62.79,25-50.17-208.88-346.77-208.67-399.84.06-41.14,227.81-344.26,189.43-392.11-42-51.85-259.3-74.45-289.54-57.55-36.83,20.5-87.46,275.58-87.36,275.6-.13,0,53.66-269.68,20.3-281.34S2927.55,1428.72,2894.17,1465.08Z"
				transform="translate(-362.6 -224.86)" />
			<path class="cls-1"
				d="M2642.56,1408c-219.26-11.28-413.25,347.87-360.12,625.55,42.07,222.5,212.41,364.29,396,353.6C2993,2368.26,3042,1973.36,3024.5,1900c-14.64-60.82-325.34-16.9-325.21-17.08-.07,0-39.9,208.7-38.08,181.72,8.27-128,7.67-240-6.54-351.79-5.31-42,22.57,140.74,50.11,146.62S2993.12,1872,3014,1835.61C3032.43,1804.29,2918.7,1422.7,2642.56,1408Z"
				transform="translate(-362.6 -224.86)" />
			<path class="cls-1"
				d="M718.77,2312.05c108.36,8,230.44-71.86,264.35-191.43,75.38-264.16-193-383.94-193.43-383.52.07-.06,123,59.38,146.66,54,27.53-6.21,139.25-75.79,131.37-116.65C1045,1557.21,933.3,1397.17,717.25,1393.15c-196-3.68-331.37,90.41-329.64,279.18,1.89,203.15,157.72,291.16,205.64,322.08,51.44,32.85,119.17,65.79,119.16,65.79s-159.66-76.73-179.38-68c-22.9,10.15-101.52,67.51-96.17,95.61C451.16,2162.53,594.21,2302.7,718.77,2312.05Z"
				transform="translate(-362.6 -224.86)" />
			<path class="cls-1"
				d="M1630.7,2265.68c31.48-33.75,30.15-230.06,19.15-386-10.8-156.12-82.29-433.57-111.15-450.83-28.61-17.45-202-50.42-225.08-18.45-15.14,21-17.1,354.84-17,354.8s-18.33-332.18-33.44-355.08c-23.12-35-196.17,4.56-217.86,15.66-21.89,11.33-73.29,192.07-85.37,361.09-12.27,169.26-19.22,416.7,10.09,451.72s298,71.85,317.39,28.6c11.69-26,22.27-221.83,22.3-221.86s9.23,197.15,21.61,229C1343.28,2305.3,1599.1,2299.76,1630.7,2265.68Z"
				transform="translate(-362.6 -224.86)" />
			<path class="cls-1"
				d="M2309.29,1263.82c281.08,79.28,84.22,360.39,103.94,500.83,19.34,140.61,212,270.77,114.49,410.87-74.7,108-193.26,44.09-330.4,98.15-136.94,53.81-130.87,199.79-341.52,161.84-175-31.94-180.55-284.37-223.3-377-48.52-106.22-262.17-218.53-184-389.11,78.8-171.1,204.74-141,304.08-177.06C1856.53,1454.64,1988.74,1174.37,2309.29,1263.82Z"
				transform="translate(-362.6 -224.86)" />
		</g>
	</g>
	<g id="face">
		<g id="shell-2" data-name="shell">
			<path class="cls-2"
				d="M3906.5,443.07c-33.23,51.48-88.54,394.36-41.1,604.1,47.69,209.83,181.17,410.73,370.08,412.23,236.62,1.79,452.92-306.75,390.2-389.21-71.45-91.83-380.67,132.93-379.58,133.59.07-.09,90.3-124.22,163.6-287,72.8-162.94,128.68-364.59,48.38-522.24C4365.93,213.67,4003.17,288.91,3906.5,443.07Z"
				transform="translate(-362.6 -224.86)" />
			<path class="cls-2"
				d="M3361,360.35c-39.21,47.39-132.3,313.06-107.53,526.91,25,214,155.4,511.45,389.58,523,236.62,11.88,415.27-257.16,361.92-346.27-60.76-99.25-392.1,89.63-391.09,90.4.1-.09,108.5-124.72,203-282.7,94-158.15,174.1-349.65,104-487.75C3829.56,203.23,3475.72,218.23,3361,360.35Z"
				transform="translate(-362.6 -224.86)" />
			<path class="cls-2"
				d="M1322.84,325.77c-140.87,6.53-297.61,124-336.5,274.43C901.93,931.1,1237,1041.24,1236,1042c.14-.17-152.22-57.45-181.43-47.49-34.06,11.2-168.3,110.57-156.47,158.87,33.76,138.65,173.76,317.8,429.36,302.33,232.13-13.78,395.39-139.92,400.47-376.21,5.48-254.38-186.33-331.66-246.73-363.42C1417,681.79,1369.93,662.59,1370,662.58c.17-.21,177.33,60.81,217,47.17,30.79-10.82,99.29-109.46,93.67-144.06C1665.84,473.46,1485.18,317.88,1322.84,325.77Z"
				transform="translate(-362.6 -224.86)" />
			<path class="cls-2"
				d="M1652.8,375.54c-39.92,43.43-33.65,277.25-16.51,462.19,17.58,184.9,109.11,510.46,143,529.45,34.48,18.55,239.87,48.34,267.49,9.13,17.94-25.88,27.25-370.29,27.35-370.3s15.13,341.31,32.62,368.21c26.72,40.8,232.91-13.6,259.5-27.56,26.16-14.35,96-235.51,120.74-442.09,24.29-206.63,49.06-509.37,13.47-550.22-35.32-41.75-381-65.81-406.91-11.47-15.83,32.33-31,326.47-30.94,326.46s-10-294.12-25.38-331.45C2022.4,301,1692.44,331.27,1652.8,375.54Z"
				transform="translate(-362.6 -224.86)" />
			<path class="cls-2"
				d="M2883.13,249.88c-137.48,1.07-268.82,104.33-355.5,248-87,143.62-129.4,327.6-97,490.1,52.73,260.29,267.83,422.43,492.62,410.34,351.92-18.48,484.59-393.25,433-466.37-41.83-59-395.28-22.32-395-21.43-.19-.83,342.08-41,384.34-82.05,31.18-31.08-24.12-202.53-62.61-235.5-46.08-40.22-304.82-12.75-304.69-12.28-.07-.35,222.89-30.13,265-71.2C3274.47,479.4,3138.7,247.93,2883.13,249.88Z"
				transform="translate(-362.6 -224.86)" />
		</g>
		<g id="shockers-2" data-name="shockers">
			<path class="cls-2"
				d="M4777.43,2267.9c108.89-4.21,230.23-94.81,261.92-214.68,70.17-264.53-200-361.52-200.24-361.17,0-.08,123.67,48.85,147.17,41.82,27.35-8.36,137.23-84,128.42-123.18-25.33-112.49-140-262.87-354.14-252.91-194.29,9.17-326.71,114.46-322.53,304.6C4442.5,1867,4599,1939,4647.37,1964.92c51.84,27.57,120.07,53.58,120.07,53.59s-160.72-60.44-180.24-49.63c-22.71,12.38-100.57,78.69-94.93,106.51C4507.33,2149.34,4652.21,2272.58,4777.43,2267.9Z"
				transform="translate(-362.6 -224.86)" />
			<path class="cls-2"
				d="M4449.42,1859.35c0-.1,141.77-35.66,133.6-257-10.15-282.26-485-287.32-559-229-74.58,57-156.64,751.65-121.5,785,35.54,33.55,271.86,79.51,308.59,45.49,36.81-34.31,8.35-276.32,8.29-276.32.11,0,66.75,264,113.24,294.51,34.22,22.11,265.18-3.83,292.59-43.33C4654.79,2136,4449.78,1859.15,4449.42,1859.35Zm-181.25-219.2c-7.94,59.38-35,94.53-35,94.53q10.9-95.72,21.88-191.43S4276.19,1580.22,4268.17,1640.15Z"
				transform="translate(-362.6 -224.86)" />
			<path class="cls-2"
				d="M3668.49,2220.43c-212.64,1.37-421.64-317.59-384.71-581.73,29.84-211.48,203.58-350.56,392.94-343.11,297.13,11.93,403.78,319.42,361.07,376.53-34,45.56-320.38,15.37-320.43,15.76,0-.37,277.86,32.51,311.51,67.37,25,25.51-19.9,162.62-50.22,188.76-36.49,31.17-241.81,9-241.84,9.25,0-.15,177.33,23.6,210.63,57.56C3971.7,2035.63,3866.1,2219.14,3668.49,2220.43Z"
				transform="translate(-362.6 -224.86)" />
			<path class="cls-2"
				d="M2894.7,1343.39c-69.82,71.67-37.11,697.35,36.14,774.75,33.63,35.18,216.1,75.2,251.71,52.35,37.81-24.38-25.2-250.69-25.3-250.68.07,0,58.27,221.12,91.07,246.16,35.6,26.77,281.79-8.69,302.41-48.81,24.36-47.35-213.11-337.16-213-386.7,0-39,225-320,186-366.58-42.41-50.8-258.92-77-288.94-61.27-36.51,18.77-85.77,259.1-85.7,259.11-.08,0,52.19-254.08,18.86-265.63C3134.6,1284.32,2928,1309,2894.7,1343.39Z"
				transform="translate(-362.6 -224.86)" />
			<path class="cls-2"
				d="M2644,1289.35c-217.92-10.18-413.55,333.74-362.26,595.45,40.78,209.57,211.92,339.14,397.1,328.39,317.46-18,365.09-387.86,347.24-458-14.86-58.31-325.94-18.27-325.86-17.8,0,0-40.18,197.06-38.36,171.6,8.45-120.86,7.93-226.5-6.15-331.93-5.27-39.61,22.42,132.7,50,138.19,27.65,5.13,288.83,12.61,309.63-21C3033.54,1665,2918.67,1302.34,2644,1289.35Z"
				transform="translate(-362.6 -224.86)" />
			<path class="cls-3"
				d="M704.45,2259.38c109.11-5.07,234.2-96.6,271-216.67,81.48-265-184.34-360-184.6-359.7,0-.07,121.54,48,145.36,40.8,27.72-8.56,141-85,133.92-124-20.31-112.26-128.07-261.86-342.73-250.55-194.76,10.39-332.16,116.6-336.46,306.86-4.62,204.7,148.91,275.63,196.18,301.22,50.67,27.18,129.31,52.54,129.3,52.56s-169.67-59.14-189.67-48.17c-23.25,12.56-104,79.48-99.52,107.28C439.16,2142.87,579,2265.05,704.45,2259.38Z"
				transform="translate(-362.6 -224.86)" />
			<path class="cls-2"
				d="M1624.24,2132.82c32.19-34.29,33.53-222,24.66-370.71s-76.18-411.16-104.59-426.55c-28.26-15.58-200.33-39.1-223.82-6.9-15.4,21-23.42,343.72-23.39,343.72s-12.25-320-26.87-341.32c-22.35-32.82-195.32,15.42-217.18,27.87-22,12.27-77.14,192.12-93.17,358.8s-29.09,410.43-.4,441.87c28.75,31.05,298.65,42.07,319-.78,12.29-26.15,26.57-216.45,26.59-216.45s5.61,190,17.5,219.84C1334.08,2190.71,1592,2166.76,1624.24,2132.82Z"
				transform="translate(-362.6 -224.86)" />
		</g>
	</g>
	<text class="cls-4" transform="translate(4539.16 2167.02)">TM</text>
	<g id="logo-egg">
		<g class="eggwhite">
			<path id="white" class="cls-5"
				d="M2317.35,1209.12c275.33,74.63,79.48,339.67,96.84,472.19s210.3,254.45,111.27,386.81c-76.42,102.14-195.82,42.57-335.56,95.19s-137.17,190.62-351.06,159.09c-177.72-26.2-174.2-266.79-214-354.5-45.47-100.29-254.52-204.6-169.19-369.46s208.5-136.63,308.06-171.59C1868.41,1390.1,2004.93,1124.43,2317.35,1209.12Z"
				transform="translate(-362.6 -224.86)" />
		</g>
		<g id="yolk" class="eggyolk">
			<path class="cls-6"
				d="M2019.67,2006.58a254.63,254.63,0,1,1,180-74.6A252.86,252.86,0,0,1,2019.67,2006.58Z"
				transform="translate(-362.6 -224.86)" />
			<path class="cls-7"
				d="M2019.66,1517.21c129.55,0,234.57,105.07,234.57,234.68s-105,234.69-234.57,234.69-234.56-105.07-234.56-234.69,105-234.68,234.56-234.68m0-40a273.7,273.7,0,1,0,106.9,21.6,272.89,272.89,0,0,0-106.9-21.6Z"
				transform="translate(-362.6 -224.86)" />

  		<path id="highlight" class="cls-8"
	  		d="M1878.92,1622.13c-52.84,57.58-55.18,146.34-38.63,149.09,15.86,2.64,39.64-62.31,88.31-110.44,45.82-45.31,104.86-69,104.86-82.83S1933.05,1563.15,1878.92,1622.13Z"
		  	transform="translate(-362.6 -224.86)" />
 		</g>
	</g>
</svg>