<svg xmlns="http://www.w3.org/2000/svg" viewBox="0 0 96.69 76.593" style="enable-background:new 0 0 96.690063 76.593498" xml:space="preserve"><style>.st0{fill:#ee2b2d}</style><switch><g><g id="Layer_2"><path class="st0" d="M64.551 59.855c-27.342-2.52-41.961-19.554-49.056-38.62-.613-1.648 1.441-3.004 2.719-1.796 11.285 10.67 25.56 15.153 44.237 14.164a1.68 1.68 0 0 0 1.577-1.795l-.88-12.672c-.105-1.491 1.646-2.364 2.774-1.382l29.282 25.474c.7.608.773 1.668.165 2.367L69.895 74.877c-.982 1.128-2.836.506-2.94-.985l-.868-12.483a1.684 1.684 0 0 0-1.536-1.554z"/><path class="st0" d="m95.62 43.81-3.963-12.023-5.486 8.544s2.068 5.396 2.428 5.576 7.022-2.097 7.022-2.097zM56.828 68.63l10.979 6.606 2.78-8.419-3.548-7.01zM44.717 54.717s-16.356-8.041-23.065-14.066l3.517-.198 12.56 7.517 6.988 6.747z"/></g><g id="Layer_1"><path d="M59.75 66.839c-2.23 0-4.027-1.673-4.181-3.892l-.82-11.785C24.245 48.07 10.46 27.646 4.26 10.99c-.482-1.298-.312-2.685.467-3.806a4.233 4.233 0 0 1 3.47-1.824c1.052 0 2.062.407 2.843 1.146 9.823 9.288 21.768 13.614 37.59 13.614 1.286 0 2.613-.03 3.956-.09L51.76 8.193a4.122 4.122 0 0 1 1.102-3.132 4.221 4.221 0 0 1 3.076-1.34c.998 0 1.969.366 2.732 1.03l29.282 25.474a4.184 4.184 0 0 1 .412 5.893L62.888 65.4a4.163 4.163 0 0 1-3.138 1.439z" style="fill:#fff200"/><path class="st0" d="M55.94 6.22c.375 0 .76.128 1.09.416L86.312 32.11c.7.609.773 1.668.165 2.368L61.003 63.759c-.348.4-.804.58-1.254.58-.821 0-1.62-.6-1.686-1.564l-.868-12.484a1.684 1.684 0 0 0-1.536-1.553c-27.342-2.52-41.961-19.554-49.056-38.62-.45-1.208.534-2.26 1.594-2.26.387 0 .783.14 1.125.463 10.27 9.712 23.02 14.298 39.307 14.298 1.61 0 3.25-.045 4.93-.134a1.68 1.68 0 0 0 1.577-1.795l-.881-12.672c-.073-1.053.78-1.798 1.684-1.798m0-5a6.73 6.73 0 0 0-4.904 2.134 6.599 6.599 0 0 0-1.768 5.011l.643 9.244c-.431.006-.858.01-1.28.01-15.145 0-26.543-4.11-35.873-12.931a6.619 6.619 0 0 0-4.56-1.83 6.734 6.734 0 0 0-5.524 2.898 6.64 6.64 0 0 0-.756 6.105C8.22 28.8 22.08 49.484 52.399 53.407l.676 9.714c.242 3.487 3.174 6.218 6.674 6.218a6.663 6.663 0 0 0 5.026-2.298L90.249 37.76a6.634 6.634 0 0 0 1.624-4.846 6.634 6.634 0 0 0-2.28-4.575L60.313 2.864a6.666 6.666 0 0 0-4.373-1.644z"/></g></g></switch></svg>