<svg xmlns="http://www.w3.org/2000/svg" viewBox="0 0 135.185 155.833" style="enable-background:new 0 0 135.185059 155.832916" xml:space="preserve"><style>.st0{fill:#40008f}.st4{fill:#fff}.st5{fill:#d1d3d4}.st6{fill:#fff200}.st7{fill:#b20b12}.st8{fill:#89070d}.st9{fill:#ffa100}.st10,.st12,.st13{fill:#c95900}.st12,.st13{fill-rule:evenodd;clip-rule:evenodd}.st13{fill:#ffa100}</style><switch><g><path class="st0" d="M69.771 14.901c1.189 0 2.429.075 3.723.237 0 0-12.207 7.234-14.241 14.467 0 0 12.032-12.528 31.313-12.527 3.298 0 6.809.366 10.506 1.225 0 0-8.816 2.486-14.24 9.268 0 0 8.069-3.582 17.464-3.581 8.275 0 17.58 2.78 23.298 13.234 0 0-2.106-.199-4.984-.199-5.33 0-13.304.68-15.434 4.561-1.878 3.421 1.385 9.2 1.808 11.303.846 4.203-.75 7.69-4.085 11.263 3.231 2.728-.21 7.047-.21 7.047 6.33 1.13 9.947 6.33 10.625 11.529.678 5.2-3.843 8.816-3.843 8.816-1.694-2.78-5.886-4.812-10.838-5.572 3.162 2.611 6.218 5.95 6.683 9.36 0 0-8.789-3.04-17.198-5.294a17.989 17.989 0 0 0-.076 6.003c.8 1.763 2.11 3.698 4.187 5.745 8.624 8.498 23.87 17.497 14.748 32.994-1.873 3.181-4.32 4.444-7.026 4.444-.4 0-.804-.027-1.213-.08-1.178 1.416-2.582 2.557-4.085 3.467-4.083 3.883-10.052 5.209-14.123 5.209-.864 0-1.642-.06-2.298-.167-2.86-.468-5.865-1.97-8.434-4.553a1.014 1.014 0 0 1-.113.006c-2.095 0-3.199-6.568-5.394-6.568-20.07 0-50.815-26.647-50.815-26.647l-1.627-3.193c2.746-10.112 5.844-16.058 5.844-16.058a14.32 14.32 0 0 1-1.143.046C8.268 90.686 6.582 78.97 6.582 78.97s3.35 2.983 8.533 2.983c5.07 0 11.892-2.855 19.046-14.144.132-.21.272-.4.407-.605 1.628-2.481 3.378-4.627 5.209-6.478-2.88-.746-6.98-2.087-9.911-4.22-4.973-3.616-9.269-12.884-5.2-19.44 4.07-6.555 11.021-12.457 18.537-15.824 0 0-3.58 9.08-4.068 11.601-.926 4.786.677 7.614.677 7.614s4.973-14.241 10.398-18.084c4.779-3.385 10.784-7.47 19.561-7.47m0-3c-9.969 0-16.784 4.827-21.295 8.022-.83.588-1.64 1.356-2.42 2.246a3 3 0 0 0-4.08-3.667c-8.082 3.62-15.506 9.968-19.858 16.98-5.06 8.152.074 19.152 5.983 23.449 1.895 1.378 4.176 2.453 6.373 3.274a47.044 47.044 0 0 0-2.415 3.351c-.046.07-.092.138-.14.206-.098.144-.196.288-.292.44-5.285 8.34-10.995 12.749-16.512 12.749-3.93 0-6.513-2.201-6.538-2.224a2.999 2.999 0 0 0-4.964 2.668c.627 4.36 3.842 12.145 11.582 13.922-1.178 2.855-2.759 7.134-4.241 12.594a3 3 0 0 0 .222 2.149l1.627 3.192a3 3 0 0 0 .708.905c1.273 1.103 31.046 26.705 51.962 27.367.284.456.65 1.194.892 1.684.903 1.828 1.992 4.03 4.026 4.696 2.738 2.503 6.027 4.163 9.356 4.708.837.137 1.773.207 2.783.207 4.68 0 11.284-1.532 15.951-5.812a19.59 19.59 0 0 0 3.506-2.784c2.792-.009 6.706-1.048 9.575-5.922 8.913-15.14-2.486-25.236-10.81-32.608-1.589-1.408-3.09-2.737-4.417-4.045-1.51-1.487-2.647-2.994-3.388-4.484-.054-.416-.09-.835-.107-1.255a307.814 307.814 0 0 1 13.495 4.258 2.998 2.998 0 0 0 3.954-3.24 10.03 10.03 0 0 0-.117-.68 2.998 2.998 0 0 0 3.173-.361c.238-.191 5.83-4.75 4.944-11.547-.774-5.933-4.297-10.694-9.33-12.946.487-1.686.493-3.471-.239-5.089 2.23-2.86 4.246-6.836 3.205-12.008-.155-.774-.474-1.62-.878-2.69-.69-1.83-1.976-5.238-1.241-6.577.76-1.386 4.57-3.005 12.804-3.005 2.686 0 4.684.184 4.704.186a3.001 3.001 0 0 0 2.912-4.427c-5.294-9.678-14.26-14.794-25.93-14.794-.672 0-1.338.017-1.994.048a3.004 3.004 0 0 0 1.766-2.811 2.998 2.998 0 0 0-2.317-2.847 49.554 49.554 0 0 0-11.185-1.302c-5.32 0-10.111.883-14.297 2.198a3 3 0 0 0-2.403-4.115 33.153 33.153 0 0 0-4.095-.26z" id="Layer_9"/><path d="M43.203 61.479s-8.364-1.356-13.337-4.973-9.269-12.885-5.2-19.44S35.687 24.607 43.203 21.24c0 0-3.58 9.08-4.068 11.601-.926 4.786.677 7.614.677 7.614s4.973-14.241 10.398-18.084 12.433-8.59 23.284-7.234c0 0-12.207 7.234-14.241 14.467 0 0 16.501-17.18 41.82-11.302 0 0-8.817 2.486-14.242 9.268 0 0 28.552-12.67 40.763 9.653 0 0-17.138-1.613-20.418 4.362-1.878 3.421 1.385 9.2 1.808 11.303 1.06 5.268-1.707 9.41-6.938 14.008-13.28 11.672-58.843-5.418-58.843-5.418z" style="fill:#b2070d" id="Layer_5"/><g id="Layer_3"><path d="m81.406 97.874-22.153 36.168c-7.457-16.276-4.974-34.134-4.974-34.134-7.007 7.008-9.72 34.134-9.72 34.134-8.138-18.084 0-40.916 0-40.916-10.624 7.46-13.563 25.997-13.563 25.997-7.008-21.023 9.268-39.108 9.268-39.108-4.973 3.391-13.111 11.53-13.111 11.53.3-7.04 4.568-17.848 7.415-24.342-.135.205-.275.396-.407.605C19.693 90.64 6.582 78.97 6.582 78.97s1.809 12.575 13.111 11.67c0 0-4.331 8.23-7.04 20.593 9.739 19.13 29.601 32.242 52.539 32.242a58.66 58.66 0 0 0 28.398-7.289l-9.698-21.131.849-21.382-3.335 4.202z" style="fill:#754c29"/><path d="M73.78 89.571c.223-5.877 5.655-7.46 9.498-7.686 3.843-.226 5.425-.904 8.59-3.39 1.846-1.45 2.995-4.97 3.637-7.657-1.765-2.295-8.527-8.123-19.284-10.891-3.911-1.007-15.99-3.252-29.98 7.697-3.096 2.423-6.04 5.56-8.671 9.567-2.847 6.494-7.115 17.301-7.415 24.341 0 0 8.138-8.138 13.112-11.529 0 0-16.276 18.085-9.269 39.108 0 0 2.939-18.537 13.564-25.997 0 0-8.138 22.832 0 40.916 0 0 2.712-27.126 9.72-34.134 0 0-2.484 17.858 4.973 34.134l22.153-36.168 3.335-4.202.218-5.494c-10.462-.202-14.403-2.737-14.18-8.615z" style="fill:#572d22"/><path class="st4" d="M43.647 134.452c-6.463-14.362-2.977-31.347-1.037-38.384-8.127 8.048-10.6 23.046-10.626 23.212l-.643 4.039-1.294-3.88c-4.694-14.083.868-26.967 5.237-34.148a185.454 185.454 0 0 0-7.424 6.96l-1.816 1.815.11-2.565c.296-6.952 4.24-17.269 7.497-24.7l.034-.076.046-.07c2.55-3.886 5.542-7.185 8.892-9.806 9.298-7.278 17.854-8.805 23.394-8.805 2.554 0 5.06.311 7.45.926 11.43 2.942 18.188 9.119 19.827 11.25l.291.378-.11.464c-.988 4.143-2.331 6.906-3.992 8.21-3.388 2.664-5.184 3.37-9.15 3.604-3.106.182-8.35 1.298-8.555 6.725-.077 2.03.37 3.488 1.41 4.588 1.813 1.92 5.559 2.87 11.79 2.988l1.02.02-.271 6.842-3.5 4.409-23.102 37.717-.782-1.706c-5.56-12.135-5.708-24.953-5.372-31.062-5.217 9.3-7.393 30.505-7.417 30.744l-.372 3.722-1.535-3.411z"/><path class="st0" d="M66.017 49.043c3.28 0 5.78.53 7.202.896 10.757 2.768 17.518 8.596 19.283 10.89-.64 2.688-1.79 6.207-3.636 7.658-3.165 2.486-4.748 3.164-8.59 3.39-3.843.226-9.275 1.809-9.498 7.686-.223 5.878 3.719 8.413 14.18 8.615l-.217 5.494-3.335 4.202-22.153 36.168c-7.457-16.276-4.974-34.134-4.974-34.134-7.007 7.008-9.72 34.134-9.72 34.134-8.138-18.084 0-40.916 0-40.916-10.624 7.46-13.563 25.997-13.563 25.997-7.008-21.023 9.268-39.108 9.268-39.108-4.973 3.391-13.111 11.53-13.111 11.53.3-7.04 4.568-17.848 7.415-24.342 2.63-4.008 5.574-7.144 8.67-9.567 8.906-6.97 17.036-8.593 22.779-8.593m0-2c-5.697 0-14.488 1.565-24.011 9.018-3.435 2.689-6.5 6.069-9.11 10.045l-.093.14-.067.154c-3.292 7.508-7.279 17.95-7.581 25.059l-.218 5.13 3.63-3.63c.03-.031 1.197-1.195 2.894-2.806-3.51 7.532-6.2 18.09-2.362 29.602l2.59 7.77 1.282-8.09c.023-.14 1.894-11.458 7.664-19.496-1.825 8.455-3.438 22.616 2.1 34.924l3.069 6.819.745-7.44c.538-5.368 2.325-17.613 5.326-25.903.094 6.896 1.157 16.927 5.56 26.536l1.563 3.412 1.96-3.2 22.09-36.065 3.26-4.106.405-.512.026-.652.218-5.495.081-2.04-2.04-.039c-5.864-.113-9.489-.988-11.082-2.675-.843-.893-1.205-2.121-1.14-3.864.176-4.637 4.848-5.602 7.617-5.765 4.167-.245 6.163-1.03 9.708-3.815 1.842-1.447 3.304-4.396 4.347-8.765l.22-.928-.58-.756c-1.699-2.207-8.668-8.597-20.37-11.608a30.916 30.916 0 0 0-7.701-.959z"/><path class="st5" d="M27.153 92.235s2.645-7.53 7.724-11.736 9.826-4.992 9.826-4.992l-17.55 16.728zM30.996 119.123s-.378-12.284 2.162-16.57 9.006-11.01 16.35-14.512c0 0-9.31 9.226-12.116 13.218-2.805 3.992-3.9 8.5-6.396 17.864zM54.28 99.908s-3.734 4.117-5.595 11.828c-1.862 7.712-4.126 22.306-4.126 22.306s-1.14-10.414 0-14.92c.445-1.759.564-6.94 1.438-10.22 1.764-6.624 4.061-10.18 10.02-13.57l-1.738 4.576z"/><path class="st5" d="M46.449 82.929s-11.293 7.424-10.52 15.836l6.498-5.418s1.068-4.98 4.022-10.418zM69.78 62.4s-5.995-1.57-2.268-6.106c0 0 .785-2.876 3.768-3.548 0 0 7.168 1.364 10.187 1.774l-4.346 1.774-7.34 6.107z"/><path class="st5" d="M68.54 58.756s-19.424 2.617-24.576 10.832c0 0 5.097-14.275 26.805-15.168l-2.228 4.336zM62.06 72.477l-2.232-5.8s-9.401 2.657-15.125 12.978l5.332.844 13.75 1.159-1.725-9.181zM52.459 82.929s-2.307 7.166 11.638 8.614l3.137-6.184-14.775-2.43zM57.921 93.576s1.989 3.103 3.693 3.42c1.705.318 4.306.636 4.306.636s-9.94-3.534-6.667 36.41l4.532-7.4 4.756-9.803 6.78-25.6-8.7 2.108-8.7.229z"/><path class="st6" d="M25.328 70.87a1.84 1.84 0 0 1-1.345-.588 1.774 1.774 0 0 1-.372-.611c-.21-.591-.073-1.25.376-1.809 2.379-2.961 5.687-3.412 5.72-3.415l.178-.009a1.78 1.78 0 0 1 .283 3.534c-.573.188-2.555 1.016-3.58 2.305-.3.376-.76.592-1.26.592z"/><path class="st0" d="M29.885 65.327a.89.89 0 0 1 .09 1.774c-.037.004-2.694.876-4.083 2.621a.703.703 0 0 1-.564.258.963.963 0 0 1-.693-.303.888.888 0 0 1-.187-.307c-.115-.324.002-.664.232-.95 2.046-2.547 4.937-3.07 5.114-3.088a.898.898 0 0 1 .09-.005m0-1.778c-.089 0-.179.004-.27.013-.93.093-4.1.98-6.32 3.744-.648.805-.837 1.776-.521 2.662.122.343.31.652.56.92.513.553 1.24.87 1.995.87a2.48 2.48 0 0 0 1.955-.928c.842-1.057 2.551-1.797 3.115-1.995a2.674 2.674 0 0 0 2.14-2.888 2.653 2.653 0 0 0-2.653-2.398z"/><path class="st6" d="M29.152 86.124a4.487 4.487 0 0 1-4.165-2.832l-1.589-4.028a4.487 4.487 0 0 1 2.257-5.694l2.54-1.198a4.504 4.504 0 0 1 1.91-.427c.587 0 1.158.113 1.698.334a4.487 4.487 0 0 1 2.505 2.6l1.485 4.039a4.464 4.464 0 0 1-2.246 5.574l-2.438 1.183a4.503 4.503 0 0 1-1.957.449zm.952-10.564a.85.85 0 0 0-.366.085l-2.542 1.197a.862.862 0 0 0-.432 1.094l1.589 4.027c.09.228.26.397.488.486a.857.857 0 0 0 .69-.028l2.436-1.183a.858.858 0 0 0 .431-1.07l-1.486-4.041a.869.869 0 0 0-.808-.566z"/><path class="st0" d="M30.106 72.85a3.567 3.567 0 0 1 3.352 2.34l1.487 4.04a3.562 3.562 0 0 1-1.793 4.448l-2.438 1.184a3.57 3.57 0 0 1-2.858.115 3.582 3.582 0 0 1-2.027-2.018l-1.59-4.027a3.58 3.58 0 0 1 1.8-4.543l2.542-1.198a3.57 3.57 0 0 1 1.525-.341m-.951 10.563c.262 0 .523-.06.77-.178l2.437-1.184a1.758 1.758 0 0 0 .885-2.196l-1.486-4.04a1.745 1.745 0 0 0-.988-1.025 1.758 1.758 0 0 0-.67-.134c-.255 0-.51.058-.75.17l-2.542 1.198a1.767 1.767 0 0 0-.889 2.244l1.59 4.027c.182.462.537.816 1 .996.21.082.427.122.643.122m-2.73-8.207h.01-.01m3.68-4.165c-.79 0-1.585.178-2.297.514l-2.54 1.197a5.392 5.392 0 0 0-2.71 6.845l1.589 4.026a5.396 5.396 0 0 0 3.053 3.04 5.409 5.409 0 0 0 4.306-.174l2.436-1.183a5.366 5.366 0 0 0 2.7-6.7l-1.486-4.041a5.393 5.393 0 0 0-3.011-3.123 5.348 5.348 0 0 0-2.04-.401zm-2.485 6.602 2.46-1.159 1.455 3.958-2.37 1.15-1.545-3.95z"/><path class="st6" d="M32.17 99.53a4.477 4.477 0 0 1-4.225-2.996l-1.443-4.109a4.476 4.476 0 0 1 1.996-5.367l2.656-1.523a4.472 4.472 0 0 1 6.456 2.409l1.486 4.259a4.494 4.494 0 0 1-2.197 5.465l-2.696 1.374c-.627.319-1.33.488-2.033.488zm1.213-10.973a.866.866 0 0 0-.429.116L30.3 90.195a.863.863 0 0 0-.384 1.033l1.443 4.109a.86.86 0 0 0 1.202.481l2.698-1.374a.864.864 0 0 0 .422-1.05l-1.486-4.26a.854.854 0 0 0-.811-.577z"/><path class="st0" d="M33.38 85.844c.422 0 .845.074 1.251.226a3.562 3.562 0 0 1 2.125 2.172l1.486 4.259a3.586 3.586 0 0 1-1.753 4.36l-2.697 1.375a3.574 3.574 0 0 1-4.993-2l-1.444-4.11a3.573 3.573 0 0 1 1.593-4.284l2.656-1.523a3.564 3.564 0 0 1 1.776-.475m-1.21 10.973c.276 0 .55-.065.801-.193l2.697-1.374a1.77 1.77 0 0 0 .866-2.154l-1.486-4.259a1.758 1.758 0 0 0-1.665-1.184c-.304 0-.607.079-.879.234l-2.656 1.524a1.766 1.766 0 0 0-.786 2.116l1.443 4.11a1.765 1.765 0 0 0 1.666 1.18m1.21-12.782c-.937 0-1.863.247-2.678.715l-2.655 1.523a5.383 5.383 0 0 0-2.4 6.452l1.444 4.11a5.379 5.379 0 0 0 7.521 3.013l2.698-1.375a5.402 5.402 0 0 0 2.639-6.568l-1.486-4.26a5.365 5.365 0 0 0-3.2-3.27 5.38 5.38 0 0 0-1.884-.34zm-2.6 6.927 2.577-1.478 1.455 4.171-2.631 1.341-1.401-4.034z"/><path class="st6" d="M46.62 127.988a4.47 4.47 0 0 1-3.709-1.984l-2.94-4.373a4.493 4.493 0 0 1 1.166-6.181l2.507-1.736a4.445 4.445 0 0 1 3.38-.72 4.445 4.445 0 0 1 2.885 1.901l3.013 4.48a4.445 4.445 0 0 1 .666 3.424 4.437 4.437 0 0 1-1.99 2.86l-2.58 1.63a4.501 4.501 0 0 1-2.398.699zm-.428-11.453a.85.85 0 0 0-.488.153l-2.508 1.736a.863.863 0 0 0-.224 1.187l2.94 4.373a.86.86 0 0 0 .712.384c.161 0 .32-.047.46-.136l2.581-1.632a.837.837 0 0 0 .383-.549.843.843 0 0 0-.128-.658l-3.012-4.478a.848.848 0 0 0-.716-.38z"/><path class="st0" d="M46.188 113.82c.222 0 .446.021.669.063a3.548 3.548 0 0 1 2.302 1.517l3.012 4.48c.544.808.733 1.778.532 2.732a3.543 3.543 0 0 1-1.588 2.283l-2.58 1.63a3.612 3.612 0 0 1-1.915.558 3.556 3.556 0 0 1-2.959-1.585l-2.94-4.372a3.586 3.586 0 0 1 .93-4.932l2.509-1.737a3.552 3.552 0 0 1 2.028-.637m.435 11.452c.324 0 .651-.09.946-.277l2.58-1.63c.407-.257.685-.657.784-1.127.1-.47.006-.949-.262-1.349l-3.013-4.479a1.754 1.754 0 0 0-1.466-.78c-.356 0-.703.107-1.003.314l-2.508 1.737a1.77 1.77 0 0 0-.46 2.435l2.941 4.373c.342.508.895.783 1.461.783m-.435-13.26a5.352 5.352 0 0 0-3.057.957l-2.51 1.738c-2.408 1.667-3.037 5-1.4 7.43l2.94 4.37a5.37 5.37 0 0 0 7.339 1.548l2.581-1.63a5.338 5.338 0 0 0 2.392-3.44 5.34 5.34 0 0 0-.8-4.115l-3.013-4.48a5.344 5.344 0 0 0-3.468-2.285 5.448 5.448 0 0 0-1.004-.094zm-2.441 7.131 2.435-1.686 2.962 4.403-2.505 1.583-2.892-4.3z"/><path class="st6" d="M37.997 113.523c-.646 0-1.277-.14-1.874-.415a4.44 4.44 0 0 1-2.36-2.616l-1.512-4.418a4.45 4.45 0 0 1 .226-3.438 4.454 4.454 0 0 1 2.598-2.26l3.224-1.072a4.471 4.471 0 0 1 5.51 2.444l1.805 4.096a4.438 4.438 0 0 1 .045 3.506 4.433 4.433 0 0 1-2.495 2.463l-3.517 1.393c-.53.21-1.085.317-1.65.317zm1.719-10.829a.874.874 0 0 0-.277.045l-3.221 1.07a.838.838 0 0 0-.499.433.854.854 0 0 0-.044.661l1.511 4.418a.838.838 0 0 0 .453.503.845.845 0 0 0 .675.018l3.519-1.392a.84.84 0 0 0 .479-.473.842.842 0 0 0-.009-.674l-1.805-4.095a.856.856 0 0 0-.782-.514z"/><path class="st0" d="M39.722 99.978c1.38 0 2.672.803 3.259 2.135l1.805 4.096c.395.898.409 1.891.036 2.798a3.543 3.543 0 0 1-1.99 1.966l-3.518 1.392a3.557 3.557 0 0 1-2.812-.078 3.541 3.541 0 0 1-1.884-2.088l-1.51-4.418a3.547 3.547 0 0 1 .18-2.743 3.551 3.551 0 0 1 2.073-1.804l3.223-1.071c.377-.125.76-.185 1.138-.185m-1.724 10.83c.22 0 .44-.041.65-.125l3.518-1.392c.45-.178.8-.523.983-.97a1.75 1.75 0 0 0-.018-1.382l-1.806-4.096a1.757 1.757 0 0 0-2.17-.963l-3.222 1.07c-.45.15-.815.466-1.025.891-.21.425-.242.906-.089 1.355l1.51 4.418c.158.46.488.827.93 1.031.237.109.488.164.74.164m1.723-12.64c-.58 0-1.154.093-1.709.277l-3.222 1.07a5.35 5.35 0 0 0-3.125 2.72 5.344 5.344 0 0 0-.27 4.13l1.51 4.418a5.335 5.335 0 0 0 2.838 3.146 5.34 5.34 0 0 0 4.237.117l3.516-1.392a5.338 5.338 0 0 0 3-2.962 5.335 5.335 0 0 0-.055-4.213l-1.806-4.096a5.377 5.377 0 0 0-4.914-3.215zm-3.177 6.484 3.141-1.043 1.77 4.016-3.443 1.363-1.468-4.336z"/><path class="st6" d="M44.708 119.505c-.63 0-1.223-.334-1.548-.873l-5.757-9.5c-.25-.414-.325-.9-.21-1.369.116-.468.407-.865.82-1.115.28-.172.605-.264.937-.264.628 0 1.22.335 1.547.873l5.757 9.501c.25.414.325.899.21 1.369s-.406.866-.82 1.116a1.796 1.796 0 0 1-.936.262z"/><path class="st0" d="M38.949 107.29c.306 0 .604.156.774.436l5.757 9.502a.904.904 0 1 1-1.547.936l-5.757-9.5a.904.904 0 0 1 .773-1.375m0-1.809c-.498 0-.986.138-1.411.398a2.691 2.691 0 0 0-1.223 1.67 2.695 2.695 0 0 0 .315 2.053l5.756 9.5a2.73 2.73 0 0 0 2.72 1.279 2.689 2.689 0 0 0 1.013-.367 2.691 2.691 0 0 0 1.223-1.67 2.695 2.695 0 0 0-.315-2.053l-5.756-9.5a2.731 2.731 0 0 0-2.322-1.31z"/><g><path class="st6" d="M38.096 104.12c-.636 0-1.232-.354-1.596-.948l-4.66-7.634c-.551-.904-.394-2.082.36-2.685.295-.236.651-.361 1.028-.361.635 0 1.232.354 1.596.95l4.659 7.633c.552.903.394 2.083-.36 2.684a1.63 1.63 0 0 1-1.027.362z"/><path class="st0" d="M33.228 93.396c.305 0 .62.184.824.518l4.659 7.632c.314.514.246 1.189-.152 1.506a.746.746 0 0 1-.463.164c-.305 0-.62-.184-.824-.517l-4.66-7.633c-.313-.513-.245-1.188.153-1.506a.732.732 0 0 1 .463-.164m0-1.809c-.585 0-1.136.194-1.594.561-1.12.894-1.363 2.555-.565 3.861l4.659 7.632c.53.867 1.415 1.384 2.368 1.384a2.543 2.543 0 0 0 1.592-.559c1.121-.895 1.365-2.556.567-3.863l-4.659-7.631c-.53-.868-1.415-1.385-2.368-1.385z"/></g><g><path class="st6" d="M32.037 91.802a1.804 1.804 0 0 1-1.751-1.36l-2.125-8.3c-.12-.468-.05-.955.197-1.37a1.795 1.795 0 0 1 1.557-.887c.826 0 1.547.559 1.751 1.36l2.125 8.3c.12.467.05.955-.196 1.37a1.798 1.798 0 0 1-1.558.887z"/><path class="st0" d="M29.914 80.79c.404 0 .772.271.876.68l2.124 8.3a.904.904 0 1 1-1.752.448l-2.124-8.3a.904.904 0 0 1 .876-1.129m0-1.809a2.72 2.72 0 0 0-2.335 1.331 2.694 2.694 0 0 0-.293 2.057l2.124 8.298a2.7 2.7 0 0 0 2.628 2.04 2.71 2.71 0 0 0 2.335-1.33c.37-.624.474-1.354.293-2.057l-2.124-8.298a2.71 2.71 0 0 0-2.628-2.04z"/></g><g><path class="st6" d="M28.993 79.05a1.807 1.807 0 0 1-1.662-1.094c-2.235-5.186-1.161-9.646-1.114-9.833a1.803 1.803 0 0 1 2.192-1.32 1.811 1.811 0 0 1 1.32 2.183c-.006.03-.791 3.558.925 7.54.191.443.198.935.02 1.383a1.798 1.798 0 0 1-1.68 1.14z"/><path class="st0" d="M27.971 67.654a.904.904 0 0 1 .88 1.12c-.01.037-.884 3.803.972 8.109a.904.904 0 1 1-1.661.715c-2.107-4.887-1.112-9.08-1.068-9.256a.906.906 0 0 1 .877-.688m0-1.81c-1.251 0-2.334.85-2.633 2.066-.049.195-1.189 4.948 1.163 10.404a2.71 2.71 0 0 0 3.565 1.419 2.693 2.693 0 0 0 1.448-1.49 2.696 2.696 0 0 0-.029-2.076c-1.587-3.68-.88-6.952-.872-6.985.349-1.431-.543-2.901-1.992-3.258a2.683 2.683 0 0 0-.65-.08z"/></g><path class="st7" d="M90.105 86.664s-4.5 6.624 4.124 15.122 23.87 17.497 14.748 32.994-31.87-14.497-31.87-14.497l7.903-31.831 5.095-1.788z"/><path class="st8" d="M94.012 81.162s-6.165 7.493-3.546 16.879 11.23 15.267 13.114 20.149c8.812 22.833-12.456 28.218-19.232 27.376-6.777-.842-14.67-7.59-15.66-21.735-.99-14.146 2.942-24.116 14.499-37.167l10.825-5.502z"/><g><path class="st6" d="M58.148 151.079c-.6 0-1.216-.043-1.834-.126-3.18-.43-5.782-1.831-7.523-4.053-1.873-2.39-2.6-5.598-2.103-9.275.952-7.04 6.318-14.884 12.497-14.884.312 0 .624.02.936.062 6.32.856 10.036 10.302 9.014 17.857-.869 6.427-5.079 10.419-10.987 10.419z"/><path class="st0" d="M59.184 123.741c.268 0 .535.018.803.054 5.651.764 9.134 9.505 8.157 16.73-.878 6.493-5.058 9.553-9.996 9.553-.558 0-1.126-.039-1.7-.116-5.65-.765-9.746-4.978-8.769-12.204.931-6.883 6.13-14.016 11.505-14.017m0-2c-6.693 0-12.48 8.3-13.487 15.75-1.035 7.656 3.178 13.465 10.484 14.453.66.089 1.322.134 1.967.134 6.447 0 11.037-4.324 11.978-11.284 1.106-8.18-2.88-18.036-9.871-18.981a8.016 8.016 0 0 0-1.07-.072z"/><path class="st9" d="M67.366 142.772c-1.28 5.74-5.555 7.785-10.045 6.785s-7.494-4.667-6.214-10.408 6.356-11.382 10.846-10.382 6.692 8.264 5.413 14.005z"/><path class="st0" d="M52.244 136.264s2.496 2.17 7.27 2.24c4.593.067 9.547-.658 9.547-.658s.17.285 0 1.38c-.248 1.6-.53 3.76-3.973 4.049-5.27.442-1.88-3.142-4.065-2.822-1.555.228-1.3 3.879-7.16 2.252-3.155-.876-1.619-6.441-1.619-6.441z"/><path class="st0" d="M52.472 136.809s-1.376-2.032-2.086-2.935c-.377-.48-.518.132-.568.812a3.45 3.45 0 0 0 .54 2.12l1.656 2.568.458-2.565z"/><g><path class="st4" d="m55.646 129.247-1.512 1.403c-.246.229-.512.469-.85.57-.464.137-.942-.042-1.178-.341-.237-.3-.274-.695-.248-1.081.144-2.093 2.076-4.093 4.486-5.044 1.174-.462 4.515-1.026 3.17.819-.19.26-.44.493-.689.723l-3.18 2.951z"/></g></g><g><path class="st7" d="M82.539 148.821c-.905 0-1.735-.062-2.469-.18-7.608-1.246-15.454-8.866-15.835-23.083-.395-14.767 1.836-26.397 14.165-38.726.136-.136.308-.23.495-.27l13.873-3a.999.999 0 0 1 .945 1.657c-.063.067-6.228 6.865-4.135 15.583 1.343 5.598 4.443 10.26 6.934 14.004 1.658 2.493 3.09 4.646 3.786 6.648 2.825 8.129 2.486 14.743-1.01 19.659-4.045 5.69-11.55 7.708-16.749 7.708z"/><path class="st0" d="M92.98 84.54s-6.624 7.123-4.375 16.496c2.25 9.373 9.046 15.85 10.748 20.746 7.2 20.71-8.63 26.038-16.813 26.038-.867 0-1.65-.06-2.308-.167-6.874-1.125-14.622-8.124-14.997-22.121-.375-13.998 1.5-25.62 13.872-37.993l13.873-3m-.002-2c-.14 0-.28.015-.421.045l-13.873 3a2 2 0 0 0-.991.54c-12.582 12.583-14.86 24.428-14.458 39.461.396 14.788 8.66 22.73 16.674 24.041a16.44 16.44 0 0 0 2.631.194c5.436 0 13.297-2.128 17.563-8.127 3.694-5.195 4.078-12.115 1.14-20.567-.738-2.123-2.203-4.325-3.9-6.875-2.573-3.87-5.491-8.257-6.793-13.682-1.962-8.173 3.84-14.608 3.898-14.672a2.004 2.004 0 0 0-1.47-3.358zm.002 4h.005-.005z"/></g><g><path class="st7" d="M64.778 94.346c-4.46 0-7.643-1.735-7.777-1.808a1 1 0 0 1 .65-1.862c.347.058.692.088 1.024.088 2.754 0 4.517-2.064 5.444-3.588a20.69 20.69 0 0 1-2.174.119c-10.12 0-12.282-8.18-12.303-8.262a1 1 0 0 1 1.378-1.155c1.032.462 2.18.695 3.41.695 1.424 0 2.743-.313 3.739-.643-7.777-4.91-5.55-13.916-5.525-14.013a1 1 0 0 1 1.884-.148c1.163 2.667 3.802 3.719 5.613 4.132-4.452-9.171 2.322-15.39 2.396-15.457a1 1 0 0 1 1.644.533c.59 2.7 2.24 7.15 4.153 7.592.904.209 1.639.61 2.234 1.107.12-1.604.59-2.917 1.406-3.924 1.189-1.469 3.098-2.245 5.523-2.245 1.888 0 3.454.467 3.52.487a.999.999 0 0 1 .294 1.769c-.048.034-4.737 3.479-3.26 7.7 1.544 4.409 5.957 5.34 6.002 5.348a1 1 0 0 1 .803.98v10.124c0 .293-.128.571-.351.761l-6.71 5.715c-3.764 3.951-8.144 5.955-13.016 5.955h-.001z"/><path class="st0" d="M63.204 53.19s1.656 7.604 4.905 8.353c2.636.609 3.563 3.325 3.82 4.329.025.124.053.248.082.374 0 0-.023-.14-.083-.374-1.688-7.941 2.413-9.365 5.57-9.365 1.761 0 3.23.444 3.23.444s-5.37 3.843-3.62 8.842c1.75 4.999 6.748 5.999 6.748 5.999v10.123l-6.749 5.749c-4.243 4.473-8.723 5.683-12.33 5.683-4.253 0-7.291-1.684-7.291-1.684.414.069.81.1 1.19.1 5.125 0 7.183-5.85 7.183-5.85a21.58 21.58 0 0 1-3.913.382c-9.457 0-11.334-7.505-11.334-7.505 1.282.574 2.59.783 3.819.783 3.322 0 6.054-1.533 6.054-1.533-9.373-4.249-6.873-13.872-6.873-13.872 2.124 4.874 8.373 4.999 8.373 4.999-5.968-9.55 1.219-15.977 1.219-15.977m0-2a2 2 0 0 0-1.333.51c-2.461 2.2-5.752 7.683-3.478 14.55-1.17-.558-2.324-1.45-2.948-2.881a2 2 0 0 0-3.769.296c-.835 3.215-.73 9.502 4.196 13.797a9.72 9.72 0 0 1-1.441.11c-1.09 0-2.1-.204-3.002-.607a1.998 1.998 0 0 0-2.102.292 2 2 0 0 0-.655 2.019c.78 3.12 4.559 9.019 13.274 9.019h.046c-.83.812-1.929 1.469-3.316 1.469a5.26 5.26 0 0 1-.861-.074 2 2 0 0 0-1.298 3.722c.142.08 3.545 1.935 8.26 1.935 5.07 0 9.806-2.153 13.706-6.228l6.67-5.682a2 2 0 0 0 .703-1.522V71.792a2 2 0 0 0-1.608-1.962c-.146-.031-3.917-.883-5.253-4.698-1.226-3.503 2.861-6.53 2.902-6.56a2.006 2.006 0 0 0 .799-1.953 2 2 0 0 0-1.39-1.583c-.18-.054-1.809-.529-3.809-.529-2.736 0-4.914.905-6.3 2.616-.657.811-1.12 1.782-1.386 2.907a6.179 6.179 0 0 0-1.252-.435c-1.135-.262-2.76-3.887-3.401-6.83a2 2 0 0 0-1.954-1.575z"/></g><path class="st8" d="M64.097 91.543s4.47-6.499 5.612-7.004l5.611 3.192s-4.612 3.692-11.223 3.812z"/><path class="st8" d="M69.709 80.499s-12.5 3.227-17.25.611c0 0 5.33 6.418 18.31 3.478l-1.06-4.09zM69.709 79.655s-10.717-1.771-12.909-6.21c0 0 9.92 2.255 13.97.83 0 0-1.174 2.379-1.061 5.38zM63.785 64.105s.105 8.334 4.756 9.34c0 0 2.067-3.075 7.503-3.347 0 0-4.876.23-6.707-1.323-1.831-1.551-5.552-4.67-5.552-4.67z"/><path class="st8" d="M78.557 56.294s-8.392 2.836-6.516 10.91c1.876 8.073 8.907 4.627 8.907 4.627l-2.39-15.537z"/><path class="st0" d="m71.396 143.859-1.904.613-.431-1.511.946-.372z"/><g><path class="st9" d="M107.316 96.333a1 1 0 0 1-.246-.03c-1.11-.282-27.197-6.903-30.043-8.005-5.475-2.188-8.172-7.583-8.013-11.786.214-5.638 5.44-5.638 7.67-5.638.44 0 .88.008 1.314.016.405.008.803.015 1.188.015.358 0 .704-.006 1.03-.025 3.543-.209 4.97-.773 8.032-3.18 1.26-.99 2.425-3.512 3.281-7.102a1 1 0 0 1 1.765-.378 256.724 256.724 0 0 1 3.245 4.319c1.543.766 3.133 1.155 4.73 1.155 2.515 0 4.203-.979 4.22-.989a1.01 1.01 0 0 1 1.112.06c1.502 1.126 1.765 2.326 1.721 3.136-.061 1.127-.73 2.1-1.436 2.822 6.025 1.987 8.843 7.46 9.419 11.876.743 5.692-4.007 9.564-4.21 9.726a1.002 1.002 0 0 1-1.478-.26c-1.05-1.724-3.49-3.223-6.696-4.196 2.094 2.089 4.017 4.626 4.386 7.329a1 1 0 0 1-.991 1.135z"/><path class="st0" d="M92.502 60.83a252.01 252.01 0 0 1 3.371 4.492c1.994 1.037 3.84 1.372 5.397 1.372 2.855 0 4.73-1.13 4.73-1.13 3.617 2.713-1.31 5.635-1.31 5.635 6.329 1.13 9.946 6.33 10.624 11.529.678 5.2-3.843 8.816-3.843 8.816-1.694-2.78-6.11-4.726-11.062-5.486 3.162 2.612 6.442 5.864 6.907 9.275 0 0-27.105-6.874-29.928-7.968-4.807-1.921-7.532-6.662-7.374-10.815.16-4.236 3.423-4.676 6.672-4.676.852 0 1.704.03 2.498.03.379 0 .745-.006 1.092-.027 3.842-.226 5.425-.904 8.59-3.39 1.845-1.45 2.995-4.97 3.636-7.657m0-2a2 2 0 0 0-1.945 1.536c-1.126 4.719-2.422 6.151-2.927 6.548-2.925 2.298-4.112 2.77-7.472 2.967-.31.018-.636.024-.974.024-.379 0-.77-.007-1.17-.015a73.519 73.519 0 0 0-1.328-.016h-.02c-2.319 0-8.401.02-8.65 6.6-.205 5.393 3.344 10.636 8.63 12.748 2.873 1.114 27.392 7.343 30.178 8.05a2 2 0 0 0 2.474-2.21c-.223-1.635-.922-3.178-1.883-4.609 1.073.646 1.884 1.37 2.348 2.132a2 2 0 0 0 2.957.52c.22-.176 5.391-4.391 4.577-10.636-.572-4.386-3.22-9.747-8.772-12.19.43-.67.748-1.452.796-2.325.057-1.052-.265-2.598-2.12-3.99a1.999 1.999 0 0 0-2.232-.113s-1.49.843-3.7.843c-1.367 0-2.735-.319-4.071-.948-.54-.732-1.764-2.385-3.11-4.136a2 2 0 0 0-1.586-.78z"/></g><path class="st10" d="M77.571 79.28s-2.278 1.702.388 3.287 22.156 6.458 23.565 7.163c1.41.704 4.295 1.813 4.295 1.813s-2.023-4.04-3.825-4.88c-1.802-.838-11.272-3.692-13.709-3.982-2.436-.29-8.835-3.989-9.775-3.695l-.939.293z"/><path class="st0" d="M99.845 85.865s-16.767-4.043-18.378-6.21c-4.907-6.602-6.82-1.452-4.34 1.17 2.48 2.623 16.287 3.413 22.718 5.04z"/><path class="st10" d="M77.959 71.564s.551 7.422 18.574 7.226c8.205-.088 11.953-12.544 11.953-12.544s-23.247 7.415-30.527 5.318z"/><g><path class="st4" d="M83.856 72.917c-4.858 0-8.811-3.953-8.811-8.811s3.953-8.811 8.811-8.811c4.859 0 8.811 3.952 8.811 8.81s-3.952 8.812-8.81 8.812z"/><path class="st0" d="M83.856 56.294a7.811 7.811 0 1 1 0 15.623 7.811 7.811 0 0 1 0-15.623m0-2c-5.41 0-9.81 4.402-9.81 9.811s4.4 9.812 9.81 9.812 9.811-4.402 9.811-9.812-4.401-9.81-9.81-9.81z"/></g><circle cx="83.907" cy="63.356" r="4.379" style="fill:#331300"/><circle class="st4" cx="81.467" cy="62.514" r="2.04"/><g><path class="st8" d="M114.44 31.824c-7.865-.045-11.808 1.889-11.808 1.889l-1.45 1.345-1.337 1.198s-11.029 2.048-13.76 1.82c-2.732-.227-31.958-6.662-31.958-6.662S62.4 40.35 73.88 42.938c5.49 1.238 16.604 3.264 22.237 2.646 2.54-.279 10.459-1.468 10.459-1.468 3.385-10.715 16.524-8.31 16.524-8.31s-5.095-3.961-8.658-3.982z"/></g><path class="st8" d="M98.11 52.746c-3.395-6.013-10.191-3.93-10.191-3.93l.21 5.648 6.71 6.252 2.359 3.03s4.752 2.808 7.998.094c7.067-5.911 3.189-12.405 2.846-13.7-.003.02-1.467 17.594-9.931 2.606z"/><g><path class="st7" d="M92.503 59.904c-2.188 0-4.546-1.038-7.007-3.085-4.374-3.639-14.149-3.989-14.247-3.992a1 1 0 0 1-.461-1.87c3.533-1.996 7.871-3.141 11.901-3.141 3.383 0 6.086.798 7.417 2.191 2.35 2.46 7.03 6.468 7.077 6.509a1 1 0 0 1 .02 1.502c-1.388 1.251-2.97 1.886-4.7 1.886z"/><path class="st0" d="M82.69 48.816c3.061 0 5.563.699 6.693 1.882 2.413 2.526 7.15 6.577 7.15 6.577-1.082.976-2.42 1.629-4.03 1.629-1.783 0-3.9-.802-6.368-2.855-4.696-3.905-14.855-4.221-14.855-4.221 3.739-2.113 7.935-3.012 11.41-3.012m0-2c-4.198 0-8.715 1.192-12.394 3.27a2 2 0 0 0 .922 3.74c2.637.086 10.231.927 13.638 3.761 2.646 2.2 5.22 3.317 7.647 3.317 1.958 0 3.814-.741 5.37-2.143a2 2 0 0 0-.04-3.006c-.047-.04-4.69-4.015-7.004-6.438-2.078-2.176-5.992-2.501-8.14-2.501z"/></g><path class="st10" d="M93.59 76.04s3.55-4.123 9.042-4.79c0 0-7.6-2.45-9.042 4.79z"/><path class="st8" d="M69.005 108.889s-4.12 18.449 2.275 28.158c3.26 4.952 7.461 8.6 12.228 8.15 7.669-.725 13.714-5.983 14.603-12.191.888-6.208-3.662-12.682-3.662-12.682s1.347 5.24-.86 10.431c-1.672 3.936-6.476 6.292-12.122 3.287-6.41-3.413-11.128-16.511-12.462-25.153zM42.884 52.746c-4.044.592-5.88.498-12.45-2.808-3.616-1.82-6.01-7-6.01-7s-.436 4.525 2.729 8.805c3.052 4.128 12.297 6.498 12.297 6.498s4.915-4.476 11.288-7.651c0 0-5.056 1.747-7.854 2.156zM47.882 31.448s-7.765 6.93-1.433 11.49 13.849-3.827 29.596 3.84c0 0-1.509-4.972-6.336-6.168-4.828-1.196-14.261.964-19.097-2.054-3.637-2.27-2.73-7.108-2.73-7.108z"/><g><path class="st0" d="m97.037 16.877 1.17 5.442-.796 8.618s-.73 2.776-2.249 2.776c-.151 0-.31-.028-.477-.088-1.842-.67-1.785-2.155-1.785-2.155l1.347-8.696 2.79-5.897m-.001-3.563a3.563 3.563 0 0 0-3.22 2.04l-2.79 5.897c-.146.31-.247.64-.3.978l-1.347 8.696a3.56 3.56 0 0 0-.04.408c-.078 2.033 1.169 4.565 4.13 5.64a4.95 4.95 0 0 0 1.693.303c3.144 0 5.003-2.806 5.694-5.432.05-.19.085-.384.103-.58l.795-8.617c.033-.36.012-.723-.064-1.076l-1.17-5.443a3.563 3.563 0 0 0-3.484-2.814zM74.977 13.255l2.144 5.763-.517 8.593s-.861 2.738-3.04 2.738a2.98 2.98 0 0 1-.849-.13c-2.807-.83-2.828-2.376-2.828-2.376l1.338-8.636 3.752-5.952m0-3.563a3.563 3.563 0 0 0-3.014 1.663l-3.752 5.952c-.26.412-.432.873-.507 1.355l-1.338 8.635c-.03.197-.045.396-.042.595.027 1.923 1.451 4.58 5.38 5.743a6.555 6.555 0 0 0 1.86.276c3.31 0 5.62-2.627 6.438-5.23.088-.278.14-.565.158-.856l.517-8.593a3.563 3.563 0 0 0-.217-1.456l-2.144-5.764a3.563 3.563 0 0 0-3.34-2.32z"/><path class="st0" d="m60.468 8.39.002.001 7.448 8.972c-3.983 5.876 1.66 10.48 6.834 10.48 3.695 0 7.15-2.346 6.693-8.253l7.32-8.703-2.994 27.9S65.54 36.7 56.8 28.828l2.786-5.117.881-15.32m28.297 2.497h.005M60.47 5.39a3 3 0 0 0-2.997 2.827l-.843 14.648-2.464 4.527a3 3 0 0 0 .627 3.664c9.36 8.43 29.804 10.626 30.67 10.715a3 3 0 0 0 3.29-2.664l2.981-27.772a2.998 2.998 0 0 0-3.156-3.444 2.985 2.985 0 0 0-2.123 1.08L79.15 17.66a3 3 0 0 0-.695 2.163c.097 1.26.015 2.977-.934 4.001-.82.888-2.087 1.02-2.768 1.02-2.043 0-4.149-1.066-4.898-2.48-.185-.348-.747-1.408.547-3.317a3 3 0 0 0-.175-3.599L62.78 6.475a3 3 0 0 0-2.31-1.084z"/><path class="st0" d="m88.765 10.887 3.475 10.376c-2.09 6.699.24 9.805 2.883 9.805 2.629 0 5.568-3.076 4.777-8.749l6.674-6.784h.001l-3.266 14.95.398 5.612c-3.451 2.6-8.033 3.275-11.859 3.275-4.127 0-7.375-.785-7.375-.785l4.292-27.7m.002-3a3 3 0 0 0-2.966 2.54l-4.293 27.7a3 3 0 0 0 2.26 3.376c.147.035 3.646.869 8.08.869 5.65 0 10.248-1.305 13.664-3.88a3 3 0 0 0 1.188-2.608l-.368-5.18 3.174-14.528a3 3 0 0 0-5.071-2.745l-6.674 6.784a3 3 0 0 0-.833 2.519c.407 2.915-.486 4.307-.89 4.77-.361.416-.719.564-.915.564-.053 0-.125 0-.25-.17-.506-.687-.748-2.603.23-5.742a3 3 0 0 0-.019-1.845L91.61 9.934a3 3 0 0 0-2.843-2.047z"/><g><path class="st12" d="m94.247 22.774 2.79-5.897 1.17 5.442-.796 8.618s-.884 3.357-2.726 2.688c-1.842-.67-1.785-2.155-1.785-2.155l1.347-8.696zM71.225 19.207l3.752-5.952 2.144 5.763-.517 8.593s-1.082 3.44-3.889 2.608c-2.807-.83-2.828-2.376-2.828-2.376l1.338-8.636z"/><path class="st13" d="m56.8 28.828 2.787-5.118.881-15.32.002.001 7.448 8.972c-6.827 10.073 14.625 16.404 13.527 2.227l7.32-8.703-2.994 27.9S65.54 36.7 56.8 28.828z"/><path class="st13" d="m103.707 36.097-.398-5.612 3.266-14.95h-.001L99.9 22.32c1.587 11.377-11.827 12.305-7.66-1.056l-3.475-10.376-4.292 27.7s12.06 2.915 19.234-2.49z"/></g></g><path class="st6" d="m61.614 10.887 2.171 4.014-1.086 10.228-1.908 3.523-1.637-1.59 2.315-4.352z"/><g><path class="st10" d="M85.81 24.008c-2.842 0-5.374 2.934-5.956 5.673-.319 1.503-.087 3.04.652 4.326.78 1.358 2.024 2.28 3.502 2.593.352.075.713.113 1.073.113 2.622 0 4.949-1.997 5.533-4.748.305-1.44.15-3.096-.427-4.544-.713-1.788-1.997-3-3.525-3.324a4.11 4.11 0 0 0-.852-.089z"/></g><path class="st9" d="M87.594 29.57c-.483 2.277-2.53 3.772-4.57 3.34s-3.303-2.631-2.82-4.909 2.748-4.796 4.788-4.363 3.086 3.654 2.602 5.932z"/><path class="st6" d="m88.285 13.255-5.322 6.514v2.941l-1.496 3.381 3.409-2.502.365-3.82 2.552-2.604zM101.182 22.71v3.381l3.663-6.418zM79.02 72.036s-8.354-1.068-8.044 5.405c.092 1.94.855 3.69.855 3.69s-.027-4.894 2.013-6.445c3.575-2.716 7.806 1.12 7.806 1.12s.879-1.949-2.63-3.77zM111.199 74.934s-1.991-1.489-3.998-.59c-.765.344 0 0 1.73 1.45 2.591 2.174 4.781 5.527 5.16 5.715.631.312-.367-3.718-2.892-6.575z"/></g><g id="Layer_13"><path class="st6" d="M114.208 74.704c-.383-.36-.817-.634-1.275-.925-1.771-1.12-3.768-2.384-4.438-8.68l-.127-.007-.324.442c-2.08 2.854-5.56 7.63-7.563 9.282-1.246 1.028-3.63 1.528-7.287 1.528-3.899 0-8.438-.568-11.558-1.045-3.678-.56-6.753-3.031-8.024-6.447-.577-1.552-1.234-4.35-1.347-7.484-4.831.63-18.183 3.01-23.028 6.149-2.306 1.493-2.246 2.337-2.115 4.185.037.52.079 1.108.066 1.763-.037 1.91-1.036 3.875-3.184 3.961l-.147.003c-2.415 0-2.73-2.326-2.833-3.09l-.014-.102c-1.145-8.188 3.478-11.065 5.7-12.448l.195-.122c5.146-3.222 26.37-6.161 27.271-6.285a15.8 15.8 0 0 1 1.075-.023c2.664 0 9.994.257 20.523 2.643.98.221 1.936.444 2.866.66 4.371 1.016 8.147 1.895 10.802 1.895a8.42 8.42 0 0 0 1.42-.108 19.748 19.748 0 0 1 3.358-.268c2.034 0 3.579.256 3.643.267l.896.15-1.322 18.58-3.229-4.474z"/><path class="st0" d="M75.25 56.358c2.489 0 9.79.237 20.303 2.619 5.664 1.283 10.541 2.58 13.89 2.58.576 0 1.108-.039 1.59-.123a18.839 18.839 0 0 1 3.186-.253c1.975 0 3.478.253 3.478.253l-1.061 14.924-1.67-2.314c-2.068-2.016-4.865-1.397-5.555-9.896l-1.53-.085c-1.78 2.425-5.903 8.222-8.036 9.981-1.175.97-3.72 1.3-6.652 1.3-3.895 0-8.47-.584-11.406-1.032-3.283-.502-6.08-2.697-7.238-5.809-.686-1.843-1.325-5.042-1.3-8.256-2.969.288-18.877 2.75-24.556 6.43-3.547 2.298-2.448 3.867-2.505 6.768-.023 1.156-.51 2.913-2.224 2.983a2.59 2.59 0 0 1-.106.002c-1.614 0-1.751-1.574-1.858-2.332-1.087-7.772 3.252-10.217 5.436-11.584 5.023-3.144 26.876-6.141 26.876-6.141s.32-.015.939-.015m0-2c-.678 0-1.03.017-1.03.017l-.089.004-.092.013c-2.28.312-22.43 3.15-27.665 6.427l-.194.12c-2.401 1.495-7.397 4.605-6.161 13.436l.013.097c.442 3.271 2.324 3.958 3.825 3.958.061 0 .124-.001.187-.004 2.422-.098 4.087-2.084 4.143-4.942.013-.7-.03-1.312-.069-1.852-.12-1.7-.149-2.103 1.661-3.276 4.394-2.847 16.138-5.066 21.548-5.85.213 2.803.812 5.257 1.347 6.694 1.397 3.756 4.773 6.472 8.81 7.089 3.154.481 7.745 1.056 11.708 1.056 3.953 0 6.472-.559 7.925-1.758 1.701-1.403 4.274-4.752 6.721-8.08.86 4.408 2.584 5.868 4.558 7.117.404.256.76.48 1.06.748l1.557 2.157 3.225 4.468.391-5.497 1.062-14.924.13-1.812-1.793-.302a25.22 25.22 0 0 0-3.81-.281c-1.26 0-2.447.095-3.528.283a7.42 7.42 0 0 1-1.249.092c-2.54 0-6.263-.865-10.575-1.868-.931-.216-1.89-.44-2.872-.662-10.628-2.408-18.048-2.668-20.744-2.668z"/><path class="st0" d="M101.52 63.356s-7.729-2.124-13.601-3.044c-5.872-.92-8.481-1.053-9.96-1.055s-1.463 1.09-1.438 2.436c.034 1.884.266 3.424.6 4.68.787 2.962 2.716 5.12 5.756 5.51 2.533.326 5.986.676 9.09.676 4.853 0 5.828-.869 5.836-.876 1.186-1.194 2.95-3.374 5.1-6.305.101-.137.252-.32.425-.52.62-.714-.871-1.37-1.808-1.502zM112.143 63.934c-.516 0-.686.48-.707.996-.043 1.077.163 2.656.219 2.975.433 2.457.793 4.317 1.524 5.776.165.328 1.217 1.168 1.243.802l.542-9.86a.643.643 0 0 0-.642-.689h-2.179z"/><path class="st10" d="m87.684 63.162-5.637-.938 3.821 9.998c1.685.165 3.51.293 5.267.326l-3.45-9.386zM101.312 64.795l-9.094-1.304 3.478 8.831c1.67-.258 2.102-.634 2.107-.639 1.186-1.194 2.95-3.374 5.1-6.305.101-.137.252-.32.425-.52.035-.04.054-.084.083-.126l-2.1.063z"/><path class="st4" d="M111.295 105.181c.451-1.447.233-2.86-.556-3.601l-1.108-1.041 1.465.409c.185.05.382.077.586.077.93 0 1.97-.549 2.783-1.468l1.158-1.31-.521 1.669c-.453 1.446-.235 2.86.554 3.602l1.107 1.041-1.463-.409a2.216 2.216 0 0 0-.586-.077c-.93 0-1.97.548-2.782 1.467l-1.157 1.308.52-1.667z"/><path class="st6" d="M114.745 99.805c-.494 1.58-.25 3.135.656 3.985a2.547 2.547 0 0 0-.687-.091c-1.036 0-2.169.583-3.063 1.594.493-1.581.25-3.135-.656-3.986.221.062.451.092.686.092 1.037 0 2.17-.583 3.064-1.594m1.753-3.11-2.313 2.615c-.743.84-1.68 1.342-2.504 1.342-.17 0-.332-.022-.485-.065l-2.927-.817 2.214 2.082c.686.644.864 1.907.455 3.218l-1.04 3.333 2.313-2.615c.743-.84 1.679-1.342 2.503-1.342.17 0 .333.022.486.064l2.927.817-2.215-2.081c-.685-.644-.863-1.907-.454-3.219l1.04-3.333z"/><g><path class="st4" d="M18.138 67.302c.03-1.102-.38-2.038-1.046-2.386l-2.286-1.19 2.577-.006c.752-.001 1.547-.644 2.027-1.637l1.289-2.668-.084 2.962c-.032 1.102.38 2.038 1.046 2.386l2.286 1.19-2.578.006c-.751.001-1.547.644-2.027 1.637l-1.288 2.668.084-2.962z"/><path class="st6" d="M19.98 62.358c-.037 1.343.494 2.502 1.388 2.967-1.007.002-2.013.787-2.597 1.996.038-1.342-.493-2.502-1.386-2.967 1.007-.002 2.012-.787 2.596-1.996m1.435-5.886-2.577 5.335c-.424.878-1.052 1.278-1.457 1.28l-5.157.01 4.574 2.382c.359.187.733.832.705 1.806l-.167 5.922 2.576-5.335c.424-.878 1.053-1.278 1.457-1.28l5.157-.01-4.574-2.382c-.358-.187-.732-.831-.705-1.806l.168-5.922z"/></g><g><path class="st4" d="M88.01 64.665c-1.146-2.142-3.014-3.526-4.76-3.526l-2.643.1 2.18-1.25c1.552-.893 2.442-3.085 2.269-5.586l-.202-2.88 1.363 2.546c1.163 2.175 2.987 3.527 4.759 3.527l2.642-.1-2.179 1.25c-1.552.892-2.442 3.084-2.269 5.585l.201 2.88-1.362-2.546z"/><path class="st6" d="M85.672 54.36c1.26 2.355 3.3 3.853 5.304 3.853.052 0 .104 0 .156-.003-1.782 1.024-2.768 3.431-2.578 6.164-1.259-2.354-3.3-3.853-5.303-3.853a3.98 3.98 0 0 0-.157.003c1.782-1.023 2.768-3.43 2.578-6.164m-1.633-5.675.4 5.761c.158 2.267-.612 4.232-1.96 5.006l-4.358 2.503 5.022-.196.107-.002c1.52 0 3.175 1.256 4.214 3.2l2.724 5.092-.4-5.76c-.158-2.267.611-4.232 1.96-5.007l4.358-2.503-5.022.196-.108.003c-1.52 0-3.175-1.256-4.214-3.2l-2.723-5.093z"/></g><g><path class="st6" d="M53.492 129.274c-.522 0-1.01-.235-1.33-.635l-5.974-5.169-.06-.088a1.666 1.666 0 0 1 .466-2.34 1.7 1.7 0 0 1 .937-.282c.52 0 1.01.236 1.33.636l5.973 5.168.061.089a1.664 1.664 0 0 1-.465 2.34c-.28.184-.604.281-.938.281z"/><path class="st0" d="M47.531 121.604a.86.86 0 0 1 .71.37l5.959 5.158c.263.382.158.9-.233 1.156a.861.861 0 0 1-.475.142.858.858 0 0 1-.71-.37l-5.96-5.157a.822.822 0 0 1 .234-1.156.858.858 0 0 1 .475-.143m0-1.688a2.54 2.54 0 0 0-1.407.423 2.498 2.498 0 0 0-1.087 1.617c-.131.667.01 1.343.395 1.904l.122.178.164.142 5.839 5.053c.48.558 1.185.885 1.935.885a2.544 2.544 0 0 0 2.494-2.04 2.487 2.487 0 0 0-.395-1.903l-.123-.178-.163-.142-5.84-5.053a2.548 2.548 0 0 0-1.934-.886z"/></g></g></g></switch></svg>