<svg xmlns="http://www.w3.org/2000/svg" viewBox="0 0 254.065 170.514" style="enable-background:new 0 0 254.064529 170.513626" xml:space="preserve"><style>.st0{fill:#ee2b2d}.st1{fill:#fff200}.st2,.st3{fill:#ffa100;stroke:#ee2b2d;stroke-width:9.48298;stroke-linecap:round;stroke-linejoin:round;stroke-miterlimit:10}.st3{stroke-width:8.1607}.st5{fill:#fff}.st6{fill:none}</style><switch><g><path class="st0" d="m233.696 78.868.009-.011-7.706-13.056-.881 8.148-13.567-4.822.536-19.584a6.741 6.741 0 0 0-.923-3.616l.008-.002-7.889-13.322-2.275 9.926.767 1.05a6.833 6.833 0 0 0-1.832 1.647l-7.23 9.4a4.711 4.711 0 0 0-.824-.516 4.74 4.74 0 0 0-5.09.646l-.314.264c-3.084-1.617-6.533-2.469-10.3-2.537-2.73-.05-5.46.419-8.121 1.38a6.723 6.723 0 0 0-.942-.07c-.57.01-1.127.1-1.664.25a4.733 4.733 0 0 0-2.67-.886l-17.46-.316a4.73 4.73 0 0 0-2.164.478 4.735 4.735 0 0 0-2.144-.556l-13.036-.236.14-.652 5.635-10.178c.371-.62.579-1.346.565-2.12a3.984 3.984 0 0 0-.706-2.202l-7.854-12.788-5.493 6.673a3.987 3.987 0 0 0-1.042-.4 3.998 3.998 0 0 0-3.616.988l-3.675 3.454c-.053.05-.104.1-.153.152l-3.257-3.943a4 4 0 0 0-7.077 2.802l.75 11.74-.575 2.451a4 4 0 0 0 .504 3.038c.119.189.26.36.406.524L84.52 51.74c-.127-.002-.256 0-.384.008a4.87 4.87 0 0 0-.38-.021l-19.937-.361c-1.958-.062-3.73 1.13-4.472 2.94a4.74 4.74 0 0 0 1.115 5.233l4.49 4.278-.16 8.94-7.188-6.69a5.57 5.57 0 0 0-3.907-1.509 5.636 5.636 0 0 0-4.292 2.098 5.583 5.583 0 0 0-1.131 4.594l1.946 9.966-8.877 4.93a5.597 5.597 0 0 0-2.782 5.98 5.597 5.597 0 0 0 4.828 4.495l10.079 1.23 1.946 9.964a5.61 5.61 0 0 0 5.615 4.536 5.565 5.565 0 0 0 4.98-3.244l4.283-9.206 6.75.823a11.27 11.27 0 0 0-.253 3.772c.174 1.636.917 3.127 1.969 4.361a23.29 23.29 0 0 0-9.36 2.688c-3.145 1.671-5.722 3.973-7.658 6.84-2.083 3.088-3.046 6.466-2.864 10.043.105 2.065.571 4 1.368 5.798l-3.4 4.176 13.447 5.43a24.406 24.406 0 0 0 10.944 1.987 27.884 27.884 0 0 0 6.301-1.04 23.542 23.542 0 0 0 5.685-2.472 13.978 13.978 0 0 0 3.678-3.242 19.46 19.46 0 0 0 6.371 3.755 24.391 24.391 0 0 0 8.68 1.416 24.498 24.498 0 0 0 10.19-2.377 19.561 19.561 0 0 0 6.914-5.48 19.486 19.486 0 0 0 7.423 4.747 24.39 24.39 0 0 0 8.678 1.415 24.485 24.485 0 0 0 10.19-2.377c.422-.2.833-.418 1.236-.645a4.73 4.73 0 0 0 3.186 1.032l21.098-1.077a4.742 4.742 0 0 0 2.89-8.295l-.352-.31 1.295-.065c3.741-.192 6.958-1.511 9.563-3.922 2.689-2.49 4.056-5.652 4-9.163 1.307 1.65 3.282 2.61 5.388 2.573a6.78 6.78 0 0 0 6.682-6.594l.536-19.584 18.791-5.542a6.748 6.748 0 0 0 4.038-9.705z" id="Layer_12"/><path class="st1" d="M93.684 19.88a4 4 0 0 1 3.085 1.452l3.257 3.944c.05-.052.101-.103.154-.153l3.675-3.453a4 4 0 0 1 6.462 1.452l1.844 4.693c.027.067.051.135.074.203l4.552-2.135a3.977 3.977 0 0 1 1.803-.415 3.998 3.998 0 0 1 3.41 6.05l-5.635 10.178-.14.653 13.037.235a4.735 4.735 0 0 1 2.143.557 4.735 4.735 0 0 1 2.164-.479l17.46.316c.981.018 1.906.34 2.67.886a6.646 6.646 0 0 1 1.73-.25c.293 0 .585.034.876.07 2.53-.913 5.123-1.383 7.718-1.383.134 0 .269.001.403.004 3.768.068 7.217.92 10.3 2.537l.315-.264a4.734 4.734 0 0 1 5.09-.646c.297.142.567.32.823.516l7.23-9.4c1.268-1.648 3.172-2.614 5.224-2.65l.119-.001c1.82 0 3.589.735 4.868 2.026 1.298 1.311 1.985 3.066 1.934 4.941l-.536 19.584 18.46 6.562a6.759 6.759 0 0 1 4.503 6.57 6.76 6.76 0 0 1-4.856 6.314l-18.791 5.542-.537 19.584a6.78 6.78 0 0 1-6.798 6.595c-2.062 0-3.988-.955-5.271-2.575.055 3.512-1.312 6.673-4 9.163-2.605 2.411-5.822 3.73-9.563 3.922l-1.295.066.352.31a4.741 4.741 0 0 1-2.89 8.295l-21.098 1.076a8.507 8.507 0 0 1-.241.006 4.733 4.733 0 0 1-2.946-1.038c-.403.228-.813.445-1.236.646a24.485 24.485 0 0 1-10.19 2.377 24.356 24.356 0 0 1-8.678-1.416 19.485 19.485 0 0 1-7.422-4.746 19.561 19.561 0 0 1-6.916 5.48 24.498 24.498 0 0 1-10.19 2.376 24.357 24.357 0 0 1-8.68-1.416 19.46 19.46 0 0 1-6.37-3.754 13.979 13.979 0 0 1-3.677 3.24 23.541 23.541 0 0 1-5.685 2.474 27.885 27.885 0 0 1-7.551 1.07c-2.875 0-5.715-.51-8.46-1.52a20.957 20.957 0 0 1-8.489-5.788c-2.565-2.874-3.965-6.277-4.16-10.114-.183-3.576.78-6.955 2.864-10.043 1.935-2.867 4.513-5.168 7.658-6.84A23.29 23.29 0 0 1 67 98.68c-1.053-1.235-1.796-2.725-1.97-4.362a11.269 11.269 0 0 1 .253-3.771l-6.75-.823-4.283 9.205a5.565 5.565 0 0 1-5.08 3.245 5.61 5.61 0 0 1-5.515-4.536l-1.946-9.965-10.079-1.23a5.597 5.597 0 0 1-4.828-4.494 5.597 5.597 0 0 1 2.783-5.98l8.876-4.931-1.946-9.965a5.583 5.583 0 0 1 1.131-4.595 5.636 5.636 0 0 1 4.292-2.097l.098-.001c1.412 0 2.761.534 3.81 1.51l7.187 6.69.161-8.94-4.49-4.279a4.74 4.74 0 0 1-1.115-5.233c.723-1.764 2.426-2.942 4.326-2.942.048 0 .097 0 .145.002l19.938.361c.127.002.254.01.38.022a4.954 4.954 0 0 1 .383-.008l18.017.326a3.98 3.98 0 0 1-.406-.525 4 4 0 0 1-.505-3.037l.575-2.452-.75-11.74a4 4 0 0 1 3.992-4.255m-1.879 46.013 1.696-1.503.181-10.018-2.102-2.002-5.8 4.414 3.457 6.394 2.568 2.715m21.36.495 1.993-1.804.174-9.626-1.892-1.901-1.851 1.64-.181 10.018 1.757 1.673m37.745 17.118 4.405-5.726c-2.013-.757-3.89-1.748-5.574-2.984-.303-.22-.578-.471-.864-.71a4.734 4.734 0 0 1-1.316 2.324l-.013.01c.476.744.803 1.569.898 2.458.01.096.017.19.02.286.003.093.004.186.004.28.263.159.512.343.745.55a5.145 5.145 0 0 1 1.686 3.302c.008.07.004.14.009.21m-78.203-2.61c.924-.504 1.941-.887 3.009-1a5.83 5.83 0 0 1 .626-.034c.883 0 1.74.19 2.48.442a6.81 6.81 0 0 1 1.35-.137c.98 0 1.907.218 2.734.633a60.74 60.74 0 0 1 2.278-4.13l-13.435-.243a4.146 4.146 0 0 1-.225-.007h-.157l-3.536-.064 4.876 4.54m24.08 16.38a22.666 22.666 0 0 1 3.471-.277c2.147 0 4.3.318 6.414.95 2.45.73 4.71 1.825 6.715 3.252 1.008.717 1.93 1.54 2.774 2.448a20.344 20.344 0 0 1 6.617-5.637 23.179 23.179 0 0 1 3.413-1.489c-1.058-.351-1.998-.927-2.591-1.346a10.316 10.316 0 0 1-.743-.577c-.793 1.322-2.151 2.18-3.742 2.351-.16.017-.325.026-.496.026-.732 0-1.557-.156-2.374-.445-1.277.732-2.696 1.26-4.256 1.426h-.001a9.81 9.81 0 0 1-1.032.055c-1.02 0-1.982-.17-2.915-.516-2.286-.832-5.147-4.013-5.363-6.85-.093-1.325.295-2.86 1.69-6.227-.632-.842-1.062-1.837-1.174-2.886-.238-2.244.666-3.62 1.992-4.502l-3.954-.071a5.066 5.066 0 0 1-.392.435c-.508.492-1.987 2.283-3.582 4.45.312.665.565 1.43.745 2.297a5.321 5.321 0 0 1 1.595.663c1.322.82 2.17 2.144 2.329 3.633.255 2.388-1.23 4.323-2.213 5.602l-.279.37a18.907 18.907 0 0 1-2.648 2.864m42.058-2.43c-1.391 0-3.152-.372-4.747-1.092a12.44 12.44 0 0 1-1.843 1.588c.036-.002.071-.007.107-.009a22.402 22.402 0 0 1 10.375 1.998 4.736 4.736 0 0 1 3.493-1.827l3.898-.2a6.894 6.894 0 0 1-1.764-2.22 6.736 6.736 0 0 1-.715-2.953c-2.272 2.667-5.218 4.374-8.098 4.68a6.712 6.712 0 0 1-.706.035m23.903-.185 8.234-.42c.228-.01.455-.016.682-.016 2.358 0 4.66.593 6.891 1.776l-3.422-4.992-12.385 3.652m-90.953 26.356c.146 0 .294-.005.445-.013 1.384-.07 2.478-.493 3.446-1.33.517-.446 1.117-1.181 1.194-2.933.014-.32.06-.632.135-.935-.36-.563-.948-1.186-1.957-1.766-1.369-.788-2.751-1.173-4.212-1.173a8.358 8.358 0 0 0-.433.011c-1.66.084-2.446.68-2.893 1.12-.54.532-.777 1.523-.704 2.944.088 1.717.753 2.431 1.392 2.903 1.065.787 2.212 1.172 3.587 1.172M93.684 14.879l-.16.002a8.96 8.96 0 0 0-3.153.63 8.976 8.976 0 0 0-5.668 8.942l.702 11-.312 1.331-12.241-.221-.18-.002c-.069 0-.138 0-.207.002a9.73 9.73 0 0 0-.38-.014l-19.909-.36a9.644 9.644 0 0 0-.261-.004c-3.932 0-7.446 2.372-8.952 6.044a9.686 9.686 0 0 0-.098 7.182c-.275-.021-.551-.032-.829-.032l-.186.001a10.624 10.624 0 0 0-8.09 3.952 10.571 10.571 0 0 0-2.152 8.698l1.25 6.4-5.7 3.166a10.585 10.585 0 0 0-5.263 11.31 10.585 10.585 0 0 0 9.13 8.5l6.473.79 1.25 6.4a10.634 10.634 0 0 0 6.454 7.806c-2.262 3.737-3.297 7.802-3.078 12.101.255 5.007 2.08 9.444 5.424 13.19 2.9 3.25 6.43 5.657 10.493 7.151a29.444 29.444 0 0 0 11.684 1.79 32.91 32.91 0 0 0 7.441-1.23 28.551 28.551 0 0 0 6.895-3.004 19.139 19.139 0 0 0 1.528-1.034 24.575 24.575 0 0 0 4.242 1.985 29.37 29.37 0 0 0 10.447 1.706 32.75 32.75 0 0 0 1.007-.034c3.958-.204 7.737-1.155 11.248-2.83a24.608 24.608 0 0 0 5.104-3.245 24.517 24.517 0 0 0 5.403 2.709 29.364 29.364 0 0 0 10.444 1.705 29.522 29.522 0 0 0 11.34-2.446 9.672 9.672 0 0 0 2.944.462l.166-.002.257-.007.036-.001.037-.002 21.097-1.077a9.705 9.705 0 0 0 8.702-6.524 9.783 9.783 0 0 0 .548-3.112c2.708-.868 5.146-2.298 7.288-4.28 1.732-1.605 3.078-3.423 4.016-5.406.61.098 1.23.148 1.859.148l.206-.002c6.326-.11 11.418-5.143 11.59-11.456l.437-15.953 15.307-4.514a11.747 11.747 0 0 0 8.44-10.973 11.746 11.746 0 0 0-7.827-11.418l-15.037-5.345.437-15.953c.089-3.253-1.111-6.305-3.379-8.596a11.926 11.926 0 0 0-8.422-3.508l-.205.002c-3.583.063-6.9 1.74-9.1 4.6l-5.026 6.534a9.748 9.748 0 0 0-4.81.667c-3.06-1.195-6.369-1.831-9.869-1.894a27.474 27.474 0 0 0-8.838 1.312 9.005 9.005 0 0 0-.25-.004l-.153.001c-.253.005-.507.018-.761.04a9.697 9.697 0 0 0-3.396-.676l-17.458-.316-.187-.002c-.66 0-1.323.07-1.973.205a9.74 9.74 0 0 0-2.149-.28l-4.945-.09L126.342 34a8.983 8.983 0 0 0 1.223-4.69c-.085-4.852-4.1-8.818-8.95-8.842h-.052l-.16.001a9.008 9.008 0 0 0-3.459.758 8.99 8.99 0 0 0-8.35-5.642l-.161.001a8.98 8.98 0 0 0-5.952 2.393 8.972 8.972 0 0 0-6.797-3.1z" id="Layer_12_copy"/><g id="Layer_10"><path class="st1" d="m196.33 39.255-.56 20.473a2.776 2.776 0 0 0 1.845 2.691l19.298 6.86c2.534.9 2.435 4.517-.145 5.278l-19.644 5.794a2.776 2.776 0 0 0-1.99 2.586l-.56 20.473c-.074 2.688-3.544 3.712-5.065 1.494L177.93 88.01a2.776 2.776 0 0 0-3.075-1.093l-19.644 5.794c-2.58.76-4.625-2.224-2.985-4.355l12.487-16.234c.733-.953.769-2.27.089-3.262l-11.58-16.892c-1.52-2.218.685-5.086 3.219-4.185l19.298 6.86a2.776 2.776 0 0 0 3.13-.924l12.487-16.234c1.64-2.131 5.049-.92 4.975 1.769z"/><path class="st0" d="M193.526 36.397c1.445 0 2.852 1.12 2.804 2.858l-.56 20.473a2.776 2.776 0 0 0 1.845 2.691l19.298 6.86c2.534.9 2.435 4.517-.145 5.278l-19.644 5.794a2.776 2.776 0 0 0-1.99 2.586l-.56 20.473c-.046 1.676-1.412 2.705-2.802 2.705-.84 0-1.69-.376-2.263-1.211L177.93 88.01a2.776 2.776 0 0 0-3.075-1.093l-19.644 5.794a2.89 2.89 0 0 1-.819.121c-2.162 0-3.628-2.577-2.166-4.476l12.487-16.234c.733-.953.769-2.27.089-3.262l-11.58-16.892c-1.324-1.931.177-4.355 2.26-4.355.31 0 .631.053.959.17l19.298 6.86a2.772 2.772 0 0 0 3.13-.924l12.487-16.234c.58-.753 1.381-1.09 2.171-1.09m0-4c-2.099.001-4.046.967-5.341 2.651l-11.945 15.53-18.46-6.562a6.848 6.848 0 0 0-2.3-.401c-2.501 0-4.791 1.396-5.975 3.643a6.744 6.744 0 0 0 .416 6.973L161 70.39l-11.945 15.528a6.72 6.72 0 0 0-.717 7.11c1.156 2.347 3.476 3.805 6.054 3.805.654 0 1.31-.096 1.95-.284l18.792-5.542 11.077 16.159c1.285 1.874 3.312 2.949 5.562 2.949 3.712 0 6.7-2.897 6.8-6.595l.537-19.584 18.79-5.542a6.759 6.759 0 0 0 4.857-6.314 6.759 6.759 0 0 0-4.504-6.57l-18.46-6.562.537-19.584c.05-1.853-.622-3.592-1.892-4.898a6.886 6.886 0 0 0-4.91-2.07z"/><g><path class="st1" d="m43.12 58.817 8.702 8.1c.511.476 1.27.569 1.88.23l10.394-5.773c1.365-.758 2.902.673 2.244 2.089l-5.016 10.779a1.611 1.611 0 0 0 .363 1.86l8.702 8.1c1.143 1.063.257 2.968-1.293 2.779l-11.801-1.439a1.611 1.611 0 0 0-1.656.92l-5.015 10.78c-.659 1.414-2.744 1.16-3.043-.372l-2.278-11.668a1.611 1.611 0 0 0-1.387-1.291l-11.801-1.439c-1.55-.189-1.953-2.25-.588-3.008L41.92 73.69c.61-.339.933-1.032.8-1.717L40.44 60.305c-.3-1.532 1.537-2.552 2.68-1.488z"/><path class="st0" d="M42.036 58.379c.374 0 .758.134 1.085.438l8.701 8.1a1.61 1.61 0 0 0 1.88.23l10.394-5.773c.262-.145.53-.21.787-.21 1.086 0 1.989 1.154 1.457 2.299l-5.016 10.779a1.611 1.611 0 0 0 .363 1.86l8.702 8.1c1.09 1.014.335 2.792-1.08 2.792-.07 0-.14-.004-.213-.013l-11.801-1.439a1.611 1.611 0 0 0-1.656.92l-5.015 10.78a1.574 1.574 0 0 1-1.453.931c-.714 0-1.425-.456-1.59-1.303l-2.278-11.668a1.611 1.611 0 0 0-1.387-1.291l-11.801-1.439c-1.55-.189-1.953-2.25-.588-3.008l10.393-5.773c.61-.339.933-1.032.8-1.717L40.44 60.305c-.214-1.094.661-1.926 1.595-1.926m0-4a5.63 5.63 0 0 0-4.359 2.06 5.577 5.577 0 0 0-1.162 4.633l1.946 9.965-8.876 4.93a5.597 5.597 0 0 0-2.783 5.981 5.597 5.597 0 0 0 4.828 4.495l10.08 1.229 1.945 9.965c.522 2.67 2.79 4.536 5.516 4.536a5.552 5.552 0 0 0 5.08-3.245l4.282-9.205 10.08 1.228a5.571 5.571 0 0 0 5.903-3.52c.848-2.158.298-4.575-1.401-6.157l-7.432-6.918 4.283-9.206a5.573 5.573 0 0 0-.346-5.373 5.6 5.6 0 0 0-4.737-2.613c-.945 0-1.889.247-2.73.713l-8.875 4.93-7.432-6.918a5.58 5.58 0 0 0-3.81-1.51z"/></g></g><g id="Layer_7"><path class="st2" d="m91.057 72.072-19.253-.348 5.171-5.475-3.589-6.09-6.757 4.569-.023 1.296 4.816 5.693-19.937-.361 6.201-5.494.257-14.182-5.998-5.714 19.937.36-5.02 5.515-.124 6.9 10.049-7.33-4.142-5.071 18.604.337-11.6 8.828L85.33 66.02l5.726 6.053zM112.597 72.462l-20.625-.373 6.201-5.494.257-14.182-5.998-5.715 20.625.374-6.201 5.494-.257 14.182 5.998 5.714zM150.913 47.757l-6.32 5.759-.354 19.52-8.882-.162-10.564-14.76-.158 8.73 6.26 5.95-17.384-.315 6.32-5.721.248-13.686-5.956-5.981 15.022.272L139.57 61.28l.142-7.853-6.26-5.986 17.46.316z"/><path class="st2" d="m184.542 60.836-6.364 6.026-.146 8.082-3.722-2.966c-2.907 1.854-6.532 2.742-10.879 2.663a19.225 19.225 0 0 1-5.799-1.001 18.61 18.61 0 0 1-5.119-2.63c-1.53-1.12-2.756-2.553-3.678-4.299-.922-1.745-1.364-3.66-1.326-5.745.048-2.668.938-5.099 2.668-7.292a16.6 16.6 0 0 1 6.4-4.976c2.539-1.123 5.117-1.662 7.734-1.614 4.144.075 7.73 1.298 10.764 3.666l2.983-2.501-.202 11.132c-1.107-2.13-2.835-3.904-5.186-5.319-2.351-1.416-4.709-2.145-7.073-2.188-2.313-.042-4.22.661-5.72 2.11-1.502 1.446-2.28 3.695-2.335 6.745-.044 2.415.686 4.557 2.192 6.427 1.504 1.872 3.298 2.825 5.383 2.863 1.677.03 3.29-.59 4.838-1.858l.027-1.486-6.752-6.225 21.312.386z"/><g><path class="st3" d="M80.382 95.154c-.56.061-1.129.051-1.75-.131-1.226 1.478-2.747 2.844-4.499 3.032-1.647.175-4.767-1.832-5.017-4.18-.527-4.943 4.64-9.677 7.06-9.934.77-.082 1.807.34 2.487.728a3.21 3.21 0 0 1 1.267-.419c1.401-.15 2.102.769 2.233 1.995.197 1.859-.742 4.688-2.11 6.82.11.022.25.007.355-.003 2.067-.221 3.196-3.602 4.072-3.696.49-.051.991.32 1.05.881.027.245-.048.536-.198.802-1.169 2.003-2.707 3.867-4.95 4.105zM75.247 91.2c-.075-.7-.005-1.381.2-2.112-1.093.719-2.917 3.89-2.761 5.362.06.562.44.804 1 .745.701-.076 1.67-.638 2.554-1.654-.604-.68-.904-1.499-.993-2.34zm3.808-3.843c-.63.067-1.214 1.583-1.116 2.494.033.314.137.623.257.753.647-1.239 1.207-2.647 1.159-3.102-.008-.07-.047-.102-.086-.133a.445.445 0 0 0-.214-.012z"/><path class="st3" d="M91.924 82.371c.035-.004.102-.046.171-.053 1.122-.12 1.876 1.642 2.082 3.57.187 1.753-.007 3.935-.53 6.012 1.784-1.891 2.404-3.73 3.21-3.816.315-.033.983.25 1.04.777.097.91-1.105 2.278-1.724 3.124-.556.768-2.133 2.602-3.717 3.374-1.48 3.737-3.14 8.132-5.347 8.368-2.033.216-5.144-1.366-5.38-3.574-.265-2.49.65-8.223 3.678-15.068 3-6.77 7.534-13.138 9.881-13.388.877-.093 2.85 1.114 2.958 2.131a.7.7 0 0 1-.217.625c-1.029.996-3.844 4.522-6.105 7.918zm-3.962 8.398c-.018-.176-.003-.355-.021-.53-1.224 3.817-2.361 9.113-2.21 10.55.039.35.116.414.29.396.948-.102 2.534-3.852 3.464-6.432-.774-.945-1.359-2.442-1.523-3.984zm3.096-3.876c-.63.067-1.145 1.895-.962 3.613.056.525.144 1.012.332 1.454.708-2.345.956-4.002.882-4.703-.022-.21-.107-.344-.182-.371l-.07.007zM111.584 93.89c-.77.082-1.452.012-2.116-.237-.808-.268-2.606-2.168-2.694-3.329-.07-.984 1.375-4.399 2.775-7.561l-.526.057c-.56.06-1.65-.854-1.743-1.729-.1-.947.69-1.173 3.86-1.688 1.455-2.99 2.212-4.206 2.912-4.28 1.122-.119 2.74 1.09 2.83 1.932.04.386-.431 1.286-.577 1.586 1.726-.113 1.849.05 1.939.892.123 1.157-.518 2.785-1.536 2.893-.525.056-1.36-.139-2.105-.13-1.12 2.458-2.361 5.107-2.618 5.701-.484 1.115-.94 2.156-.87 2.823.05.456.351.635 1.018.565.806-.086 1.957-.599 3.052-1.637 1.575-1.514 2.475-4.055 3.35-4.15.457-.048.855.37.91.895.027.246-.017.5-.131.76-1.066 2.31-4.014 6.24-7.73 6.637z"/><path class="st3" d="M132.547 89.353c-1.166 1.365-2.53 3.21-4.496 3.384-.666.072-3.586-1.39-3.788-3.282-.056-.526.875-3.105 1.536-4.879-1.04 1.21-1.369 1.458-3.583 3.963-.947 1.093-1.972 2.443-2.808 3.914-.15.265-.384.396-.7.429-1.086.115-2.81-1.084-2.853-1.505-.33-3.084 8.79-21.637 11.231-23.35a.963.963 0 0 1 .445-.153c1.051-.113 2.748.84 2.848 1.788a.949.949 0 0 1-.213.661c-1.35 1.633-5.847 10.335-7.897 15.055 2.293-2.442 6.29-7.512 7.587-7.65 1.191-.126 2.074 1.836 2.22 3.202.052.492.023.885-.13 1.113-1.513 2.11-3.41 5.929-3.227 7.646.019.175.093.203.233.188 1.262-.135 4.103-4.407 4.735-5.467.208-.377.509-.55.789-.58.49-.052.995.356 1.055.915.022.211-.026.428-.144.655-.353.675-1.642 2.548-2.84 3.953z"/><path class="st3" d="M144.608 87.43c-1.574 1.869-3.569 3.11-5.461 3.311-1.472.157-4.414-.841-5.106-2.008-.258-.434-.431-1.054-.505-1.754-.519-4.872 3.82-10.05 6.941-10.381.175-.019.32 0 .494-.018.962.04 3.302 1.386 3.443 2.717.091 2.508-2.224 5.732-3.872 5.908-.7.074-1.987-.356-2.81-.764-.313 1.061-.336 1.842-.277 2.403.135 1.263.74 1.623 2.038 1.485 1.857-.198 3.699-1.883 5.635-4.995.212-.343.478-.513.723-.538.491-.053.96.358 1.02.919a.98.98 0 0 1-.084.54c-.146.3-.982 1.773-2.18 3.176zm-3.65-7.977c-.385.041-1.47 1.186-2.38 2.948.337.176.773.272 1.02.246.734-.078 1.632-2.301 1.562-2.967-.012-.105-.054-.172-.093-.203-.035.004-.073-.028-.109-.024z"/></g><g><path d="M113.646 31.775c-.874 6.316-9.713 3.766-5.207-2.497l-1.845-4.693-3.675 3.453c1.395 7.589-7.686 6.113-5.775.03l-3.459-4.189.787 12.332-.71 3.029 18.164 4.08.652-3.042 5.986-10.81-4.918 2.307z" style="fill-rule:evenodd;clip-rule:evenodd;fill:#fff200"/><path class="st0" d="M93.684 23.88h.001l3.46 4.188c-1.006 3.201 1.032 5.126 2.985 5.126 1.76 0 3.45-1.56 2.789-5.156l3.675-3.453 1.845 4.693c-2.688 3.736-.628 6.15 1.658 6.15 1.547 0 3.196-1.105 3.549-3.653l4.918-2.307-5.986 10.81-.652 3.042-18.165-4.08.711-3.03-.788-12.33m24.88 5.588h.005M93.684 19.88a4 4 0 0 0-3.991 4.255l.75 11.74-.576 2.452a4 4 0 0 0 3.018 4.816l18.165 4.08a4 4 0 0 0 4.788-3.064l.527-2.462 5.634-10.175a3.998 3.998 0 0 0-3.8-6.037 3.975 3.975 0 0 0-1.41.398l-4.554 2.136a4.022 4.022 0 0 0-.074-.203l-1.844-4.693a4 4 0 0 0-6.462-1.452l-3.675 3.453c-.053.05-.104.1-.154.153l-3.257-3.944a4 4 0 0 0-3.085-1.453z"/></g><g><path class="st2" d="M81.943 115.356c-.753-2.278-2.276-4.078-4.57-5.399-2.295-1.321-4.712-1.916-7.25-1.787-2.438.125-4.432.951-5.983 2.482s-2.254 3.716-2.11 6.56c.143 2.792 1.247 4.95 3.31 6.474 2.063 1.524 4.427 2.217 7.093 2.082 2.437-.124 4.54-.951 6.307-2.48s2.71-3.63 2.828-6.31c1.005.738 1.546 1.869 1.624 3.392.084 1.65-.26 3.145-1.031 4.482-.773 1.337-1.843 2.423-3.213 3.257a18.656 18.656 0 0 1-4.54 1.966c-1.655.48-3.396.766-5.224.86a19.617 19.617 0 0 1-7.831-1.203c-2.555-.94-4.751-2.438-6.586-4.495-1.837-2.057-2.823-4.458-2.964-7.199-.129-2.538.557-4.922 2.06-7.15 1.503-2.226 3.486-3.994 5.953-5.304a18.466 18.466 0 0 1 7.811-2.174c3.91-.199 7.43.716 10.563 2.745l3.135-2.909.618 12.11zM116.216 115.134c.14 2.742-.555 5.196-2.087 7.36-1.53 2.166-3.477 3.812-5.837 4.938a19.685 19.685 0 0 1-7.54 1.891 19.67 19.67 0 0 1-7.693-1.115c-2.463-.88-4.566-2.325-6.31-4.335-1.745-2.011-2.686-4.375-2.825-7.092-.138-2.715.535-5.22 2.023-7.51a15.62 15.62 0 0 1 5.815-5.356 17.836 17.836 0 0 1 7.586-2.124c1.98-.1 3.951.143 5.916.73 1.964.587 3.74 1.445 5.324 2.572 1.584 1.129 2.893 2.571 3.924 4.324 1.03 1.755 1.6 3.66 1.704 5.717zm-10.112.096c-.05-.965-.214-1.949-.494-2.952s-.668-1.976-1.161-2.92a6.24 6.24 0 0 0-2.006-2.284 4.465 4.465 0 0 0-2.828-.792c-1.041.054-1.958.413-2.751 1.078s-1.388 1.489-1.784 2.476c-.394.988-.68 1.995-.857 3.023a13.544 13.544 0 0 0-.191 2.987c.069 1.346.319 2.642.753 3.894.432 1.251 1.151 2.36 2.154 3.327 1.005.966 2.204 1.414 3.6 1.342 1.396-.07 2.545-.638 3.446-1.703.9-1.062 1.495-2.238 1.786-3.526.29-1.29.401-2.605.333-3.95zM149.422 113.44c.14 2.742-.555 5.196-2.087 7.36-1.53 2.166-3.476 3.81-5.838 4.937a19.672 19.672 0 0 1-7.538 1.892 19.675 19.675 0 0 1-7.694-1.115c-2.463-.88-4.565-2.325-6.31-4.335-1.745-2.012-2.686-4.375-2.825-7.092-.138-2.716.535-5.22 2.023-7.51a15.615 15.615 0 0 1 5.816-5.356 17.828 17.828 0 0 1 7.585-2.124c1.98-.1 3.951.142 5.917.73 1.964.586 3.738 1.445 5.323 2.572 1.584 1.129 2.893 2.57 3.924 4.324a12.357 12.357 0 0 1 1.704 5.717zm-10.112.095c-.05-.965-.214-1.948-.494-2.952s-.668-1.976-1.161-2.919-1.162-1.703-2.006-2.284a4.465 4.465 0 0 0-2.828-.792c-1.041.054-1.958.413-2.751 1.077s-1.388 1.49-1.783 2.477c-.395.988-.68 1.995-.857 3.022a13.426 13.426 0 0 0-.191 2.988c.068 1.345.318 2.642.752 3.894.432 1.251 1.151 2.36 2.155 3.325 1.004.968 2.203 1.415 3.6 1.344s2.544-.639 3.445-1.703c.9-1.063 1.495-2.24 1.786-3.526.29-1.29.401-2.605.333-3.95z"/><path class="st2" d="M178.11 101.381c2.289 1.703 3.492 3.696 3.608 5.98.117 2.286-.713 4.251-2.486 5.894-1.775 1.644-3.969 2.531-6.584 2.665l-10.281.525.131 2.588 6.316 5.558-21.096 1.076 5.988-6.108-.696-13.633-6.588-5.658 24.752-1.263c2.335-.12 4.648.673 6.937 2.376zm-5.81 6.195c-.044-.838-.295-1.632-.753-2.385s-1.068-1.11-1.83-1.073l-7.959.407.367 7.197 7.579-.387c.914-.047 1.586-.444 2.02-1.19.432-.748.624-1.604.575-2.569z"/></g></g><g id="Layer_6"><path class="st5" d="m91.057 72.072-19.253-.348 5.171-5.475-3.589-6.09-6.757 4.569-.023 1.296 4.816 5.693-19.937-.361 6.201-5.494.257-14.182-5.998-5.714 19.937.36-5.02 5.515-.124 6.9 10.049-7.33-4.142-5.071 18.604.337-11.6 8.828L85.33 66.02l5.726 6.053zM112.597 72.462l-20.625-.373 6.201-5.494.257-14.182-5.998-5.715 20.625.374-6.201 5.494-.257 14.182 5.998 5.714zM150.913 47.757l-6.32 5.759-.354 19.52-8.882-.162-10.564-14.76-.158 8.73 6.26 5.95-17.384-.315 6.32-5.721.248-13.686-5.956-5.981 15.022.272L139.57 61.28l.142-7.853-6.26-5.986 17.46.316z"/><path class="st5" d="m184.542 60.836-6.364 6.026-.146 8.082-3.722-2.966c-2.907 1.854-6.532 2.742-10.879 2.663a19.225 19.225 0 0 1-5.799-1.001 18.61 18.61 0 0 1-5.119-2.63c-1.53-1.12-2.756-2.553-3.678-4.299-.922-1.745-1.364-3.66-1.326-5.745.048-2.668.938-5.099 2.668-7.292a16.6 16.6 0 0 1 6.4-4.976c2.539-1.123 5.117-1.662 7.734-1.614 4.144.075 7.73 1.298 10.764 3.666l2.983-2.501-.202 11.132c-1.107-2.13-2.835-3.904-5.186-5.319-2.351-1.416-4.709-2.145-7.073-2.188-2.313-.042-4.22.661-5.72 2.11-1.502 1.446-2.28 3.695-2.335 6.745-.044 2.415.686 4.557 2.192 6.427 1.504 1.872 3.298 2.825 5.383 2.863 1.677.03 3.29-.59 4.838-1.858l.027-1.486-6.752-6.225 21.312.386z"/><g><path class="st5" d="M81.943 115.356c-.753-2.278-2.276-4.078-4.57-5.399-2.295-1.321-4.712-1.916-7.25-1.787-2.438.125-4.432.951-5.983 2.482s-2.254 3.716-2.11 6.56c.143 2.792 1.247 4.95 3.31 6.474 2.063 1.524 4.427 2.217 7.093 2.082 2.437-.124 4.54-.951 6.307-2.48s2.71-3.63 2.828-6.31c1.005.738 1.546 1.869 1.624 3.392.084 1.65-.26 3.145-1.031 4.482-.773 1.337-1.843 2.423-3.213 3.257a18.656 18.656 0 0 1-4.54 1.966c-1.655.48-3.396.766-5.224.86a19.617 19.617 0 0 1-7.831-1.203c-2.555-.94-4.751-2.438-6.586-4.495-1.837-2.057-2.823-4.458-2.964-7.199-.129-2.538.557-4.922 2.06-7.15 1.503-2.226 3.486-3.994 5.953-5.304a18.466 18.466 0 0 1 7.811-2.174c3.91-.199 7.43.716 10.563 2.745l3.135-2.909.618 12.11zM116.216 115.134c.14 2.742-.555 5.196-2.087 7.36-1.53 2.166-3.477 3.812-5.837 4.938a19.685 19.685 0 0 1-7.54 1.891 19.67 19.67 0 0 1-7.693-1.115c-2.463-.88-4.566-2.325-6.31-4.335-1.745-2.011-2.686-4.375-2.825-7.092-.138-2.715.535-5.22 2.023-7.51a15.62 15.62 0 0 1 5.815-5.356 17.836 17.836 0 0 1 7.586-2.124c1.98-.1 3.951.143 5.916.73 1.964.587 3.74 1.445 5.324 2.572 1.584 1.129 2.893 2.571 3.924 4.324 1.03 1.755 1.6 3.66 1.704 5.717zm-10.112.096c-.05-.965-.214-1.949-.494-2.952s-.668-1.976-1.161-2.92a6.24 6.24 0 0 0-2.006-2.284 4.465 4.465 0 0 0-2.828-.792c-1.041.054-1.958.413-2.751 1.078s-1.388 1.489-1.784 2.476c-.394.988-.68 1.995-.857 3.023a13.544 13.544 0 0 0-.191 2.987c.069 1.346.319 2.642.753 3.894.432 1.251 1.151 2.36 2.154 3.327 1.005.966 2.204 1.414 3.6 1.342 1.396-.07 2.545-.638 3.446-1.703.9-1.062 1.495-2.238 1.786-3.526.29-1.29.401-2.605.333-3.95zM149.422 113.44c.14 2.742-.555 5.196-2.087 7.36-1.53 2.166-3.476 3.81-5.838 4.937a19.672 19.672 0 0 1-7.538 1.892 19.675 19.675 0 0 1-7.694-1.115c-2.463-.88-4.565-2.325-6.31-4.335-1.745-2.012-2.686-4.375-2.825-7.092-.138-2.716.535-5.22 2.023-7.51a15.615 15.615 0 0 1 5.816-5.356 17.828 17.828 0 0 1 7.585-2.124c1.98-.1 3.951.142 5.917.73 1.964.586 3.738 1.445 5.323 2.572 1.584 1.129 2.893 2.57 3.924 4.324a12.357 12.357 0 0 1 1.704 5.717zm-10.112.095c-.05-.965-.214-1.948-.494-2.952s-.668-1.976-1.161-2.919-1.162-1.703-2.006-2.284a4.465 4.465 0 0 0-2.828-.792c-1.041.054-1.958.413-2.751 1.077s-1.388 1.49-1.783 2.477c-.395.988-.68 1.995-.857 3.022a13.426 13.426 0 0 0-.191 2.988c.068 1.345.318 2.642.752 3.894.432 1.251 1.151 2.36 2.155 3.325 1.004.968 2.203 1.415 3.6 1.344s2.544-.639 3.445-1.703c.9-1.063 1.495-2.24 1.786-3.526.29-1.29.401-2.605.333-3.95z"/><path class="st5" d="M178.11 101.381c2.289 1.703 3.492 3.696 3.608 5.98.117 2.286-.713 4.251-2.486 5.894-1.775 1.644-3.969 2.531-6.584 2.665l-10.281.525.131 2.588 6.316 5.558-21.096 1.076 5.988-6.108-.696-13.633-6.588-5.658 24.752-1.263c2.335-.12 4.648.673 6.937 2.376zm-5.81 6.195c-.044-.838-.295-1.632-.753-2.385s-1.068-1.11-1.83-1.073l-7.959.407.367 7.197 7.579-.387c.914-.047 1.586-.444 2.02-1.19.432-.748.624-1.604.575-2.569z"/></g><g><path class="st5" d="M80.382 95.154c-.56.061-1.129.051-1.75-.131-1.226 1.478-2.747 2.844-4.499 3.032-1.647.175-4.767-1.832-5.017-4.18-.527-4.943 4.64-9.677 7.06-9.934.77-.082 1.807.34 2.487.728a3.21 3.21 0 0 1 1.267-.419c1.401-.15 2.102.769 2.233 1.995.197 1.859-.742 4.688-2.11 6.82.11.022.25.007.355-.003 2.067-.221 3.196-3.602 4.072-3.696.49-.051.991.32 1.05.881.027.245-.048.536-.198.802-1.169 2.003-2.707 3.867-4.95 4.105zM75.247 91.2c-.075-.7-.005-1.381.2-2.112-1.093.719-2.917 3.89-2.761 5.362.06.562.44.804 1 .745.701-.076 1.67-.638 2.554-1.654-.604-.68-.904-1.499-.993-2.34zm3.808-3.843c-.63.067-1.214 1.583-1.116 2.494.033.314.137.623.257.753.647-1.239 1.207-2.647 1.159-3.102-.008-.07-.047-.102-.086-.133a.445.445 0 0 0-.214-.012z"/><path class="st5" d="M91.924 82.371c.035-.004.102-.046.171-.053 1.122-.12 1.876 1.642 2.082 3.57.187 1.753-.007 3.935-.53 6.012 1.784-1.891 2.404-3.73 3.21-3.816.315-.033.983.25 1.04.777.097.91-1.105 2.278-1.724 3.124-.556.768-2.133 2.602-3.717 3.374-1.48 3.737-3.14 8.132-5.347 8.368-2.033.216-5.144-1.366-5.38-3.574-.265-2.49.65-8.223 3.678-15.068 3-6.77 7.534-13.138 9.881-13.388.877-.093 2.85 1.114 2.958 2.131a.7.7 0 0 1-.217.625c-1.029.996-3.844 4.522-6.105 7.918zm-3.962 8.398c-.018-.176-.003-.355-.021-.53-1.224 3.817-2.361 9.113-2.21 10.55.039.35.116.414.29.396.948-.102 2.534-3.852 3.464-6.432-.774-.945-1.359-2.442-1.523-3.984zm3.096-3.876c-.63.067-1.145 1.895-.962 3.613.056.525.144 1.012.332 1.454.708-2.345.956-4.002.882-4.703-.022-.21-.107-.344-.182-.371l-.07.007zM111.584 93.89c-.77.082-1.452.012-2.116-.237-.808-.268-2.606-2.168-2.694-3.329-.07-.984 1.375-4.399 2.775-7.561l-.526.057c-.56.06-1.65-.854-1.743-1.729-.1-.947.69-1.173 3.86-1.688 1.455-2.99 2.212-4.206 2.912-4.28 1.122-.119 2.74 1.09 2.83 1.932.04.386-.431 1.286-.577 1.586 1.726-.113 1.849.05 1.939.892.123 1.157-.518 2.785-1.536 2.893-.525.056-1.36-.139-2.105-.13-1.12 2.458-2.361 5.107-2.618 5.701-.484 1.115-.94 2.156-.87 2.823.05.456.351.635 1.018.565.806-.086 1.957-.599 3.052-1.637 1.575-1.514 2.475-4.055 3.35-4.15.457-.048.855.37.91.895.027.246-.017.5-.131.76-1.066 2.31-4.014 6.24-7.73 6.637z"/><path class="st5" d="M132.547 89.353c-1.166 1.365-2.53 3.21-4.496 3.384-.666.072-3.586-1.39-3.788-3.282-.056-.526.875-3.105 1.536-4.879-1.04 1.21-1.369 1.458-3.583 3.963-.947 1.093-1.972 2.443-2.808 3.914-.15.265-.384.396-.7.429-1.086.115-2.81-1.084-2.853-1.505-.33-3.084 8.79-21.637 11.231-23.35a.963.963 0 0 1 .445-.153c1.051-.113 2.748.84 2.848 1.788a.949.949 0 0 1-.213.661c-1.35 1.633-5.847 10.335-7.897 15.055 2.293-2.442 6.29-7.512 7.587-7.65 1.191-.126 2.074 1.836 2.22 3.202.052.492.023.885-.13 1.113-1.513 2.11-3.41 5.929-3.227 7.646.019.175.093.203.233.188 1.262-.135 4.103-4.407 4.735-5.467.208-.377.509-.55.789-.58.49-.052.995.356 1.055.915.022.211-.026.428-.144.655-.353.675-1.642 2.548-2.84 3.953z"/><path class="st5" d="M144.608 87.43c-1.574 1.869-3.569 3.11-5.461 3.311-1.472.157-4.414-.841-5.106-2.008-.258-.434-.431-1.054-.505-1.754-.519-4.872 3.82-10.05 6.941-10.381.175-.019.32 0 .494-.018.962.04 3.302 1.386 3.443 2.717.091 2.508-2.224 5.732-3.872 5.908-.7.074-1.987-.356-2.81-.764-.313 1.061-.336 1.842-.277 2.403.135 1.263.74 1.623 2.038 1.485 1.857-.198 3.699-1.883 5.635-4.995.212-.343.478-.513.723-.538.491-.053.96.358 1.02.919a.98.98 0 0 1-.084.54c-.146.3-.982 1.773-2.18 3.176zm-3.65-7.977c-.385.041-1.47 1.186-2.38 2.948.337.176.773.272 1.02.246.734-.078 1.632-2.301 1.562-2.967-.012-.105-.054-.172-.093-.203-.035.004-.073-.028-.109-.024z"/></g></g><g id="Layer_8"><path class="st5" d="M95.228 71.726c-2.347.25-6.878 6.616-9.879 13.386A52.7 52.7 0 0 0 83.3 90.53c-.728 1.034-1.656 2.417-2.954 2.555a1.215 1.215 0 0 1-.353.003c1.368-2.13 2.306-4.96 2.108-6.817-.13-1.227-.83-2.143-2.232-1.994a3.2 3.2 0 0 0-1.267.418c-.679-.388-1.716-.81-2.487-.727-2.417.257-7.585 4.99-7.059 9.93.25 2.347 3.37 4.354 5.018 4.179 1.752-.187 3.272-1.554 4.496-3.03.622.182 1.19.192 1.75.132.707-.075 1.336-.325 1.912-.676-.531 2.487-.688 4.465-.56 5.671.236 2.207 3.346 3.79 5.378 3.574 2.207-.235 3.866-4.629 5.346-8.366 1.584-.771 3.161-2.605 3.716-3.373.62-.845 1.82-2.214 1.723-3.125-.056-.526-.724-.809-1.039-.775-.807.086-1.426 1.924-3.21 3.815.525-2.076.717-4.259.53-6.01-.204-1.927-.958-3.69-2.08-3.571-.071.008-.137.05-.172.054 2.26-3.395 5.075-6.92 6.103-7.915a.703.703 0 0 0 .217-.625c-.108-1.018-2.079-2.225-2.956-2.132zm-21.6 23.494c-.562.06-.942-.184-1.001-.744-.157-1.472 1.668-4.643 2.76-5.362-.205.731-.274 1.412-.2 2.112.09.84.39 1.66.993 2.34-.884 1.015-1.851 1.58-2.552 1.654zm4.508-4.592c-.12-.128-.224-.436-.258-.752-.097-.91.486-2.426 1.117-2.493.07-.007.14-.015.214.012.04.032.077.063.085.133.048.455-.51 1.863-1.158 3.1zm7.828 10.578c-.175.019-.252-.044-.29-.394-.153-1.437.984-6.732 2.209-10.548.018.175.001.354.02.53.164 1.54.748 3.039 1.523 3.983-.93 2.58-2.515 6.328-3.462 6.43zm4.405-9.222c-.189-.44-.275-.927-.331-1.453-.183-1.717.33-3.544.961-3.611l.07-.008c.074.027.16.161.182.371.074.7-.176 2.358-.882 4.701zM145.79 82.822c-.245.026-.51.196-.722.538-1.937 3.111-3.777 4.796-5.635 4.994-1.296.138-1.902-.223-2.036-1.485-.06-.56-.036-1.342.275-2.403.824.408 2.11.84 2.81.764 1.648-.175 3.963-3.399 3.873-5.906-.142-1.331-2.482-2.677-3.444-2.716-.174.019-.32 0-.494.018-2.569.273-5.96 3.835-6.788 7.805l-.004.006c-.632 1.06-3.473 5.33-4.735 5.465-.14.015-.213-.012-.232-.188-.183-1.717 1.713-5.533 3.225-7.643.153-.23.183-.622.13-1.113-.145-1.367-1.027-3.328-2.219-3.201-1.297.138-5.293 5.205-7.585 7.647 2.05-4.719 6.546-13.42 7.895-15.052a.947.947 0 0 0 .214-.661c-.1-.947-1.797-1.9-2.849-1.788a.975.975 0 0 0-.444.154c-1.936 1.358-8.073 13.314-10.363 19.736-.439.682-.939 1.404-1.537 1.98-1.096 1.038-2.246 1.55-3.052 1.636-.665.071-.968-.109-1.016-.565-.071-.665.384-1.706.868-2.821.256-.595 1.498-3.243 2.619-5.7.743-.01 1.579.185 2.104.13 1.016-.109 1.659-1.736 1.536-2.893-.09-.842-.214-1.005-1.939-.892.146-.3.617-1.2.576-1.585-.09-.842-1.707-2.052-2.828-1.932-.702.074-1.458 1.289-2.912 4.28-3.17.513-3.96.74-3.86 1.686.094.876 1.183 1.788 1.743 1.729l.526-.056c-1.4 3.16-2.844 6.575-2.774 7.559.088 1.16 1.885 3.06 2.694 3.329.663.247 1.344.318 2.115.235 1.675-.178 3.192-1.078 4.453-2.221.466.519 1.777 1.31 2.672 1.214.315-.033.549-.165.698-.428.836-1.472 1.861-2.822 2.808-3.915 2.214-2.504 2.543-2.751 3.583-3.96-.661 1.77-1.593 4.35-1.537 4.876.202 1.893 3.122 3.354 3.788 3.284 1.966-.175 3.329-2.02 4.495-3.386.39-.458.789-.965 1.163-1.465.088.322.197.613.335.845.692 1.167 3.633 2.164 5.104 2.008 1.893-.202 3.887-1.441 5.46-3.31 1.198-1.404 2.032-2.874 2.178-3.174a.987.987 0 0 0 .084-.54c-.06-.56-.528-.971-1.02-.919zm-4.892-3.342c.035-.004.075.028.109.024.04.03.081.097.092.203.071.666-.826 2.888-1.562 2.966-.246.026-.68-.07-1.019-.247.912-1.761 1.995-2.905 2.38-2.946z"/></g><g id="Layer_11"><path class="st6" d="M82.201 94.67c.012-.057.019-.107.031-.166-.114.07-.242.115-.361.176.098.01.209.007.298-.002.011-.001.021-.006.032-.008zM68.403 67.577l3.429 4.053 5.118-5.419-2.399-4.071-6.125 4.141zM98.739 108.907a6.193 6.193 0 0 0-1.781 2.476 14.975 14.975 0 0 0-.86 3.022 13.544 13.544 0 0 0-.188 2.99c.068 1.344.316 2.643.75 3.893a8.2 8.2 0 0 0 1.403 2.503 4.66 4.66 0 0 0 2.53.574c1.397-.07 2.543-.638 3.444-1.702.902-1.063 1.496-2.239 1.786-3.528a14.51 14.51 0 0 0 .334-3.95 13.562 13.562 0 0 0-.495-2.952 15.024 15.024 0 0 0-1.159-2.919c-.187-.356-.423-.662-.66-.966a4.444 4.444 0 0 0-2.352-.517 4.546 4.546 0 0 0-2.752 1.076zM169.93 68.123l.027-1.487-6.751-6.225 16.308.296c-.455-.83-1.016-1.6-1.665-2.319l-.017.954a12.32 12.32 0 0 0-2.03-2.812 16.438 16.438 0 0 0-1.335-.915c-2.35-1.416-4.71-2.145-7.073-2.187-2.313-.043-4.22.66-5.72 2.109-1.502 1.446-2.28 3.695-2.334 6.745-.044 2.415.686 4.559 2.19 6.426.073.091.155.153.23.24 1.016.642 2.119 1.012 3.331 1.034 1.677.031 3.29-.59 4.84-1.859zM114.323 92.907c.571-.142 1.241-.455 1.935-.973-.098-.082-.213-.168-.28-.242-.509.462-1.07.864-1.655 1.215zM131.945 107.213a6.182 6.182 0 0 0-1.782 2.476 14.974 14.974 0 0 0-.859 3.022 13.534 13.534 0 0 0-.19 2.987c.068 1.345.318 2.644.752 3.894a8.201 8.201 0 0 0 1.404 2.504 4.655 4.655 0 0 0 2.528.575c1.398-.07 2.544-.639 3.445-1.704.902-1.06 1.496-2.238 1.786-3.526a14.51 14.51 0 0 0 .334-3.95 13.562 13.562 0 0 0-.495-2.952 15.024 15.024 0 0 0-1.159-2.92c-.187-.356-.423-.662-.66-.966-.719-.38-1.501-.56-2.352-.517a4.537 4.537 0 0 0-2.752 1.077zM163.632 106.073l.283 5.516 5.842-.299c.915-.047 1.585-.443 2.018-1.19.433-.747.625-1.604.576-2.57-.033-.64-.227-1.25-.504-1.842-.085-.007-.165-.026-.255-.021l-7.96.406z"/><path class="st1" d="m74.775 59.209-1.36.92 3.535 6.082-5.118 5.419.049.058 3.168.058 4.562-4.831zM150.151 53.636c-1.73 2.193-2.62 4.623-2.67 7.293-.037 2.083.406 3.999 1.328 5.744.922 1.745 2.148 3.18 3.679 4.3.06.044.125.082.186.126a12.765 12.765 0 0 1-2.042-2.834c-.923-1.745-1.366-3.661-1.328-5.744.049-2.67.939-5.1 2.67-7.293a16.597 16.597 0 0 1 6.402-4.976c2.535-1.124 5.113-1.661 7.73-1.614 4.144.075 7.732 1.297 10.765 3.664l1.104-.925.057-3.167-2.983 2.5c-3.033-2.367-6.622-3.589-10.765-3.664-2.617-.047-5.195.49-7.73 1.614a16.597 16.597 0 0 0-6.403 4.976zM67.215 125.235c2.063 1.523 4.428 2.216 7.095 2.082 2.436-.125 4.537-.952 6.305-2.482 1.377-1.19 2.237-2.74 2.614-4.63-.1-1.459-.631-2.554-1.607-3.27-.12 2.678-1.062 4.782-2.83 6.308-1.768 1.53-3.868 2.357-6.305 2.482-2.507.127-4.736-.507-6.71-1.845.413.495.89.95 1.438 1.355zM53.679 119.587c-.131-2.538.557-4.921 2.059-7.15 1.501-2.228 3.487-3.995 5.954-5.304 2.465-1.309 5.067-2.035 7.81-2.174 3.908-.2 7.43.714 10.563 2.743l1.473-1.365-.16-3.134-3.135 2.907c-3.134-2.029-6.656-2.943-10.564-2.743-2.742.139-5.344.865-7.81 2.174-2.467 1.31-4.452 3.076-5.954 5.304-1.501 2.229-2.19 4.612-2.059 7.15.14 2.743 1.127 5.141 2.963 7.2a16.625 16.625 0 0 0 2.464 2.23c-.212-.215-.437-.41-.641-.639-1.836-2.058-2.824-4.456-2.963-7.199zM85.8 118.33c-.14-2.715.535-5.22 2.021-7.51a15.637 15.637 0 0 1 5.817-5.356 17.811 17.811 0 0 1 7.584-2.124c1.982-.101 3.955.14 5.92.73 1.96.586 3.737 1.443 5.32 2.57.015.01.028.022.042.033a13.476 13.476 0 0 0-1.864-1.625c-1.583-1.127-3.36-1.984-5.321-2.57a17.378 17.378 0 0 0-5.92-.73 17.811 17.811 0 0 0-7.583 2.124 15.637 15.637 0 0 0-5.817 5.355c-1.487 2.29-2.16 4.796-2.022 7.512.057 1.124.287 2.174.62 3.177.122.254.214.535.29.83a11.462 11.462 0 0 0 1.915 3.081c.77.887 1.62 1.645 2.528 2.312-.235-.24-.481-.462-.705-.72-1.744-2.009-2.687-4.372-2.826-7.088z"/><path class="st1" d="M105.662 112.233c.28 1.005.446 1.988.495 2.952a14.51 14.51 0 0 1-.334 3.95c-.29 1.29-.884 2.465-1.786 3.528-.901 1.064-2.047 1.632-3.445 1.702a4.66 4.66 0 0 1-2.529-.574c.231.284.48.56.753.823 1.002.967 2.205 1.414 3.599 1.343 1.397-.07 2.543-.638 3.445-1.702.901-1.063 1.495-2.239 1.786-3.528a14.51 14.51 0 0 0 .334-3.95 13.562 13.562 0 0 0-.495-2.952 15.025 15.025 0 0 0-1.16-2.92 6.225 6.225 0 0 0-2.008-2.283c-.153-.105-.313-.19-.474-.274.237.304.473.61.66.966.492.942.88 1.916 1.16 2.919zM138.868 110.539c.28 1.004.446 1.988.495 2.952a14.51 14.51 0 0 1-.334 3.95c-.29 1.288-.884 2.465-1.786 3.526-.901 1.065-2.047 1.634-3.445 1.704a4.655 4.655 0 0 1-2.528-.575c.23.284.479.56.752.822 1.002.97 2.205 1.416 3.599 1.345 1.397-.07 2.543-.639 3.445-1.704.901-1.061 1.495-2.238 1.786-3.526s.402-2.605.334-3.95a13.561 13.561 0 0 0-.495-2.952 15.025 15.025 0 0 0-1.16-2.92 6.242 6.242 0 0 0-2.008-2.284c-.153-.106-.314-.19-.474-.274.237.304.473.61.66.967.492.942.88 1.916 1.16 2.919z"/><path class="st1" d="M119.005 116.635c-.138-2.716.536-5.22 2.022-7.512a15.663 15.663 0 0 1 5.817-5.355 17.831 17.831 0 0 1 7.584-2.122c1.982-.101 3.955.14 5.92.728 1.96.587 3.737 1.445 5.32 2.572.015.01.028.022.042.032a13.476 13.476 0 0 0-1.864-1.624c-1.583-1.127-3.36-1.985-5.321-2.572a17.415 17.415 0 0 0-5.92-.728 17.831 17.831 0 0 0-7.583 2.123 15.663 15.663 0 0 0-5.817 5.355 12.333 12.333 0 0 0-1.936 5.308c-.419 2.267.182 4.744.735 6.034a11.445 11.445 0 0 0 2.004 3.26 15.308 15.308 0 0 0 2.525 2.307c-.234-.238-.48-.46-.702-.716-1.744-2.009-2.687-4.374-2.826-7.09zM171.775 110.1c-.433.747-1.103 1.143-2.018 1.19l-7.569.385.086 1.68 9.305-.473c.915-.047 1.586-.443 2.019-1.19.433-.747.625-1.604.575-2.57a5.02 5.02 0 0 0-.751-2.384c-.404-.664-1.59-2.004-2.23-2.051.447.586 1.138 1.642 1.161 2.97.017.968-.145 1.696-.578 2.443zM154.886 107.473l-1.822-1.563.695 13.604-5.99 6.108 3.562-.181 4.25-4.335zM179.79 102.803c-.463-.51-1-1-1.627-1.467-2.289-1.703-4.603-2.494-6.938-2.375l-24.752 1.262 1.852 1.59 24.723-1.26c2.27-.116 4.518.645 6.743 2.25z"/><path class="st5" d="m96.237 37.391.402-1.376-.888-6.607-1.008-2.438.663 8.893-.64 2.187zM113.601 36.516l3.504-5.83-2.84 2.38c-.36 2.741-3.703 3.308-5.198 2.86.915 2.31 4.534.59 4.534.59zM105.36 29.555l1.382-1.386-.662-1.398-2.115 1.868c.687 3.086-2.288 6.015-4.086 5.523 1.347 2.092 5.454-.1 5.482-4.607z"/><path class="st1" d="m93.691 83.989-.001-.003-.003.004zM90.369 91.984s.334.773 1.155.746c.427-1.413.742-2.274.764-2.978.07-2.277-1.219-2.84-1.219-2.84.5.485-.122 3.02-.7 5.072zM93.587 91.925c.852-.012 2.747-1.734 3.102-2.58.255-.608.422-1.269.107-1.235-.268.028-.519.264-.795.618-.31.419-1.459 2.01-2.414 3.197zM84.055 96.096c-.577.351-1.206.601-1.912.676-.1.011-.204.003-.305.009-.195 1.415-.25 2.59-.165 3.394.128 1.204 1.12 2.209 2.318 2.85-.256-.39-.448-.806-.496-1.258-.128-1.206.028-3.185.56-5.67zM77.283 85.239c.771-.082 2.463.66 3.142 1.049.367-.217.811-.37 1.267-.418.12-.013.23-.008.34-.005-.233-1.015-.922-1.72-2.163-1.587-.455.049-.9.201-1.267.418-.679-.388-1.716-.81-2.487-.727-2.417.257-7.585 4.99-7.059 9.93.152 1.427 1.366 2.72 2.664 3.481-.444-.575-1.133-1.995-1.205-2.67-.526-4.942 4.351-9.214 6.768-9.471zM89.426 94.777s-.546 1.572-1.054 2.683c-.916 2.33-1.505 3.089-2.56 3.716.503.222 1.474-.065 2.283-.668.764-.57 2.025-3.2 2.371-4.672-.492-.335-1.04-1.059-1.04-1.059z"/><path class="st1" d="M73.33 95.231c.496.465.683.606 1.12.836.497.263 2.132-.675 3.016-1.691-.604-.68-1.226-1.692-1.316-2.534-.074-.7-.033-1.916.897-3.853a8.953 8.953 0 0 0-1.66 1.125c-.184.258-.52 2.362.22 3.57.15.31.331.61.573.882-.515.591-1.434 1.513-2.85 1.665zM111.772 82.55s-1.306.11-2.282.24c-1.322 3.005-2.84 6.63-2.774 7.559.088 1.16 1.884 3.058 2.693 3.328-.464-.59-.832-1.231-.87-1.736-.07-.984 1.834-6.229 3.233-9.39zM113.022 80.545c1.454-2.991 2.092-3.728 2.793-3.803.294-.03.622.033.948.154-.275-.822-1.729-1.856-2.77-1.745-.702.074-1.458 1.289-2.912 4.28-3.17.513-3.96.74-3.86 1.686.046.431.334.871.68 1.2-.366-.556.45-.869.84-1.006.389-.137 2.272-.44 4.281-.766zM125.739 84.603c-.845 1.71-1.875 4.912-1.446 5.198.28 1.024 1.284 1.896 2.211 2.423-.248-.359-1.926-.71-.073-4.387.771-1.809 1.933-4.222-.692-3.234zM129.797 90.05c1.014-.465 1.705-1.138 2.523-1.745 1.348-1.002 2.812-3.077 3.247-4.366 1.452-4.307 4.104-5.448 6.673-5.721.174-.019.32 0 .493-.018.34.014.85.196 1.375.476-.64-1.087-2.393-2.035-3.197-2.068-.174.019-.32 0-.494.018-2.569.273-5.96 3.835-6.788 7.805l-.004.006c-.31.52-1.153 1.813-2.08 3.012-.952 1.234-2.06 2.416-2.817 2.43-.038 0 .735.325 1.07.172zM142.37 86.802c-.985.92-1.967 1.388-2.937 1.552-.808.137-1.585-.34-1.567-.313.772 1.204 2.415 1.097 3.392.586 1.054-.621 2.126-1.436 2.787-2.484s1.901-2.98 2.764-2.402c0-.258-.127-.935-1.02-.919-.874.016-2.32 2.83-3.418 3.98zM125.843 83.18c.866-.736 4.415-4.1 5.737-3.82-.397-.919-1.028-1.684-1.786-1.603-.434.046-1.175.652-2.05 1.521-2.29 2.466-4.08 4.508-5.535 6.126 1.05-.227 2.19-.784 3.634-2.224zM127.47 67.903a.975.975 0 0 0-.445.153 3.173 3.173 0 0 0-.472.458c-1.5 1.374-5.819 9.844-7.319 13.11-1.242 2.706-2.392 5.666-2.572 6.17-.439.68-.945 1.397-1.537 1.979-1.103 1.082-3.211 2.043-3.915 1.44.687.55 1.925.68 2.366.52 1.12-.402 3.387-1.461 4.948-3.774 1.495-4.195 6.747-13.315 9.286-17.74.73-1.23 2.138-.693 2.494-.575-.151-.93-1.8-1.851-2.835-1.741z"/><path class="st1" d="M138.518 82.426c.223 1.015 1.088 1.01 1.333.983.736-.078 1.3-.596 1.618-1.185.5-.925.104-1.869-.368-2.566-.716 3.333-1.68 3.164-2.583 2.768zM124.848 58.145l10.483 14.691 1.328.001-9.438-13.223zM92.212 73.615c-2.486 3.13-4.88 7.023-6.863 11.497a51.56 51.56 0 0 0-1.41 3.573c-.647 2.152-1.798 3.443-3.32 4.469.017.004 2.927-.608 4.248-2.566.844-1.286 1.278-2.746 2.124-4.66 2.348-5.296 6.655-12.558 9.876-13.636 0 0-1.99-2.031-4.655 1.323z"/><g><path class="st1" d="m57.911 51.637.005.004-.256 14.184-6.203 5.493 3.548.064 4.477-3.966.257-14.183-1.748-1.664zM51.916 45.927l1.669 1.589.154.003v-.001l.336.007h.003l16.447.295 1.395-1.533z"/></g><g><path class="st1" d="m98.403 52.374-.257 14.182-3.693 3.274.315-.007a6.508 6.508 0 0 1 1.774.205l.97.25 2.457-2.13.257-14.182-1.649-1.57-.174-.022zM92.405 46.66l1.725 1.593.527.006 16.649.302 1.724-1.527z"/></g><g><path class="st1" d="m115.94 48.666-.02-.021 14.383.26-1.184-1.58-15.022-.272 1.61 1.617zM120.047 52.981l-.243 13.738-6.318 5.721 3.51.064 4.631-4.193.253-13.397z"/></g><g><path class="st1" d="m139.686 53.403-.113 7.78 1.808 2.413.13-8.515-1.819-1.74zM133.426 47.402 135.149 49l14.061.247 1.677-1.528z"/></g><g><path class="st1" d="m169.95 66.63.007.006-.026 1.487c-1.55 1.27-3.163 1.89-4.84 1.86-1.212-.023-2.315-.393-3.332-1.036 1.458 1.698 3.171 2.591 5.155 2.627 1.677.031 3.29-.59 4.84-1.859l.026-1.487-1.767-1.629-.063.03zM163.206 60.411l1.736 1.601 17.959.315 1.616-1.529z"/></g><path class="st1" d="M79.327 87.512s.703.873.504 1.967c-.153.844-.466 1.516-.887 2.314 0 0-.614-.747-.808-1.165 0 0 1.218-2.413 1.191-3.116zM88.247 92.464s.693-5.58 2.865-7.764c1.947-1.958 2.728-.252 2.728-.252s-.717-2.582-1.976-2.05c-1.258.532-4.854 6.491-3.617 10.066z"/><path class="st5" d="M35.83 78.468c-.522.273-.234 1.068.343.944l6.428-1.38a4.857 4.857 0 0 0 3.496-5.871s-1.94-5.064-3.012-7.626c-.471-1.129-.527-.63-.426-.165l1.444 6.653c.533 2.498-.507 3.374-1.615 3.954l-6.657 3.49zM46.827 84.474a2.69 2.69 0 0 1 2.735 2.817l-.252 5.335c-.028.603-.898.66-1.005.066l-1.478-8.218zM190.651 42.065l-6.178 7.939a.576.576 0 0 0-.118.412l.32 3.151c.03.298.283.523.582.518l.656-.012a.576.576 0 0 0 .51-.33l5.204-11.08c.291-.621-.554-1.14-.976-.598zM196.794 64.983l17.841 5.774c.299.096.212.54-.101.517l-17.892-1.318a.576.576 0 0 1-.533-.564l-.067-3.85a.576.576 0 0 1 .752-.559zM156.457 87.486l5.035-6.123a.576.576 0 0 1 .417-.21l4.481-.217c.584-.028.833.73.347 1.054l-9.516 6.34c-.55.367-1.184-.333-.764-.844z"/><g><path class="st1" d="m76.795 51.346-10.013 7.291-.053 2.961 11.594-8.446zM72.619 46.302l1.342 1.582.48.01 14.782.267 2-1.522z"/></g></g></g></switch></svg>