<svg id="Layer_1" data-name="Layer 1" xmlns="http://www.w3.org/2000/svg" viewBox="0 0 500 500">
	<style>
		path { fill: black; }
		@media (prefers-color-scheme: dark) {
			path { fill: white; }
		}
	</style>
	<path d="M452.315,152.307,177.335,291.074l-8.091-16.256,35.742-18.612C124.945,251.3,78.639,209.77,78.639,209.77l66.326-24.834c34.9,14.011,80.074,16.906,80.074,16.906-23.372-10.73-24.317-29.89-35.357-42.495l59.364-17.059c34.27,27.639,109.949,21.489,140.013,17.724l54.879-28.238a234.351,234.351,0,0,0-13.622-25.293,193.642,193.642,0,0,0-62.753-62.872,150.4,150.4,0,0,0-32.77-15.2L297.232,61.256,297.96,20.5c-14.258-3.361-6.369-1.019-22.7-1.019q-63.384,0-113.328,29.5c-33.31,19.666-65.156,46.122-87.089,81.48-10.156,16.687-19.944,33.71-27.258,53.166C40.265,203.1,37.405,224.012,34.768,244.28s.218,41.574,2.259,61.842a177.157,177.157,0,0,0,15.84,57.805A193.468,193.468,0,0,0,87.3,414.878a176.119,176.119,0,0,0,39.623,32.132L155.3,412.8l-10.657,44.9a227.31,227.31,0,0,0,46.835,17.663,244.909,244.909,0,0,0,61.225,7.747,235.8,235.8,0,0,0,89.568-17.58,199.122,199.122,0,0,0,74.94-53.339,188.048,188.048,0,0,0,32.9-55.416,277.73,277.73,0,0,0,15.85-64.357,307.305,307.305,0,0,0-2.442-98.331A273.384,273.384,0,0,0,452.315,152.307ZM346.393,351.733,320.2,371.45c-.667-5.219-.763-12.223.05-21.64,0,0-6.233,13.877-8.044,27.657l-35.74,26.9c-5.821-19.175.053-55.362.88-83.931,0,0-11.281,50.072-14.29,91.241l-50.531,36.348s-40.927-80.322-3.8-154.573L397.175,190.773S334.678,287.62,346.393,351.733Z"/>
</svg>
