<svg xmlns="http://www.w3.org/2000/svg" xmlns:xlink="http://www.w3.org/1999/xlink" width="100" height="28" role="img" aria-label="RAILWAY"><title>RAILWAY</title><g shape-rendering="crispEdges"><rect width="100" height="28" fill="#853BCE"/></g><g fill="#fff" text-anchor="middle" font-family="Verdana,Geneva,DejaVu Sans,sans-serif" text-rendering="geometricPrecision" font-size="100"><svg xmlns="http://www.w3.org/2000/svg" width="14px" height="14px" style="margin: 4px 6px; display: inline-block;" viewBox="0 0 1024 1024" x="9" y="7"><path d="M4.75613 438.175C2.31667 455.272 0.72941 472.48 0 489.735H777.799C775.083 484.429 771.434 479.645 767.754 474.963C634.784 303.172 563.256 318.067 460.935 313.703C426.821 312.3 403.686 311.736 267.898 311.736C195.221 311.736 116.21 311.921 39.2697 312.126C29.3105 339.01 19.7044 365.068 15.0273 386.266H413.598V438.175H4.75613ZM783.929 541.696H0.399785C1.21983 555.547 2.5114 569.213 4.37699 582.695H727.767C760.015 582.695 778.066 564.398 783.929 541.696ZM45.0172 724.306C45.0172 724.306 164.941 1018.77 511.46 1024C718.572 1024 896.531 900.994 977.367 724.306H45.0172Z" fill="#FFFFFF"></path><path d="M511.454 0C319.953 0 153.311 105.16 65.31 260.612C134.081 260.468 268.014 260.386 268.014 260.386H268.045V260.335C426.354 260.335 432.238 261.042 463.163 262.333L482.312 263.039C549.012 265.263 630.995 272.423 695.502 321.229C730.517 347.7 781.073 406.125 811.21 447.749C839.071 486.248 847.086 530.505 828.143 572.907C810.707 611.877 773.191 635.122 727.76 635.122H16.6897C16.6897 635.122 20.9226 653.066 27.2703 672.873H997.902C1015.14 621.06 1023.95 566.82 1024 512.218C1024.01 229.355 794.532 0 511.454 0Z" fill="#FFFFFF"></path></svg><text transform="scale(.1)" x="607.5" y="175" textLength="595" fill="#fff" font-weight="bold">RAILWAY</text></g></svg>