<svg id="Layer_1" data-name="Layer 1" xmlns="http://www.w3.org/2000/svg" xmlns:xlink="http://www.w3.org/1999/xlink" viewBox="0 0 770 500"><defs><style>.cls-1{isolation:isolate;}.cls-18,.cls-19,.cls-2,.cls-20,.cls-21,.cls-3{fill:#f9fcff;}.cls-13,.cls-14,.cls-15,.cls-18,.cls-19,.cls-2,.cls-20,.cls-21,.cls-4{stroke:#000;}.cls-13,.cls-14,.cls-15,.cls-19,.cls-2,.cls-20,.cls-21,.cls-4{stroke-miterlimit:10;}.cls-15,.cls-2,.cls-4{stroke-width:1.841px;}.cls-4{fill:none;}.cls-5{clip-path:url(#clip-path);}.cls-6{clip-path:url(#clip-path-2);}.cls-7{fill:#221f1f;}.cls-13,.cls-14,.cls-15,.cls-8{fill:#fff;}.cls-9{clip-path:url(#clip-path-3);}.cls-10{clip-path:url(#clip-path-4);}.cls-11{clip-path:url(#clip-path-5);}.cls-12{clip-path:url(#clip-path-6);}.cls-13,.cls-20{stroke-width:1.797px;}.cls-14{stroke-width:1.763px;}.cls-16{clip-path:url(#clip-path-7);}.cls-17{clip-path:url(#clip-path-8);}.cls-18{stroke-linejoin:round;stroke-width:1.614px;}.cls-19{stroke-width:1.614px;}.cls-21{stroke-width:1.636px;}</style><clipPath id="clip-path"><path d="M534.8,277.816l-17.073-.289q-.447-.007-.894-.022c-.3-.01-.6-.021-.895-.035s-.6-.031-.9-.049-.6-.04-.9-.063q-2.048-.158-4.073-.451t-4.032-.72q-2.007-.428-3.991-.988t-3.947-1.258q-1.6-.57-3.161-1.225t-3.071-1.4q-1.514-.744-2.98-1.572T486.005,268l14.9-.386q1.515.978,3.083,1.866t3.185,1.683q1.617.8,3.283,1.5t3.377,1.313q2.1.745,4.217,1.346t4.264,1.059q2.142.458,4.307.771t4.35.483q.48.037.96.067c.319.019.638.037.957.052s.638.027.957.038S534.483,277.811,534.8,277.816Z"/></clipPath><clipPath id="clip-path-2"><path d="M497.383,154.808l15.609-8.371a62.961,62.961,0,0,0-6.659,4.125,65.19,65.19,0,0,0-6.189,4.983,70.71,70.71,0,0,0-5.712,5.844,79.371,79.371,0,0,0-5.232,6.71q-1.213,1.772-2.362,3.63t-2.228,3.8q-1.08,1.946-2.09,3.976t-1.949,4.147q-.939,2.124-1.755,4.279t-1.51,4.346q-.694,2.19-1.265,4.415t-1.018,4.484q-.447,2.261-.771,4.532t-.521,4.555q-.2,2.283-.266,4.581t-.01,4.611q.046,2.307.278,4.574t.64,4.492q.411,2.226,1,4.409t1.352,4.323q.806,2.235,1.755,4.361t2.043,4.148q1.092,2.021,2.33,3.935t2.616,3.722q1.258,1.638,2.6,3.169t2.774,2.958q1.43,1.427,2.947,2.749t3.124,2.542l-14.644.57q-1.5-1.139-2.922-2.373t-2.756-2.566q-1.338-1.332-2.594-2.761t-2.432-2.958q-1.29-1.689-2.446-3.475t-2.178-3.673q-1.021-1.887-1.909-3.872t-1.64-4.071q-.713-2-1.262-4.036t-.933-4.116q-.382-2.077-.6-4.194t-.258-4.27q-.054-2.16.012-4.3t.252-4.278q.185-2.133.489-4.253t.723-4.232q.42-2.111.955-4.189t1.185-4.123q.649-2.046,1.415-4.06t1.644-4q.879-1.977,1.826-3.875t1.957-3.715q1.011-1.818,2.087-3.555t2.212-3.392A74.2,74.2,0,0,1,480,168.8a66.4,66.4,0,0,1,5.35-5.467,61.524,61.524,0,0,1,5.8-4.662A59.043,59.043,0,0,1,497.383,154.808Z"/></clipPath><clipPath id="clip-path-3"><path d="M447.6,172.71,441.4,185.061q.258-.513.46-1.031a10.755,10.755,0,0,0,.346-1.041,10.224,10.224,0,0,0,.234-1.053,10.009,10.009,0,0,0,.12-1.064,9.185,9.185,0,0,0-.083-1.985,9.351,9.351,0,0,0-.511-1.924,10.729,10.729,0,0,0-.934-1.861,13.5,13.5,0,0,0-1.352-1.8,13.087,13.087,0,0,0-1.783-1.669,17.133,17.133,0,0,0-2.229-1.46,23.131,23.131,0,0,0-2.67-1.252,32.189,32.189,0,0,0-3.107-1.042q-1.074-.31-2.206-.557t-2.326-.427q-1.192-.181-2.448-.3t-2.572-.167l-.24-.01-.235-.008-.229-.006-.222-.006q-.429-.009-.81-.01c-.255,0-.493,0-.717.009s-.431.014-.623.026-.368.025-.528.042l3.606-14.27c.177-.019.372-.034.584-.047s.442-.022.688-.028.511-.01.792-.01.58,0,.9.011l.246.006.252.008.26.009.266.01q1.455.057,2.841.185t2.7.328q1.319.2,2.57.472t2.437.614a35.488,35.488,0,0,1,3.434,1.149,25.743,25.743,0,0,1,2.951,1.381,18.757,18.757,0,0,1,2.464,1.612,14.328,14.328,0,0,1,1.972,1.84,14.987,14.987,0,0,1,1.5,1.98,11.893,11.893,0,0,1,1.033,2.053,10.238,10.238,0,0,1,.566,2.123,10.128,10.128,0,0,1,.094,2.191,11.066,11.066,0,0,1-.132,1.174,11.533,11.533,0,0,1-.257,1.161q-.16.577-.382,1.149C447.962,171.954,447.794,172.333,447.6,172.71Z"/></clipPath><clipPath id="clip-path-4"><path d="M331.782,176.273q1.311,3.156,2.62,6.311l.493,1.188.243.585.478,1.153.47,1.13.231.557.456,1.1q-.1-.238-.208-.472c-.073-.157-.15-.312-.231-.467s-.164-.308-.252-.461-.18-.3-.275-.456a10.484,10.484,0,0,0-1.174-1.524,11.326,11.326,0,0,0-1.469-1.324,13.389,13.389,0,0,0-1.767-1.125,16.868,16.868,0,0,0-2.068-.925q-.714-.274-1.47-.489t-1.554-.369q-.8-.155-1.639-.248t-1.725-.123l-.2,0-.192,0-.186,0h-.179c-.176,0-.343,0-.5,0s-.306.01-.444.018-.268.018-.387.03-.23.026-.331.043l-6.693-12.841c.111-.018.233-.034.365-.047s.276-.025.429-.034.316-.015.49-.019.358-.006.553-.005h.2l.205,0,.212,0,.219.006q.977.033,1.906.136t1.811.273q.883.171,1.718.408t1.624.539a18.5,18.5,0,0,1,2.284,1.021,14.8,14.8,0,0,1,1.952,1.241,12.448,12.448,0,0,1,1.623,1.461,11.567,11.567,0,0,1,1.3,1.681q.158.25.3.5t.278.509c.089.171.174.342.255.515S331.71,176.1,331.782,176.273Z"/></clipPath><clipPath id="clip-path-5"><path d="M473.656,199.4l-8.712,9.839q-.8.9-1.651,1.755t-1.75,1.652q-.9.8-1.852,1.548t-1.953,1.445l7.959-9.172q1.107-.77,2.157-1.6t2.046-1.71q.995-.882,1.933-1.823T473.656,199.4Z"/></clipPath><clipPath id="clip-path-6"><path d="M368.332,203.251l1.516,9.484q-.2.351-.4.7c-.136.232-.274.464-.415.694s-.283.46-.429.689-.293.457-.444.684q-1.024,1.534-2.166,2.946t-2.4,2.7q-1.259,1.288-2.634,2.452t-2.866,2.2l-2.762-8.117q1.648-1.148,3.17-2.433t2.913-2.709q1.392-1.424,2.655-2.983t2.4-3.254q.25-.375.491-.755t.475-.76q.233-.382.458-.767T368.332,203.251Z"/></clipPath><clipPath id="clip-path-7"><path d="M144.266,321.926l3.55,1.711c5.943,6.94,17.1,13.872,24.976,17.223,9.161,3.9,10.452,3.781,19.734,4.288l-13,.852C167.3,341.312,150.3,334.764,144.266,321.926Z"/></clipPath><clipPath id="clip-path-8"><path d="M107.78,318.588l13.677,3.348c4.126,5.207,10.026,11.056,16.664,12.843l-13.054-1.786C117.235,330.885,112.505,324.552,107.78,318.588Z"/></clipPath></defs><title>NarrowOneLogo</title><polygon points="501.515 266.406 486.618 266.947 487.951 259.02 508.173 247.05 501.515 266.406"/><g class="cls-1"><polygon points="686.772 217.119 659.68 223.709 682.366 159.059 711.778 145.391 686.772 217.119"/><polygon points="671.011 182.028 643.277 192.679 647.965 190.607 676.184 179.741 671.011 182.028"/><polygon points="627.008 208.223 603.388 216.407 637.873 153.55 666.117 136.622 627.008 208.223"/><polygon points="711.872 271.717 678.68 279.958 674.697 269.714 706.102 266.788 711.872 271.717"/><polygon points="590.629 282.079 570.315 283.221 555.236 141.483 573.641 123.469 590.629 282.079"/><polygon points="620.467 286.719 597.273 287.414 593.263 272.38 615.985 270.087 620.467 286.719"/><polygon points="612.268 286.459 589.863 287.179 570.315 283.221 590.629 282.079 612.268 286.459"/><polygon points="626.17 288.306 602.748 288.273 597.273 287.414 620.467 286.719 626.17 288.306"/><polygon points="669.151 288.232 639.774 293.804 629.901 235.696 656.382 229.534 669.151 288.232"/><polygon points="702.989 300.58 672.264 298.682 639.774 293.804 669.151 288.232 702.989 300.58"/></g><polygon class="cls-2" points="574.62 124.576 619.347 131.535 627.07 207.867 665.761 138.949 674.429 171.399 671.375 182.185 676.573 179.957 686.727 217.457 712.356 146.396 749.449 145.759 710.455 275.415 706.139 264.034 708.062 282.711 702.481 299.713 666.578 293.898 656.195 229.517 625.668 287.302 619.619 286.282 615.33 269.599 611.423 285.927 589.837 281.296 574.62 124.576"/><path class="cls-3" d="M542.328,139.743c.37.012.742.027,1.114.046s.747.04,1.121.065.751.053,1.127.084.755.065,1.133.1q1.71.168,3.355.425t3.225.6q1.581.345,3.1.78t2.978.955l-5.942,7.683,9.684-6.185q1.187.543,2.328,1.148t2.24,1.275q1.1.669,2.151,1.4T572,149.66a58.12,58.12,0,0,1,4.848,4.322,56.987,56.987,0,0,1,4.3,4.806,58.477,58.477,0,0,1,3.76,5.289,61.65,61.65,0,0,1,3.215,5.769q1.465,3.015,2.665,6.19t2.131,6.507q.931,3.334,1.593,6.831t1.051,7.158q.389,3.662.507,7.311t-.038,7.289q-.156,3.639-.584,7.266t-1.133,7.243q-.461,2.489-1.043,4.9t-1.288,4.752q-.705,2.339-1.532,4.6t-1.778,4.447q-.951,2.185-2.063,4.262t-2.389,4.042q-1.277,1.968-2.717,3.823t-3.046,3.6a59.966,59.966,0,0,1-4.941,4.615,55.49,55.49,0,0,1-5.307,3.916,53.462,53.462,0,0,1-11.71,5.713q-2.626.908-5.275,1.581t-5.323,1.111q-2.674.44-5.374.642t-5.426.17c-.343,0-.687-.011-1.03-.02s-.689-.023-1.033-.038-.69-.034-1.035-.055-.691-.044-1.037-.071q-2.186-.17-4.35-.483t-4.307-.771q-2.144-.458-4.264-1.059t-4.217-1.346q-1.713-.611-3.377-1.313t-3.283-1.5q-1.617-.795-3.185-1.683t-3.083-1.866L507.29,248.8,496.915,264.84q-1.607-1.219-3.124-2.542t-2.947-2.749q-1.431-1.426-2.774-2.958t-2.6-3.169q-1.38-1.809-2.616-3.722t-2.33-3.935q-1.094-2.02-2.043-4.148t-1.755-4.361q-.764-2.139-1.352-4.323t-1-4.409q-.409-2.226-.64-4.492t-.278-4.574q-.06-2.313.01-4.611t.266-4.581q.2-2.285.521-4.555t.771-4.532q.447-2.259,1.018-4.484t1.265-4.415q.693-2.19,1.51-4.346t1.755-4.279q.939-2.115,1.949-4.147t2.09-3.976q1.08-1.944,2.228-3.8t2.362-3.63a79.074,79.074,0,0,1,5.511-7.028A70.154,70.154,0,0,1,500.753,155a65.029,65.029,0,0,1,6.567-5.121,62.752,62.752,0,0,1,7.087-4.174,55.094,55.094,0,0,1,13.393-4.724,57.7,57.7,0,0,1,7.123-1.052A62.618,62.618,0,0,1,542.328,139.743Z"/><path class="cls-4" d="M542.328,139.743c.37.012.742.027,1.114.046s.747.04,1.121.065.751.053,1.127.084.755.065,1.133.1a52.956,52.956,0,0,1,12.658,2.763l-5.942,7.683,9.684-6.185q1.187.543,2.328,1.148t2.24,1.275q1.1.669,2.151,1.4T572,149.66a58.12,58.12,0,0,1,4.848,4.322,56.987,56.987,0,0,1,4.3,4.806,58.477,58.477,0,0,1,3.76,5.289,61.65,61.65,0,0,1,3.215,5.769q1.465,3.015,2.665,6.19t2.131,6.507q.931,3.334,1.593,6.831t1.051,7.158q.389,3.662.507,7.311t-.038,7.289q-.156,3.639-.584,7.266t-1.133,7.243q-.461,2.489-1.043,4.9t-1.288,4.752q-.705,2.339-1.532,4.6t-1.778,4.447a56.517,56.517,0,0,1-10.215,15.728,59.966,59.966,0,0,1-4.941,4.615,55.49,55.49,0,0,1-5.307,3.916,53.462,53.462,0,0,1-11.71,5.713q-2.626.908-5.275,1.581t-5.323,1.111q-2.674.44-5.374.642t-5.426.17c-.343,0-.687-.011-1.03-.02s-.689-.023-1.033-.038-.69-.034-1.035-.055-.691-.044-1.037-.071q-2.186-.17-4.35-.483t-4.307-.771q-2.144-.458-4.264-1.059t-4.217-1.346a62.47,62.47,0,0,1-12.928-6.36l1.509-8.475-5.5,5.7q-1.607-1.219-3.124-2.542t-2.947-2.749q-1.431-1.426-2.774-2.958t-2.6-3.169q-1.38-1.809-2.616-3.722t-2.33-3.935q-1.094-2.02-2.043-4.148t-1.755-4.361q-.764-2.139-1.352-4.323t-1-4.409q-.409-2.226-.64-4.492t-.278-4.574q-.06-2.313.01-4.611t.266-4.581q.2-2.285.521-4.555t.771-4.532q.447-2.259,1.018-4.484t1.265-4.415q.693-2.19,1.51-4.346t1.755-4.279q.939-2.115,1.949-4.147t2.09-3.976q1.08-1.944,2.228-3.8t2.362-3.63a79.074,79.074,0,0,1,5.511-7.028A70.154,70.154,0,0,1,500.753,155a65.029,65.029,0,0,1,6.567-5.121,62.752,62.752,0,0,1,7.087-4.174,55.094,55.094,0,0,1,13.393-4.724,57.7,57.7,0,0,1,7.123-1.052A62.618,62.618,0,0,1,542.328,139.743Z"/><g class="cls-1"><polygon points="553.539 150.486 535.362 158.544 544.441 152.751 563.223 144.301 553.539 150.486"/><g class="cls-1"><path d="M534.8,277.816l-17.073-.289q-.447-.007-.894-.022c-.3-.01-.6-.021-.895-.035s-.6-.031-.9-.049-.6-.04-.9-.063q-2.048-.158-4.073-.451t-4.032-.72q-2.007-.428-3.991-.988t-3.947-1.258q-1.6-.57-3.161-1.225t-3.071-1.4q-1.514-.744-2.98-1.572T486.005,268l14.9-.386q1.515.978,3.083,1.866t3.185,1.683q1.617.8,3.283,1.5t3.377,1.313q2.1.745,4.217,1.346t4.264,1.059q2.142.458,4.307.771t4.35.483q.48.037.96.067c.319.019.638.037.957.052s.638.027.957.038S534.483,277.811,534.8,277.816Z"/><g class="cls-5"><g class="cls-1"><path d="M534.8,277.816l-17.073-.289q-.447-.007-.894-.022c-.3-.01-.6-.021-.895-.035s-.6-.031-.9-.049-.6-.04-.9-.063q-2.048-.158-4.073-.451t-4.032-.72q-2.007-.428-3.991-.988t-3.947-1.258q-1.6-.57-3.161-1.225t-3.071-1.4q-1.514-.744-2.98-1.572T486.005,268l14.9-.386q1.515.978,3.083,1.866t3.185,1.683q1.617.8,3.283,1.5t3.377,1.313q2.1.745,4.217,1.346t4.264,1.059q2.142.458,4.307.771t4.35.483q.48.037.96.067c.319.019.638.037.957.052s.638.027.957.038.636.018.954.023"/></g></g></g><g class="cls-1"><path d="M497.383,154.808l15.609-8.371a62.961,62.961,0,0,0-6.659,4.125,65.19,65.19,0,0,0-6.189,4.983,70.71,70.71,0,0,0-5.712,5.844,79.371,79.371,0,0,0-5.232,6.71q-1.213,1.772-2.362,3.63t-2.228,3.8q-1.08,1.946-2.09,3.976t-1.949,4.147q-.939,2.124-1.755,4.279t-1.51,4.346q-.694,2.19-1.265,4.415t-1.018,4.484q-.447,2.261-.771,4.532t-.521,4.555q-.2,2.283-.266,4.581t-.01,4.611q.046,2.307.278,4.574t.64,4.492q.411,2.226,1,4.409t1.352,4.323q.806,2.235,1.755,4.361t2.043,4.148q1.092,2.021,2.33,3.935t2.616,3.722q1.258,1.638,2.6,3.169t2.774,2.958q1.43,1.427,2.947,2.749t3.124,2.542l-14.644.57q-1.5-1.139-2.922-2.373t-2.756-2.566q-1.338-1.332-2.594-2.761t-2.432-2.958q-1.29-1.689-2.446-3.475t-2.178-3.673q-1.021-1.887-1.909-3.872t-1.64-4.071q-.713-2-1.262-4.036t-.933-4.116q-.382-2.077-.6-4.194t-.258-4.27q-.054-2.16.012-4.3t.252-4.278q.185-2.133.489-4.253t.723-4.232q.42-2.111.955-4.189t1.185-4.123q.649-2.046,1.415-4.06t1.644-4q.879-1.977,1.826-3.875t1.957-3.715q1.011-1.818,2.087-3.555t2.212-3.392A74.2,74.2,0,0,1,480,168.8a66.4,66.4,0,0,1,5.35-5.467,61.524,61.524,0,0,1,5.8-4.662A59.043,59.043,0,0,1,497.383,154.808Z"/><g class="cls-6"><g class="cls-1"><path d="M496.915,264.84l-14.644.57q-1.5-1.139-2.922-2.373t-2.756-2.566q-1.338-1.332-2.594-2.761t-2.432-2.958q-1.29-1.689-2.446-3.475t-2.178-3.673q-1.021-1.887-1.909-3.872t-1.64-4.071q-.713-2-1.262-4.036t-.933-4.116q-.382-2.077-.6-4.194t-.258-4.27q-.054-2.16.012-4.3t.252-4.278q.185-2.133.489-4.253t.723-4.232q.42-2.111.955-4.189t1.185-4.123q.649-2.046,1.415-4.06t1.644-4q.879-1.977,1.826-3.875t1.957-3.715q1.011-1.818,2.087-3.555t2.212-3.392A74.2,74.2,0,0,1,480,168.8a66.4,66.4,0,0,1,5.35-5.467,61.524,61.524,0,0,1,5.8-4.662,59.043,59.043,0,0,1,6.237-3.861l15.609-8.371a62.961,62.961,0,0,0-6.659,4.125,65.19,65.19,0,0,0-6.189,4.983,70.71,70.71,0,0,0-5.712,5.844,79.371,79.371,0,0,0-5.232,6.71q-1.213,1.772-2.362,3.63t-2.228,3.8q-1.08,1.946-2.09,3.976t-1.949,4.147q-.939,2.124-1.755,4.279t-1.51,4.346q-.694,2.19-1.265,4.415t-1.018,4.484q-.447,2.261-.771,4.532t-.521,4.555q-.2,2.283-.266,4.581t-.01,4.611q.046,2.307.278,4.574t.64,4.492q.411,2.226,1,4.409t1.352,4.323q.806,2.235,1.755,4.361t2.043,4.148q1.092,2.021,2.33,3.935t2.616,3.722q1.258,1.638,2.6,3.169t2.774,2.958q1.43,1.427,2.947,2.749t3.124,2.542"/></g></g></g></g><path class="cls-7" d="M566.417,235.651c-2.132,1.828-13.844,3.966-13.844,3.966l-.409,1.746-1.809,6.2-33.189-3.857-2.2-7.881-11.964-2.993-1.492-7.555a11.752,11.752,0,0,0,5.662-8.11c1.033-5.768-3.5-17.459-3.5-17.459s3.346-14.727,10.587-21.4a26.792,26.792,0,0,1,14.058-6.242,67.937,67.937,0,0,1,14-.376,28.4,28.4,0,0,1,10.971,3.253,27.291,27.291,0,0,1,8.61,8.467c.131.219-14.542,12.788-14.542,12.788l20.1-2.825s1.607,3.737.526,10.011-2.96,13.233-.283,18.61l2.678,5.376S568.548,233.824,566.417,235.651Z"/><path class="cls-8" d="M527.954,205.731l-2.131-1.671a7.411,7.411,0,0,0-5.057-2.628c-3.4-.342-4.923.27-7.055,2.1s-3.47,5.525-3.485,10.885,3.445,7.749,5.267,9.21,4.809,3.548,9.076,2.447,6.712-3.664,6.242-9.073A45.581,45.581,0,0,0,527.954,205.731Z"/><path class="cls-8" d="M554.708,204.276a6.737,6.737,0,0,0-5.291,1.573l-2.563,1.209a44.973,44.973,0,0,0-4.906,10.484c-1.471,5.214.451,8.216,4.432,10.149s7.3.481,9.362-.588,5.986-2.678,6.972-7.941.275-9.2-1.475-11.419S558.1,204.618,554.708,204.276Z"/><path class="cls-8" d="M535.521,225.643a12.145,12.145,0,0,0-2.346,4.1c-.389,1.83-.643,6.829-.643,6.829l1.4.23.716-2,.546-.03.248,2.02,1.262-.14a43.012,43.012,0,0,0,.528-5.737C537.176,228.874,535.521,225.643,535.521,225.643Z"/><polygon points="391.271 293.736 385.195 316.216 384.666 347.739 391.264 346.953 391.271 293.736"/><polygon points="362.841 345.252 362.769 391.04 367.044 373.782 367.574 346.749 362.841 345.252"/><g class="cls-1"><polygon points="394.017 128.6 393.089 145.074 392.778 134.917 393.673 117.405 394.017 128.6"/><polygon points="449.243 133.008 442.906 149.065 445.822 137.926 452.453 120.73 449.243 133.008"/><polygon points="223.185 121.851 237.745 139.769 240.189 151.059 225.113 135.197 223.185 121.851"/><g class="cls-1"><path d="M447.6,172.71,441.4,185.061q.258-.513.46-1.031a10.755,10.755,0,0,0,.346-1.041,10.224,10.224,0,0,0,.234-1.053,10.009,10.009,0,0,0,.12-1.064,9.185,9.185,0,0,0-.083-1.985,9.351,9.351,0,0,0-.511-1.924,10.729,10.729,0,0,0-.934-1.861,13.5,13.5,0,0,0-1.352-1.8,13.087,13.087,0,0,0-1.783-1.669,17.133,17.133,0,0,0-2.229-1.46,23.131,23.131,0,0,0-2.67-1.252,32.189,32.189,0,0,0-3.107-1.042q-1.074-.31-2.206-.557t-2.326-.427q-1.192-.181-2.448-.3t-2.572-.167l-.24-.01-.235-.008-.229-.006-.222-.006q-.429-.009-.81-.01c-.255,0-.493,0-.717.009s-.431.014-.623.026-.368.025-.528.042l3.606-14.27c.177-.019.372-.034.584-.047s.442-.022.688-.028.511-.01.792-.01.58,0,.9.011l.246.006.252.008.26.009.266.01q1.455.057,2.841.185t2.7.328q1.319.2,2.57.472t2.437.614a35.488,35.488,0,0,1,3.434,1.149,25.743,25.743,0,0,1,2.951,1.381,18.757,18.757,0,0,1,2.464,1.612,14.328,14.328,0,0,1,1.972,1.84,14.987,14.987,0,0,1,1.5,1.98,11.893,11.893,0,0,1,1.033,2.053,10.238,10.238,0,0,1,.566,2.123,10.128,10.128,0,0,1,.094,2.191,11.066,11.066,0,0,1-.132,1.174,11.533,11.533,0,0,1-.257,1.161q-.16.577-.382,1.149C447.962,171.954,447.794,172.333,447.6,172.71Z"/><g class="cls-9"><g class="cls-1"><path d="M447.6,172.71,441.4,185.061q.258-.513.46-1.031a10.755,10.755,0,0,0,.346-1.041,10.224,10.224,0,0,0,.234-1.053,10.009,10.009,0,0,0,.12-1.064,9.185,9.185,0,0,0-.083-1.985,9.351,9.351,0,0,0-.511-1.924,10.729,10.729,0,0,0-.934-1.861,13.5,13.5,0,0,0-1.352-1.8,13.087,13.087,0,0,0-1.783-1.669,17.133,17.133,0,0,0-2.229-1.46,23.131,23.131,0,0,0-2.67-1.252,32.189,32.189,0,0,0-3.107-1.042q-1.074-.31-2.206-.557t-2.326-.427q-1.192-.181-2.448-.3t-2.572-.167l-.24-.01-.235-.008-.229-.006-.222-.006q-.429-.009-.81-.01c-.255,0-.493,0-.717.009s-.431.014-.623.026-.368.025-.528.042l3.606-14.27c.177-.019.372-.034.584-.047s.442-.022.688-.028.511-.01.792-.01.58,0,.9.011l.246.006.252.008.26.009.266.01q1.455.057,2.841.185t2.7.328q1.319.2,2.57.472t2.437.614a35.488,35.488,0,0,1,3.434,1.149,25.743,25.743,0,0,1,2.951,1.381,18.757,18.757,0,0,1,2.464,1.612,14.328,14.328,0,0,1,1.972,1.84,14.987,14.987,0,0,1,1.5,1.98,11.893,11.893,0,0,1,1.033,2.053,10.238,10.238,0,0,1,.566,2.123,10.128,10.128,0,0,1,.094,2.191,11.066,11.066,0,0,1-.132,1.174,11.533,11.533,0,0,1-.257,1.161q-.16.577-.382,1.149c-.149.381-.317.76-.507,1.137"/></g></g></g><g class="cls-1"><path d="M331.782,176.273q1.311,3.156,2.62,6.311l.493,1.188.243.585.478,1.153.47,1.13.231.557.456,1.1q-.1-.238-.208-.472c-.073-.157-.15-.312-.231-.467s-.164-.308-.252-.461-.18-.3-.275-.456a10.484,10.484,0,0,0-1.174-1.524,11.326,11.326,0,0,0-1.469-1.324,13.389,13.389,0,0,0-1.767-1.125,16.868,16.868,0,0,0-2.068-.925q-.714-.274-1.47-.489t-1.554-.369q-.8-.155-1.639-.248t-1.725-.123l-.2,0-.192,0-.186,0h-.179c-.176,0-.343,0-.5,0s-.306.01-.444.018-.268.018-.387.03-.23.026-.331.043l-6.693-12.841c.111-.018.233-.034.365-.047s.276-.025.429-.034.316-.015.49-.019.358-.006.553-.005h.2l.205,0,.212,0,.219.006q.977.033,1.906.136t1.811.273q.883.171,1.718.408t1.624.539a18.5,18.5,0,0,1,2.284,1.021,14.8,14.8,0,0,1,1.952,1.241,12.448,12.448,0,0,1,1.623,1.461,11.567,11.567,0,0,1,1.3,1.681q.158.25.3.5t.278.509c.089.171.174.342.255.515S331.71,176.1,331.782,176.273Z"/><g class="cls-10"><g class="cls-1"><path d="M331.782,176.273l4.991,12.023q-.1-.238-.208-.472c-.073-.157-.15-.312-.231-.467s-.164-.308-.252-.461-.18-.3-.275-.456a10.484,10.484,0,0,0-1.174-1.524,11.326,11.326,0,0,0-1.469-1.324,13.389,13.389,0,0,0-1.767-1.125,16.868,16.868,0,0,0-2.068-.925q-.714-.274-1.47-.489t-1.554-.369q-.8-.155-1.639-.248t-1.725-.123l-.2,0-.192,0-.186,0h-.179c-.176,0-.343,0-.5,0s-.306.01-.444.018-.268.018-.387.03-.23.026-.331.043l-6.693-12.841c.111-.018.233-.034.365-.047s.276-.025.429-.034.316-.015.49-.019.358-.006.553-.005h.2l.205,0,.212,0,.219.006q.977.033,1.906.136t1.811.273q.883.171,1.718.408t1.624.539a18.5,18.5,0,0,1,2.284,1.021,14.8,14.8,0,0,1,1.952,1.241,12.448,12.448,0,0,1,1.623,1.461,11.567,11.567,0,0,1,1.3,1.681q.158.25.3.5t.278.509c.089.171.174.342.255.515s.157.346.229.521"/></g></g></g><polygon points="250.77 122.2 263.434 139.05 277.786 200.08 266.567 189.281 250.77 122.2"/><polygon points="233.969 193.212 248.297 203.643 232.289 203.646 216.273 193.216 233.969 193.212"/><polygon points="313.831 167.555 320.524 180.396 320.341 208.082 313.604 198.113 313.831 167.555"/><g class="cls-1"><path d="M473.656,199.4l-8.712,9.839q-.8.9-1.651,1.755t-1.75,1.652q-.9.8-1.852,1.548t-1.953,1.445l7.959-9.172q1.107-.77,2.157-1.6t2.046-1.71q.995-.882,1.933-1.823T473.656,199.4Z"/><g class="cls-11"><g class="cls-1"><path d="M473.656,199.4l-8.712,9.839q-.8.9-1.651,1.755t-1.75,1.652q-.9.8-1.852,1.548t-1.953,1.445l7.959-9.172q1.107-.77,2.157-1.6t2.046-1.71q.995-.882,1.933-1.823t1.823-1.938"/></g></g></g><polygon points="161.704 124.208 182.003 141.997 187.77 218.825 167.019 209.977 161.704 124.208"/><polygon points="63.131 133.8 93.341 150.489 146.459 224.664 121.307 216.446 63.131 133.8"/><g class="cls-1"><path d="M368.332,203.251l1.516,9.484q-.2.351-.4.7c-.136.232-.274.464-.415.694s-.283.46-.429.689-.293.457-.444.684q-1.024,1.534-2.166,2.946t-2.4,2.7q-1.259,1.288-2.634,2.452t-2.866,2.2l-2.762-8.117q1.648-1.148,3.17-2.433t2.913-2.709q1.392-1.424,2.655-2.983t2.4-3.254q.25-.375.491-.755t.475-.76q.233-.382.458-.767T368.332,203.251Z"/><g class="cls-12"><g class="cls-1"><path d="M368.332,203.251l1.516,9.484q-.179.315-.36.628t-.371.624c-.125.208-.252.414-.381.62s-.261.411-.394.615L366.666,206c.148-.226.293-.452.436-.68s.283-.455.422-.684.275-.459.409-.689.268-.462.4-.695"/><path d="M366.666,206l1.676,9.223-.046.07-.046.07-.046.07-.046.07q-1.024,1.534-2.166,2.946t-2.4,2.7q-1.259,1.288-2.634,2.452t-2.866,2.2l-2.762-8.117q1.648-1.148,3.17-2.433t2.913-2.709q1.392-1.424,2.655-2.983t2.4-3.254l.051-.077.051-.077.051-.077.05-.077"/></g></g></g><polygon points="216.273 193.216 232.289 203.646 229.769 225.772 213.439 217.651 216.273 193.216"/><polygon points="241.873 245.069 255.525 250.585 227.92 250.424 211.34 244.891 241.873 245.069"/><polygon points="422.898 272.394 418.295 274.517 383.611 272.761 383.535 269.578 422.898 272.394"/><polygon points="450.025 272.318 443.516 275.224 418.824 223.744 422.679 215.417 450.025 272.318"/><polygon points="503.184 274.421 491.561 277.125 443.516 275.224 450.025 272.318 503.184 274.421"/><polygon points="263.301 272.992 263.701 275.348 253.167 274.935 246.77 274.22 263.301 272.992"/><polygon points="192.412 261.993 210.842 265.893 207.686 276.219 188.895 273.413 192.412 261.993"/><polygon points="211.34 244.891 227.92 250.424 224.606 276.142 207.617 273.327 211.34 244.891"/><polygon points="188.895 273.413 207.686 276.219 192.094 276.285 171.643 273.486 188.895 273.413"/><polygon points="207.617 273.327 224.606 276.142 213.669 276.628 195.513 273.865 207.617 273.327"/><polygon points="292.979 276.878 301.759 279.352 270.737 278.29 261.988 276.244 292.979 276.878"/><polygon points="292.937 262.719 301.708 266.55 301.759 279.352 292.979 276.878 292.937 262.719"/><polygon points="300.444 267.831 308.498 271.172 307.493 279.624 299.323 277.179 300.444 267.831"/><polygon points="299.323 277.179 307.493 279.624 306.135 279.56 297.82 277.108 299.323 277.179"/><polygon points="315.467 226.076 322.046 233.398 321.104 280.28 314.383 277.904 315.467 226.076"/><polygon points="314.383 277.904 321.104 280.28 311.043 279.436 303.251 276.971 314.383 277.904"/><polygon points="375.878 280.861 377.24 282.355 343.101 280.916 339.665 279.548 375.878 280.861"/><polygon points="381.769 280.172 382.004 282.329 368.325 275.09 366.634 272.164 381.769 280.172"/><polygon points="390.944 281.441 390.173 282.46 381.994 282.327 381.852 281.088 390.944 281.441"/><polygon points="171.643 273.486 192.094 276.285 192.826 286.056 172.426 284.294 171.643 273.486"/><polygon points="172.426 284.294 192.826 286.056 153.489 289.702 128.542 289.246 172.426 284.294"/><polygon points="54.868 285.217 86.596 286.89 86.138 296.455 54.321 295.801 54.868 285.217"/><polygon points="73.229 217.604 102.967 225.73 106.043 294.515 76.359 293.654 73.229 217.604"/><polygon points="76.359 293.654 106.043 294.515 92.394 295.848 61.248 295.129 76.359 293.654"/><polygon points="54.321 295.801 86.138 296.455 61.98 298.917 27.572 298.526 54.321 295.801"/></g><g class="cls-1"><path d="M308.611,385.974a46.144,46.144,0,0,1-5.148,3.514c.186-1.312,2.349-2.766,3.221-3.494s1.717-1.5,2.533-2.3,1.605-1.653,2.365-2.539,1.493-1.811,2.2-2.776l7.007-4.527q-.915,1.252-1.9,2.4c-.658.767-3.382,3.8-4.089,4.494S310.89,384.122,308.611,385.974Z"/><path d="M278.166,333.136l11.78,1.536-.146-.018-.147-.014c-.049,0-.1-.009-.149-.012l-.15-.009-.114-.005-.113,0-.113,0H288.9a8.262,8.262,0,0,0-.9.048,7.525,7.525,0,0,0-.86.144,6.891,6.891,0,0,0-1.6.575q-.431.214-.837.469t-.792.547q-.386.293-.748.623t-.7.7c-.228.248-.446.507-.657.777s-.412.55-.605.841-.379.594-.556.907-.346.638-.508.974-.311.669-.452,1.011-.271.687-.392,1.037-.232.7-.334,1.063-.195.722-.279,1.089q-.185.85-.295,1.659t-.144,1.577a14.579,14.579,0,0,0,.007,1.5,12.607,12.607,0,0,0,.163,1.416c.08.458.177.9.288,1.326s.24.833.383,1.224a11.744,11.744,0,0,0,.478,1.122,9.923,9.923,0,0,0,.572,1.019,10.246,10.246,0,0,0,.655.921,9.15,9.15,0,0,0,.728.809,8.526,8.526,0,0,0,.8.693,8.013,8.013,0,0,0,.869.575,9.194,9.194,0,0,0,.916.457,8.682,8.682,0,0,0,.94.342,8.491,8.491,0,0,0,.965.226,8.3,8.3,0,0,0,.987.11l.1.005.1,0,.1,0h.1c.131,0,.262,0,.392-.01s.26-.016.389-.028.257-.029.385-.048.256-.042.382-.068l-11.937,2.421c-.146.03-.294.055-.441.078s-.3.04-.445.055-.3.026-.449.033-.3.011-.453.011h-.113l-.112,0-.113,0-.113,0a9.8,9.8,0,0,1-1.139-.127,9.527,9.527,0,0,1-1.114-.262,9.829,9.829,0,0,1-1.087-.394,10.625,10.625,0,0,1-1.057-.528,9.065,9.065,0,0,1-1-.664,9.631,9.631,0,0,1-.923-.8,10.478,10.478,0,0,1-.84-.934,12.345,12.345,0,0,1-1.418-2.24,13.308,13.308,0,0,1-.551-1.3q-.249-.678-.442-1.414t-.333-1.531a14.29,14.29,0,0,1-.188-1.634,16.813,16.813,0,0,1-.009-1.727q.041-.887.167-1.821t.34-1.916q.146-.636.322-1.258t.386-1.228c.14-.4.29-.8.453-1.2s.336-.783.522-1.167.382-.763.586-1.125.418-.711.642-1.047.456-.66.7-.972.5-.61.759-.9.534-.551.813-.806.567-.494.863-.719.6-.436.914-.632.637-.376.968-.542a8.11,8.11,0,0,1,1.846-.664,8.64,8.64,0,0,1,.993-.165,9.285,9.285,0,0,1,1.037-.055h.13l.13,0,.131,0,.131.006.174.01.171.014.17.017Z"/><path d="M319.926,330.957l6.184,1.828q.566,2.238.957,4.495t.606,4.535q.216,2.279.257,4.575T327.839,351q-.079,1.591-.24,3.146t-.4,3.073q-.243,1.518-.57,3t-.736,2.932q-.416,1.445-.941,2.835t-1.163,2.728q-.638,1.338-1.386,2.621t-1.611,2.512l-7.007,4.527q.995-1.419,1.859-2.9t1.6-3.027q.736-1.543,1.343-3.15t1.087-3.274q.474-1.673.85-3.386t.658-3.467q.282-1.753.467-3.548t.278-3.632q.153-2.675.105-5.327t-.3-5.282q-.249-2.63-.7-5.237T319.926,330.957Z"/><path d="M295.859,298.086a67.859,67.859,0,0,1,8.916,5.008c5.885,3.756,11.427,10.2,12.168,11.078s1.446,1.8,2.116,2.76q1.2,1.724,2.236,3.575t1.92,3.832q.881,1.982,1.605,4.093t1.29,4.353l-6.184-1.828q-.654-2.589-1.489-5.027t-1.854-4.726q-1.017-2.288-2.217-4.426t-2.582-4.127q-1.161-1.666-2.444-3.187t-2.688-2.9q-1.406-1.374-2.933-2.6C302.7,303.147,298.233,299.083,295.859,298.086Z"/></g><path class="cls-13" d="M319.926,330.957q.654,2.585,1.105,5.191t.7,5.237q.249,2.63.3,5.282t-.105,5.327q-.091,1.837-.278,3.632t-.467,3.548q-.281,1.755-.658,3.467t-.85,3.386q-.48,1.668-1.087,3.274t-1.343,3.15q-.735,1.545-1.6,3.027t-1.859,2.9a44.269,44.269,0,0,1-3.139,3.837,41.385,41.385,0,0,1-3.471,3.368,40.147,40.147,0,0,1-3.8,2.9,40.794,40.794,0,0,1-4.13,2.436q-2.147,1.1-4.348,1.963a46.794,46.794,0,0,1-4.459,1.5,45.983,45.983,0,0,1-4.571,1.036,46.6,46.6,0,0,1-4.685.571c-.288.021-.577.039-.865.055s-.577.028-.865.038-.577.018-.865.024-.576.007-.864.007q-1.154,0-2.305-.056t-2.3-.168q-1.149-.111-2.3-.277t-2.3-.388q-1.569-.3-3.1-.711t-3.028-.918q-1.494-.512-2.949-1.128t-2.867-1.338q-1.418-.717-2.77-1.535t-2.641-1.738q-1.288-.918-2.513-1.937t-2.388-2.135q-1.158-1.122-2.227-2.335t-2.048-2.517q-.98-1.305-1.866-2.7t-1.681-2.881q-.764-1.419-1.4-2.889t-1.155-2.991q-.517-1.521-.91-3.091t-.666-3.19q-.273-1.613-.454-3.234t-.273-3.251q-.093-1.63-.095-3.267t.083-3.28q.085-1.642.262-3.277t.444-3.259q.267-1.624.626-3.24t.807-3.223q.45-1.607.959-3.159t1.077-3.053q.567-1.5,1.192-2.95t1.3-2.849a59,59,0,0,1,3.211-5.619,52.664,52.664,0,0,1,3.685-5.024,48.727,48.727,0,0,1,4.165-4.425,46.845,46.845,0,0,1,4.647-3.827,41.4,41.4,0,0,1,10.576-5.524,44.247,44.247,0,0,1,5.888-1.612,49.5,49.5,0,0,1,6.288-.843q.405-.029.806-.051t.8-.037c.265-.009.529-.017.792-.021s.523-.008.784-.007a38.091,38.091,0,0,1,4.39.248,33.464,33.464,0,0,1,4.144.74,30.822,30.822,0,0,1,3.9,1.231,29.74,29.74,0,0,1,3.657,1.721,41.085,41.085,0,0,1,3.973,2.514,40.1,40.1,0,0,1,3.628,2.932,40.68,40.68,0,0,1,3.282,3.346,43.238,43.238,0,0,1,2.936,3.76q1.381,1.989,2.582,4.127t2.217,4.426q1.018,2.287,1.854,4.726T319.926,330.957Zm-33.67,18.1q.036-.74.039-1.47t-.028-1.454q-.031-.723-.1-1.439t-.17-1.425q-.1-.71-.248-1.383t-.333-1.308q-.187-.635-.418-1.232t-.5-1.155a11.9,11.9,0,0,0-.588-1.064,10.609,10.609,0,0,0-.671-.958,9.429,9.429,0,0,0-.753-.848,8.9,8.9,0,0,0-.833-.737,6.745,6.745,0,0,0-1.915-1.068,7.353,7.353,0,0,0-1.086-.3,8.246,8.246,0,0,0-1.17-.14l-.131-.006-.131,0-.13,0h-.13a9.285,9.285,0,0,0-1.037.055,8.64,8.64,0,0,0-.993.165,8.11,8.11,0,0,0-1.846.664q-.5.249-.968.542t-.914.632q-.444.338-.863.719t-.813.806q-.395.431-.759.9t-.7.972c-.224.336-.437.685-.642,1.047s-.4.737-.586,1.125-.36.773-.522,1.167-.313.793-.453,1.2-.268.814-.386,1.228-.225.834-.322,1.258q-.213.982-.34,1.916t-.167,1.821a16.813,16.813,0,0,0,.009,1.727,14.29,14.29,0,0,0,.188,1.634q.139.795.333,1.531t.442,1.414a13.308,13.308,0,0,0,.551,1.3,12.345,12.345,0,0,0,1.418,2.24,10.478,10.478,0,0,0,.84.934,9.631,9.631,0,0,0,.923.8,9.065,9.065,0,0,0,1,.664,10.625,10.625,0,0,0,1.057.528,9.829,9.829,0,0,0,1.087.394,9.527,9.527,0,0,0,1.114.262,9.8,9.8,0,0,0,1.139.127l.113,0,.113,0,.112,0h.113a8.875,8.875,0,0,0,1.873-.195,9.033,9.033,0,0,0,1.8-.589,10.61,10.61,0,0,0,1.737-.987,13.376,13.376,0,0,0,1.671-1.39,10.147,10.147,0,0,0,1.557-1.918,12.974,12.974,0,0,0,1.177-2.41,18.405,18.405,0,0,0,.8-2.9,27.316,27.316,0,0,0,.43-3.392"/><g class="cls-1"><polygon class="cls-14" points="418.531 294.267 415.308 388.813 393.06 389.599 362.826 345.166 361.931 390.147 335.455 389.788 333.779 295.384 359.567 295.176 391.264 346.953 392.122 294.615 418.531 294.267"/></g><path class="cls-15" d="M503.184,274.421l-53.159-2.1-27.346-56.9-.685,56.01-38.575-1.945,5.953,10.977-7.6-.287-15.135-8.008,7.116,7.719-33.478-1.225-24.805-52.582L314.383,277.9l-11.132-.933-2.807-9.14-1.121,9.348-1.5-.071-4.883-14.389.042,14.159-30.161-1.434.088-2.225-15.414.094-5.619-28.244-30.533-.178-3.723,28.436-12.1.538-3.1-11.872-3.517,11.42-17.252.073.783,10.808-43.543,4.034L73.229,217.6l3.13,76.05-15.111,1.475-6.38-9.912L54.321,295.8l-26.749,2.725L24.065,175.413,36.927,169.4l-13.489-5.318-.8-25.573,40.1-3.733,58.429,81.857-4.245-87.248,43.94-4.182,6.157,84.77,19.478-87.2,35.94-.021,2.676,12.446,3.366-12.059,21.578-.025,16.457,66.181,2.226-51.961c4.985-.415,27-2.075,28.646-2.19s3.3-.21,4.964-.285,3.321-.13,4.988-.165,3.339-.051,5.015-.046q.865,0,1.733.011t1.736.026c.58.01,1.159.024,1.74.039s1.161.033,1.742.053q1.853.072,3.738.2t3.8.309q1.917.183,3.867.422t3.93.535q1.974.3,3.9.7t3.8.9q1.872.5,3.69,1.1t3.582,1.3q1.77.7,3.456,1.543t3.289,1.821q1.6.98,3.122,2.1t2.956,2.384q.959.837,1.846,1.757t1.711,1.92q.823,1,1.585,2.076t1.467,2.224l.539-36.31q2-.14,4.088-.3t4.274-.347q2.184-.187,4.461-.4t4.65-.454l6.965,10.342-.344-11.195c2.436-.232,10.833-.642,13.021-.711s13.263.01,15.387.057c.321.008.642.015.963.024s.642.017.963.027l.965.031.965.036q2,.081,4.039.223t4.11.345q2.073.2,4.183.467t4.254.59q.822.127,1.631.274t1.609.31q.8.163,1.59.34t1.574.363l.316,13.227,3.21-12.278q.8.235,1.6.483t1.583.512q.788.264,1.567.545t1.55.583q1.914.762,3.741,1.676t3.565,1.979q1.74,1.065,3.392,2.279t3.218,2.576a36.714,36.714,0,0,1,2.988,2.919,38.078,38.078,0,0,1,2.678,3.288,41.047,41.047,0,0,1,2.369,3.659q1.107,1.924,2.058,4.036.813,1.91,1.449,3.88t1.1,4q.462,2.034.751,4.128t.4,4.252q.114,2.163.059,4.307t-.278,4.269q-.224,2.125-.616,4.233t-.951,4.2q-.559,2.1-1.28,4.123t-1.6,3.987q-.882,1.96-1.924,3.852t-2.247,3.717q-1.2,1.832-2.551,3.512t-2.836,3.21q-1.491,1.531-3.124,2.914T465.7,206.47Zm-58.4-97.739a19.653,19.653,0,0,0,1.691-2.086,15.018,15.018,0,0,0,1.25-2.126,12.413,12.413,0,0,0,.8-2.169,11.221,11.221,0,0,0,.356-2.212,10.128,10.128,0,0,0-.094-2.191,10.238,10.238,0,0,0-.566-2.123,11.893,11.893,0,0,0-1.033-2.053,14.987,14.987,0,0,0-1.5-1.98,14.328,14.328,0,0,0-1.972-1.84,18.757,18.757,0,0,0-2.464-1.612,25.743,25.743,0,0,0-2.951-1.381,35.488,35.488,0,0,0-3.434-1.149q-1.185-.342-2.437-.614t-2.57-.472q-1.319-.2-2.7-.328t-2.841-.185l-.266-.01-.26-.009-.252-.008-.246-.006c-.315-.007-.614-.01-.9-.011s-.545,0-.792.01-.476.015-.688.028-.407.028-.584.047l.5,33.01q1.928-.073,3.712-.242t3.422-.43q1.638-.261,3.13-.615t2.837-.8q1.751-.582,3.3-1.274a28.176,28.176,0,0,0,2.908-1.5,22.589,22.589,0,0,0,2.515-1.724,19.178,19.178,0,0,0,2.122-1.951M238.028,217.235l-4.059-24.023-17.7,0-2.385,24.678ZM332.71,181.93a13.154,13.154,0,0,0-.028-2.037,12.306,12.306,0,0,0-.343-1.963,12.481,12.481,0,0,0-.656-1.89,13.707,13.707,0,0,0-.967-1.816,11.567,11.567,0,0,0-1.3-1.681,12.448,12.448,0,0,0-1.623-1.461,14.8,14.8,0,0,0-1.952-1.241,18.5,18.5,0,0,0-2.284-1.021q-.789-.3-1.624-.539t-1.718-.408q-.882-.171-1.811-.273t-1.906-.136l-.219-.006-.212,0-.205,0h-.2c-.195,0-.379,0-.553.005s-.337.011-.49.019-.3.02-.429.034-.254.029-.365.047l-.227,30.558q1.3-.094,2.5-.271t2.3-.437q1.1-.261,2.108-.607a18.036,18.036,0,0,0,1.916-.781,20.68,20.68,0,0,0,2.237-1.209,18.579,18.579,0,0,0,1.974-1.421,17.179,17.179,0,0,0,1.715-1.627,16.981,16.981,0,0,0,1.458-1.828q.346-.508.651-1.024t.571-1.034c.176-.346.34-.692.489-1.04s.287-.695.409-1.042l.652-2.651c.013-.1.026-.2.039-.3s.025-.2.036-.3.022-.2.03-.305.016-.2.021-.306m35.07,58.73.552-37.409q-.219.388-.445.774t-.458.767q-.234.381-.475.76t-.491.755q-1.132,1.7-2.4,3.254t-2.655,2.983q-1.392,1.423-2.913,2.709t-3.17,2.433l12.45,22.974"/><g class="cls-1"><path d="M127.325,386.559l12.932-1.155c-7.116,9.108-16.362,17.9-22.014,27.987l-11.128,4.4A248.084,248.084,0,0,1,127.325,386.559Z"/></g><g class="cls-1"><g class="cls-1"><path d="M184.588,360.084l8.648-.514c-15.81,12.027-33.173,26.45-38.177,46.388l-5.8,2.946C148.745,396.859,168.469,372.346,184.588,360.084Z"/></g><polygon points="217.413 354.025 219.436 353.384 108.388 362.597 93.275 363.145 217.413 354.025"/><g class="cls-1"><path d="M219.093,342.511l1.884,1.37a34.856,34.856,0,0,0-.771,10.7l-2.739.246C216.99,350.81,217.21,345.507,219.093,342.511Z"/></g><g class="cls-1"><path d="M144.266,321.926l3.55,1.711c5.943,6.94,17.1,13.872,24.976,17.223,9.161,3.9,10.452,3.781,19.734,4.288l-13,.852C167.3,341.312,150.3,334.764,144.266,321.926Z"/><g class="cls-16"><g class="cls-1"><path d="M144.266,321.926l2.064,2.688c.491,1.044,12.258,10.017,12.258,10.017-1.639-.969-3.224-1.971-4.711-3a50.522,50.522,0,0,1-4.129-3.148,28.952,28.952,0,0,1-3.288-3.252,15.234,15.234,0,0,1-2.194-3.307"/></g></g></g><g class="cls-1"><path d="M107.78,318.588l13.677,3.348c4.126,5.207,10.026,11.056,16.664,12.843l-13.054-1.786C117.235,330.885,112.505,324.552,107.78,318.588Z"/><g class="cls-17"><g class="cls-1"><path d="M119.818,330.605l13.348,1.92c.5.3.968.554,1.405.781s.841.422,1.207.589.7.305.984.419.536.2.738.272l-13.091-1.8c-.214-.073-.476-.168-.781-.289s-.655-.267-1.043-.444-.816-.383-1.278-.623-.961-.515-1.489-.828"/><path d="M124.409,332.789l13.091,1.8c.087.03.165.056.235.078s.132.041.184.057l.129.038.073.02-13.054-1.786-.078-.022-.137-.039-.194-.061c-.074-.023-.157-.051-.249-.082"/></g></g></g></g><path class="cls-18" d="M90.619,384.052a68.158,68.158,0,0,0-7.134,17.813,75.959,75.959,0,0,0-2.121,14.2,55.36,55.36,0,0,0,0,6.513l25.444-5.426c2-3.571,4.255-7.212,6.52-10.678s4.54-6.757,6.584-9.627,8.006-10.01,8.006-10.01-3.172,4.982-4.679,7.654-3.048,5.368-4.461,7.991-2.7,5.172-3.689,7.548a25.847,25.847,0,0,0-1.93,6.514l35.6-8.348a59.278,59.278,0,0,1,8.384-17.927,115.311,115.311,0,0,1,12.524-15.458c4.308-4.526,8.388-6.949,11.577-9.687s4.639-4.053,5.042-4.359l-80.614,5.941A60.9,60.9,0,0,0,90.619,384.052Z"/><path class="cls-19" d="M157.911,335.588c-6.627-4.1-12.863-10.287-14.131-12.894l-29.328-3.186a29.346,29.346,0,0,0,1.664,3.48,19.639,19.639,0,0,0,2.022,2.848c.787.938,1.711,1.91,2.842,3.056s2.47,2.466,4.087,4.1a14.366,14.366,0,0,1-1.689-.593,28.419,28.419,0,0,1-3.957-2.033,39.9,39.9,0,0,1-5.547-4.122,52.555,52.555,0,0,1-6.458-6.856l-35.541.386a31.1,31.1,0,0,0,1.675,4.239,50.323,50.323,0,0,0,5.539,9.053,58.86,58.86,0,0,0,10.948,10.944,70.744,70.744,0,0,0,17.9,9.914L92.89,355.7c-2.067,4.214-1.734,7.064-1.734,7.064l126.257-8.725a19.286,19.286,0,0,1-.092-2.173c0-.861.033-1.826.087-2.8s.329-2.541.42-3.419.195-1.659.307-2.246l-35.525,2.4C179.708,345.679,169.85,342.967,157.911,335.588Z"/><g class="cls-1"><polygon points="463.173 371.176 450.902 367.917 478.867 368.415 496.368 370.879 463.173 371.176"/><polygon points="502.048 328.868 483.933 330.245 451.023 328.873 463.312 326.373 502.048 328.868"/><polygon points="434.341 389.956 427.509 384.605 429.744 302.288 436.73 295.52 434.341 389.956"/></g><polygon class="cls-20" points="437.584 296.503 504.002 299.407 501.315 327.959 463.312 326.373 462.726 342.057 485.555 341.815 484.225 359.8 464.145 360.29 463.173 371.176 495.464 371.75 494.626 391.447 435.26 389.096 437.584 296.503"/><polygon points="557.444 379.862 553.652 378.701 540.177 362.535 547.026 362.528 557.444 379.862"/><polygon points="532.796 366.002 532.787 365.994 530.116 359.047 533.304 358.028 532.796 366.002"/><polygon points="532.193 358.878 529.199 359.837 500.333 356.385 501.432 355.802 532.193 358.878"/><path d="M500.145,356.432s-1.351-.959-.672-6.813c.653-5.631,2.5-6.684,2.5-6.684l2.956,6.484Z"/><polygon points="534.397 346.397 530.625 346.643 535.003 340.15 535.043 340.127 534.397 346.397"/><polygon points="604.408 346.266 593.519 347.369 604.897 344.528 616.459 343.257 604.408 346.266"/><polygon points="579.749 343.989 570.24 345.22 590.879 340.063 601.61 338.527 579.749 343.989"/><polygon points="547.673 343.698 539.954 344.993 557.351 327.92 562.38 326.046 547.673 343.698"/><path class="cls-21" d="M616.436,344.124l-12.051,3.009,6.533-4.761-9.351-2.973-21.861,5.462,11.839-8.653L562.573,327l-14.9,16.7-12.043-2.622-1.245,5.406-31.435-2.626a18.052,18.052,0,0,1-.266,5.512,45.647,45.647,0,0,1-1.462,6.331l30.749,3.134.446,6.612,14.609-2.917,10.605,16.411,124.907-13.787Z"/></svg>